# Blender v2.93.5 OBJ File: ''
# www.blender.org
mtllib Accumula Town House.mtl
o Accumula_Town_House
v 10.670469 5.999995 26.661364
v 30.220791 5.999991 30.878599
v 30.220795 38.999992 30.878607
v 10.670473 38.999992 26.661369
v -14.744945 5.999999 21.178955
v -14.744941 39.000000 21.178963
v -34.295261 39.000000 16.961729
v -34.295265 6.000002 16.961721
v -39.443348 2.000003 16.874218
v -35.023739 2.000000 24.988588
v 35.875015 1.999990 33.121284
v 39.286564 1.999988 41.018204
v 45.363800 1.999998 -10.866930
v 50.251373 1.999997 -9.812624
v -39.443348 2.000003 16.874218
v 35.875015 1.999990 33.121284
v 45.363800 1.999998 -10.866930
v -29.954569 2.000010 -27.113997
v -29.954569 2.000010 -27.113997
v 45.363800 1.999998 -10.866930
v 48.415989 1.999998 -16.346548
v -28.689394 2.000011 -32.979095
v 45.363800 1.999998 -10.866930
v 50.251373 1.999997 -9.812624
v 48.415989 1.999998 -16.346548
v 5.916958 2.999994 29.727978
v 9.827022 2.999994 30.571424
v 5.916962 33.999996 29.727982
v 9.827026 42.999992 30.571434
v -2.880682 33.999996 27.830229
v -2.880681 42.999996 27.830229
v -11.678324 33.999996 25.932472
v -15.588388 43.000000 25.089025
v -11.678328 2.999997 25.932465
v -15.588392 2.999998 25.089018
v 10.248745 2.999994 28.616392
v 13.181295 12.999993 29.248980
v 10.248749 42.999992 28.616402
v 13.181298 36.999992 29.248985
v 29.799070 42.999992 32.833637
v 26.866520 36.999992 32.201050
v 29.799067 2.999990 32.833626
v 26.866516 12.999991 32.201042
v 10.248745 2.999994 28.616392
v 13.181295 12.999993 29.248980
v -15.166664 43.000000 23.133995
v -18.099211 37.000000 22.501410
v -15.166670 2.999998 23.133987
v -18.099215 12.999999 22.501404
v -34.716991 3.000001 18.916750
v -31.784445 13.000001 19.549339
v -34.716984 43.000000 18.916759
v -31.784441 37.000000 19.549343
v -15.166664 43.000000 23.133995
v -18.099211 37.000000 22.501410
v 9.827026 42.999992 30.571434
v -0.925647 55.499996 28.251955
v -2.880681 42.999996 27.830229
v -2.880679 55.499996 27.830231
v -15.588388 43.000000 25.089025
v -4.835711 55.499996 27.408508
v -15.588392 2.999998 25.089018
v -15.588388 43.000000 25.089025
v -15.166664 43.000000 23.133995
v -15.166670 2.999998 23.133987
v 9.827022 2.999994 30.571424
v 10.248745 2.999994 28.616392
v 10.248749 42.999992 28.616402
v 9.827026 42.999992 30.571434
v 6.338684 33.999996 27.772953
v 5.916962 33.999996 29.727982
v -2.880682 33.999996 27.830229
v -11.256601 33.999996 23.977442
v 5.916962 33.999996 29.727982
v 6.338684 33.999996 27.772953
v 6.338680 2.999994 27.772947
v 5.916958 2.999994 29.727978
v -11.678328 2.999997 25.932465
v -11.256605 2.999997 23.977434
v -11.256601 33.999996 23.977442
v -11.678324 33.999996 25.932472
v 39.709564 2.999999 -13.109621
v -24.806482 3.000009 -27.026499
v -24.806479 43.000008 -27.026487
v 39.709568 43.000000 -13.109612
v -30.782743 3.000009 -23.200644
v -38.795490 3.000003 13.944963
v -38.795486 43.000004 13.944973
v -30.782738 43.000011 -23.200632
v 35.530094 42.999989 29.977882
v 35.530090 2.999990 29.977875
v 43.542835 2.999997 -7.167731
v 43.542839 42.999996 -7.167724
v 20.292902 69.000000 1.116010
v 17.762558 69.000000 12.846201
v 17.762560 77.890633 12.846202
v 20.292902 77.890633 1.116012
v 29.492748 68.999992 15.376541
v 32.023090 68.999992 3.646352
v 32.023090 77.890625 3.646354
v 29.492750 77.890625 15.376544
v 20.292902 77.890633 1.116012
v 32.023090 77.890625 3.646354
v 32.023090 68.999992 3.646352
v 20.292902 69.000000 1.116010
v 17.762560 77.890633 12.846202
v 29.492750 77.890625 15.376544
v 32.023090 77.890625 3.646354
v 20.292902 77.890633 1.116012
v 17.762558 69.000000 12.846201
v 29.492748 68.999992 15.376541
v 29.492750 77.890625 15.376544
v 17.762560 77.890633 12.846202
v -11.256601 33.999996 23.977442
v -2.880682 33.999996 27.830229
v -11.678324 33.999996 25.932472
v -43.204071 47.000004 20.154999
v -43.204071 43.000004 20.154999
v -16.776764 47.000000 25.855682
v -15.799250 43.000000 26.066544
v -5.046573 60.499996 28.386024
v -5.046574 55.499996 28.386024
v -1.140326 60.503906 29.228649
v -1.136510 55.499996 29.229471
v 10.593681 46.999992 31.759811
v 9.616165 42.999992 31.548950
v 36.986610 46.999989 37.453079
v 36.986607 42.999989 37.453079
v -43.204071 47.000004 20.154999
v -16.776764 47.000000 25.855682
v -28.234150 70.000008 2.924165
v -2.570594 60.503906 16.907846
v 30.451174 69.999992 15.583286
v 1.343287 60.503906 17.752117
v 36.986610 46.999989 37.453079
v 10.593681 46.999992 31.759811
v 1.343287 60.503906 17.752117
v -2.570594 60.503906 16.907846
v -5.046573 60.499996 28.386024
v -1.140326 60.503906 29.228649
v -32.239254 47.000011 -30.675825
v -25.703808 70.000008 -8.806025
v 32.981514 69.999992 3.853096
v 47.951424 46.999996 -13.377745
v -5.046574 55.499996 28.386024
v -15.799250 43.000000 26.066544
v -15.377525 43.000000 24.111511
v -4.624850 55.499996 26.430994
v 9.616165 42.999992 31.548950
v -1.136510 55.499996 29.229471
v -0.714786 55.499996 27.274439
v 10.037888 42.999992 29.593916
v -43.204071 47.000004 20.154999
v -28.234150 70.000008 2.924165
v -25.703808 70.000008 -8.806025
v -32.239254 47.000011 -30.675825
v 30.451174 69.999992 15.583286
v 36.986610 46.999989 37.453079
v 47.951424 46.999996 -13.377745
v 32.981514 69.999992 3.853096
v -32.239254 43.000011 -30.675825
v -43.204071 43.000004 20.154999
v -43.204071 47.000004 20.154999
v -32.239254 47.000011 -30.675825
v 36.986607 42.999989 37.453079
v 47.951424 42.999996 -13.377748
v 47.951424 46.999996 -13.377745
v 36.986610 46.999989 37.453079
v -32.239254 47.000011 -30.675825
v 47.951424 46.999996 -13.377745
v 47.951424 42.999996 -13.377748
v -32.239254 43.000011 -30.675825
v -25.703808 70.000008 -8.806025
v -28.234150 70.000008 2.924165
v 30.451174 69.999992 15.583286
v 32.981514 69.999992 3.853096
v 10.134193 2.999997 10.177660
v 6.338680 2.999994 27.772947
v 6.338684 33.999996 27.772953
v 10.134197 34.000000 10.177666
v -11.256605 2.999997 23.977434
v 6.338680 2.999994 27.772947
v 10.134193 2.999997 10.177660
v -7.461094 3.000000 6.382147
v -7.461094 3.000000 6.382147
v -7.461090 34.000000 6.382154
v -11.256601 33.999996 23.977442
v -11.256605 2.999997 23.977434
v 10.134197 34.000000 10.177666
v 6.338684 33.999996 27.772953
v -11.256601 33.999996 23.977442
v -7.461090 34.000000 6.382154
v 10.134193 2.999997 10.177660
v 10.134197 34.000000 10.177666
v -7.461090 34.000000 6.382154
v -7.461094 3.000000 6.382147
v 17.703157 14.636712 31.998674
v 21.613224 14.636712 32.842117
v 21.881742 14.636712 31.597311
v 17.971680 14.636712 30.753866
v 13.181295 12.999993 29.248980
v 17.647150 12.999992 32.258316
v 17.647154 36.999992 32.258324
v 13.181298 36.999992 29.248985
v 21.557213 12.999992 33.101768
v 26.866516 12.999991 32.201042
v 26.866520 36.999992 32.201050
v 21.557215 36.999992 33.101772
v 17.647154 36.999992 32.258324
v 21.557215 36.999992 33.101772
v 26.866520 36.999992 32.201050
v 13.181298 36.999992 29.248985
v 17.647150 12.999992 32.258316
v 21.557213 12.999992 33.101768
v 21.557215 36.999992 33.101772
v 17.647154 36.999992 32.258324
v -0.714786 55.499996 27.274439
v -1.136510 55.499996 29.229471
v -5.046574 55.499996 28.386024
v -4.624850 55.499996 26.430994
v -23.352509 14.636719 23.142479
v -23.083986 14.636719 21.897671
v -26.994055 14.636720 21.054224
v -27.262573 14.636720 22.299032
v -18.099215 12.999999 22.501404
v -18.099211 37.000000 22.501410
v -23.408514 37.000000 23.402130
v -23.408518 12.999999 23.402124
v -27.318584 13.000000 22.558680
v -27.318583 37.000000 22.558683
v -31.784441 37.000000 19.549343
v -31.784445 13.000001 19.549339
v -23.408514 37.000000 23.402130
v -18.099211 37.000000 22.501410
v -31.784441 37.000000 19.549343
v -27.318583 37.000000 22.558683
v -23.408518 12.999999 23.402124
v -23.408514 37.000000 23.402130
v -27.318583 37.000000 22.558683
v -27.318584 13.000000 22.558680
v -34.716991 3.000001 18.916750
v -34.716984 43.000000 18.916759
v -34.927845 43.000000 19.894276
v -34.927849 3.000001 19.894266
v 29.799070 42.999992 32.833637
v 29.799067 2.999990 32.833626
v 29.588205 2.999990 33.811142
v 29.588209 42.999992 33.811153
v 35.530094 42.999989 29.977882
v 34.475784 42.999989 34.865463
v 34.475780 2.999990 34.865456
v 35.530090 2.999990 29.977875
v -39.849796 43.000004 18.832554
v -39.849800 3.000002 18.832542
v -34.927849 3.000001 19.894266
v -34.927845 43.000000 19.894276
v 44.597153 42.999996 -12.055304
v 44.597145 2.999998 -12.055311
v 39.709564 2.999999 -13.109621
v 39.709568 43.000000 -13.109612
v -29.728430 43.000011 -28.088213
v -29.728434 3.000010 -28.088221
v -30.782743 3.000009 -23.200644
v -30.782738 43.000011 -23.200632
v 29.588205 2.999990 33.811142
v 34.475780 2.999990 34.865456
v 34.475784 42.999989 34.865463
v 29.588209 42.999992 33.811153
v 43.542835 2.999997 -7.167731
v 44.597145 2.999998 -12.055311
v 44.597153 42.999996 -12.055304
v 43.542839 42.999996 -7.167724
v -39.849796 43.000004 18.832554
v -38.795486 43.000004 13.944973
v -38.795490 3.000003 13.944963
v -39.849800 3.000002 18.832542
v -24.806482 3.000009 -27.026499
v -29.728434 3.000010 -28.088221
v -29.728430 43.000011 -28.088213
v -24.806479 43.000008 -27.026487
v -11.393333 33.999996 24.611301
v -12.385042 33.999996 29.208677
v -12.385041 36.999996 29.208677
v -11.393332 36.999996 24.611301
v 5.210245 33.999996 33.004189
v 6.201953 33.999996 28.406813
v 6.201953 36.999996 28.406815
v 5.210245 36.999996 33.004189
v -12.385041 36.999996 29.208677
v 5.210245 36.999996 33.004189
v 6.201953 36.999996 28.406815
v -11.393332 36.999996 24.611301
v -12.385042 33.999996 29.208677
v 5.210245 33.999996 33.004189
v 5.210245 36.999996 33.004189
v -12.385041 36.999996 29.208677
v -2.570594 60.503906 16.907846
v -16.776764 47.000000 25.855682
v -5.046573 60.499996 28.386024
v 21.881742 14.636712 31.597311
v 21.613224 14.636712 32.842117
v 26.922527 14.636711 31.941397
v 10.593681 46.999992 31.759811
v 1.343287 60.503906 17.752117
v -1.140326 60.503906 29.228649
v 17.703157 14.636712 31.998674
v 17.971680 14.636712 30.753866
v 13.237302 14.636713 28.989334
v -26.994055 14.636720 21.054224
v -31.728434 14.636721 19.289692
v -27.262573 14.636720 22.299032
v -23.352509 14.636719 23.142479
v -18.043203 14.636719 22.241756
v -23.083986 14.636719 21.897671
vt 0.000000 -1.000000
vt 1.000000 -1.000000
vt 1.000000 0.000000
vt 0.000000 0.000000
vt 0.000000 -1.000000
vt 0.000000 0.000000
vt 1.000000 0.000000
vt 1.000000 -1.000000
vt 1.109375 -0.984375
vt 1.109375 -0.031250
vt 1.109375 -0.984375
vt 1.109375 -0.031250
vt 1.109375 -0.984375
vt 1.109375 -0.031250
vt 0.343750 -0.937500
vt 0.937500 -0.937500
vt 0.937500 -0.343750
vt 0.343750 -0.343750
vt 1.109375 -0.984375
vt 1.109375 -0.984375
vt 1.109375 -0.031250
vt 1.109375 -0.031250
vt 1.445313 -0.984375
vt 1.445313 -0.031250
vt 1.445313 -0.031250
vt 0.089844 -0.703125
vt 0.031250 -0.703125
vt 0.089844 -0.301758
vt 0.031250 -0.187500
vt 0.204102 -0.301758
vt 0.203125 -0.187500
vt 0.089844 -0.301758
vt 0.031250 -0.187500
vt 0.089844 -0.703125
vt 0.031250 -0.703125
vt 1.578125 -0.625000
vt 1.629883 -0.472656
vt 1.578125 -0.015625
vt 1.626953 -0.107422
vt 1.984375 -0.015625
vt 1.921875 -0.107422
vt 1.984375 -0.625000
vt 1.921875 -0.472656
vt 1.578125 -0.625000
vt 1.629883 -0.472656
vt 1.578125 -0.015625
vt 1.626953 -0.107422
vt 1.578125 -0.625000
vt 1.629883 -0.472656
vt 1.984375 -0.625000
vt 1.921875 -0.472656
vt 1.984375 -0.015625
vt 1.921875 -0.107422
vt 1.578125 -0.015625
vt 1.626953 -0.107422
vt 0.031250 -0.187500
vt 0.174805 -0.031250
vt 0.203125 -0.187500
vt 0.203125 -0.031250
vt 0.031250 -0.187500
vt 0.174805 -0.031250
vt 0.109375 -0.703125
vt 0.109375 -0.312500
vt 0.140625 -0.312500
vt 0.140625 -0.703125
vt 0.109375 -0.703125
vt 0.140625 -0.703125
vt 0.140625 -0.312500
vt 0.109375 -0.312500
vt 0.140625 -0.312500
vt 0.109375 -0.312500
vt 0.109375 -0.312500
vt 0.140625 -0.312500
vt 0.109375 -0.312500
vt 0.140625 -0.312500
vt 0.140625 -0.703125
vt 0.109375 -0.703125
vt 0.109375 -0.703125
vt 0.140625 -0.703125
vt 0.140625 -0.312500
vt 0.109375 -0.312500
vt 0.250000 -0.625000
vt 0.984375 -0.625000
vt 0.984375 -0.015625
vt 0.250000 -0.015625
vt 0.984375 -0.625000
vt 0.250000 -0.625000
vt 0.250000 -0.015625
vt 0.984375 -0.015625
vt 0.250000 -0.015625
vt 0.250000 -0.625000
vt 0.984375 -0.625000
vt 0.984375 -0.015625
vt 1.343750 1.046875
vt 1.203125 1.046875
vt 1.203125 1.250000
vt 1.343750 1.250000
vt 1.203125 1.046875
vt 1.343750 1.046875
vt 1.343750 1.250000
vt 1.203125 1.250000
vt 1.359375 1.250000
vt 1.406250 1.250000
vt 1.406250 1.046875
vt 1.359375 1.046875
vt 1.015625 1.015625
vt 1.171875 1.015625
vt 1.171875 1.171875
vt 1.015625 1.171875
vt 1.203125 1.046875
vt 1.343750 1.046875
vt 1.343750 1.250000
vt 1.203125 1.250000
vt 0.140625 -0.312500
vt 0.109375 -0.312500
vt 0.109375 -0.312500
vt 2.015625 -1.531250
vt 2.015625 -1.609375
vt 2.046875 -1.531250
vt 2.046875 -1.609375
vt 2.078125 -1.531250
vt 2.078125 -1.609375
vt 2.093750 -1.531250
vt 2.093750 -1.609375
vt 2.125000 -1.531250
vt 2.125000 -1.609375
vt 2.234375 -1.531250
vt 2.234375 -1.609375
vt 2.482422 0.562500
vt 2.650391 0.562500
vt 2.679688 0.937500
vt 2.820313 0.783203
vt 3.287109 0.937500
vt 2.904297 0.783203
vt 3.482422 0.562500
vt 3.074219 0.562500
vt 5.619141 0.937500
vt 5.619141 0.984375
vt 4.619141 0.984375
vt 4.619141 0.937500
vt 2.482422 0.562500
vt 2.679688 0.937500
vt 3.287109 0.937500
vt 3.482422 0.562500
vt 1.203125 2.265625
vt 1.203125 2.334961
vt 1.236328 2.334961
vt 1.236328 2.265625
vt 1.203125 2.109375
vt 1.203125 2.171875
vt 1.236328 2.171875
vt 1.236328 2.109375
vt 3.560547 0.562500
vt 3.875000 0.937500
vt 4.062500 0.937500
vt 4.388672 0.562500
vt 3.875000 0.937500
vt 3.560547 0.562500
vt 4.388672 0.562500
vt 4.062500 0.937500
vt 1.234375 -1.609375
vt 1.015625 -1.609375
vt 1.015625 -1.531250
vt 1.234375 -1.531250
vt 1.015625 -1.609375
vt 1.234375 -1.609375
vt 1.234375 -1.531250
vt 1.015625 -1.531250
vt 1.015625 -1.531250
vt 1.234375 -1.531250
vt 1.234375 -1.609375
vt 1.015625 -1.609375
vt 2.679688 0.984375
vt 2.679688 0.937500
vt 3.287109 0.937500
vt 3.287109 0.984375
vt 3.031250 2.079102
vt 3.050781 2.079102
vt 3.050781 2.313477
vt 3.031250 2.313477
vt 2.484375 2.015625
vt 2.484375 2.359375
vt 2.015625 2.359375
vt 2.015625 2.015625
vt 3.031250 2.079102
vt 3.031250 2.313477
vt 3.050781 2.313477
vt 3.050781 2.079102
vt 3.031250 2.313477
vt 3.050781 2.313477
vt 3.050781 2.079102
vt 3.031250 2.079102
vt 3.050781 2.313477
vt 3.031250 2.313477
vt 3.031250 2.079102
vt 3.050781 2.079102
vt 0.212891 0.490234
vt 0.291016 0.490234
vt 0.263672 0.474609
vt 0.240234 0.474609
vt 0.984375 1.015625
vt 0.687500 1.015625
vt 0.687500 1.500000
vt 0.984375 1.500000
vt 0.687500 1.015625
vt 0.984375 1.015625
vt 0.984375 1.500000
vt 0.687500 1.500000
vt 0.470703 1.489258
vt 0.375000 1.489258
vt 0.375000 1.469727
vt 0.470703 1.469727
vt 1.703125 1.015625
vt 1.953125 1.015625
vt 1.953125 1.500000
vt 1.703125 1.500000
vt 1.236328 2.171875
vt 1.203125 2.171875
vt 1.203125 2.265625
vt 1.236328 2.265625
vt 0.212891 0.490234
vt 0.240234 0.474609
vt 0.263672 0.474609
vt 0.291016 0.490234
vt 0.984375 1.015625
vt 0.984375 1.500000
vt 0.687500 1.500000
vt 0.687500 1.015625
vt 0.687500 1.015625
vt 0.687500 1.500000
vt 0.984375 1.500000
vt 0.984375 1.015625
vt 0.470703 1.489258
vt 0.470703 1.469727
vt 0.375000 1.469727
vt 0.375000 1.489258
vt 1.703125 1.015625
vt 1.703125 1.500000
vt 1.953125 1.500000
vt 1.953125 1.015625
vt 4.640625 0.015625
vt 4.640625 0.468750
vt 4.609375 0.468750
vt 4.609375 0.015625
vt 4.640625 0.468750
vt 4.640625 0.015625
vt 4.609375 0.015625
vt 4.609375 0.468750
vt 4.640625 0.468750
vt 4.531250 0.468750
vt 4.531250 0.015625
vt 4.640625 0.015625
vt 4.531250 0.468750
vt 4.531250 0.015625
vt 4.640625 0.015625
vt 4.640625 0.468750
vt 4.640625 0.468750
vt 4.640625 0.015625
vt 4.531250 0.015625
vt 4.531250 0.468750
vt 4.640625 0.468750
vt 4.640625 0.015625
vt 4.531250 0.015625
vt 4.531250 0.468750
vt 4.531250 0.015625
vt 4.640625 0.015625
vt 4.640625 0.468750
vt 4.531250 0.468750
vt 4.531250 0.015625
vt 4.640625 0.015625
vt 4.640625 0.468750
vt 4.531250 0.468750
vt 4.531250 0.468750
vt 4.640625 0.468750
vt 4.640625 0.015625
vt 4.531250 0.015625
vt 4.640625 0.015625
vt 4.531250 0.015625
vt 4.531250 0.468750
vt 4.640625 0.468750
vt 3.035156 1.390625
vt 3.035156 1.390625
vt 3.035156 1.453125
vt 3.035156 1.453125
vt 3.035156 1.390625
vt 3.234375 1.390625
vt 3.234375 1.453125
vt 3.035156 1.453125
vt 3.035156 1.453125
vt 3.234375 1.453125
vt 3.234375 1.468750
vt 3.035156 1.468750
vt 3.035156 1.390625
vt 3.234375 1.390625
vt 3.234375 1.453125
vt 3.035156 1.453125
vt 5.619141 0.937500
vt 4.619141 0.656250
vt 4.619141 0.937500
vt 0.263672 0.474609
vt 0.291016 0.490234
vt 0.291016 0.474609
vt 4.619141 0.656250
vt 5.619141 0.937500
vt 4.619141 0.937500
vt 0.212891 0.490234
vt 0.240234 0.474609
vt 0.212891 0.474609
vt 0.263672 0.474609
vt 0.291016 0.474609
vt 0.291016 0.490234
vt 0.212891 0.490234
vt 0.212891 0.474609
vt 0.240234 0.474609
vn -0.2109 -0.0000 0.9775
vn 0.0000 1.0000 0.0000
vn -0.9775 0.0000 -0.2109
vn 0.9775 -0.0000 0.2109
vn 0.0000 -1.0000 0.0000
vn 0.2109 0.0000 -0.9775
vn -0.1591 0.6564 0.7374
vn -0.1591 0.6562 0.7376
vn -0.1591 0.6566 0.7373
vn -0.0005 1.0000 0.0001
vn 0.1591 0.6564 -0.7374
vn 0.7338 -0.6606 0.1583
vn -0.7338 -0.6606 -0.1583
vn -0.8819 0.4315 -0.1902
vn 0.8819 0.4315 0.1902
vn -0.5588 -0.0000 0.8293
vn 0.1673 -0.0000 0.9859
vn -0.7311 0.6637 -0.1578
vn 0.7309 0.6640 0.1578
usemtl h_mado_lm1
s 1
f 1/1/1 2/2/1 3/3/1 4/4/1
f 5/5/1 6/6/1 7/7/1 8/8/1
usemtl h_kage_lm5
f 9/9/2 10/10/2 11/11/2
f 10/10/2 12/12/2 11/11/2
f 11/11/2 12/12/2 13/13/2
f 12/12/2 14/14/2 13/13/2
f 15/15/2 16/16/2 17/17/2 18/18/2
f 19/19/2 20/20/2 21/21/2 22/22/2
f 23/23/2 24/24/2 25/25/2
usemtl t2_house01_lm1
f 26/26/1 27/27/1 28/28/1
f 27/27/1 29/29/1 28/28/1
f 28/28/1 29/29/1 30/30/1
f 29/29/1 31/31/1 30/30/1
f 30/30/1 31/31/1 32/32/1
f 31/31/1 33/33/1 32/32/1
f 32/32/1 33/33/1 34/34/1
f 33/33/1 35/35/1 34/34/1
f 36/36/1 37/37/1 38/38/1
f 37/37/1 39/39/1 38/38/1
f 38/38/1 39/39/1 40/40/1
f 39/39/1 41/41/1 40/40/1
f 40/40/1 41/41/1 42/42/1
f 41/41/1 43/43/1 42/42/1
f 42/42/1 43/43/1 44/44/1
f 43/43/1 45/45/1 44/44/1
f 46/46/1 47/47/1 48/48/1
f 47/47/1 49/49/1 48/48/1
f 48/48/1 49/49/1 50/50/1
f 49/49/1 51/51/1 50/50/1
f 50/50/1 51/51/1 52/52/1
f 51/51/1 53/53/1 52/52/1
f 52/52/1 53/53/1 54/54/1
f 53/53/1 55/55/1 54/54/1
f 56/56/1 57/57/1 58/58/1
f 57/57/1 59/59/1 58/58/1
f 58/58/1 59/59/1 60/60/1
f 59/59/1 61/61/1 60/60/1
f 62/62/3 63/63/3 64/64/3 65/65/3
f 66/66/4 67/67/4 68/68/4 69/69/4
f 70/70/5 71/71/5 72/72/5 73/73/5
f 74/74/3 75/75/3 76/76/3 77/77/3
f 78/78/4 79/79/4 80/80/4 81/81/4
f 82/82/6 83/83/6 84/84/6 85/85/6
f 86/86/3 87/87/3 88/88/3 89/89/3
f 90/90/4 91/91/4 92/92/4 93/93/4
f 94/94/3 95/95/3 96/96/3 97/97/3
f 98/98/4 99/99/4 100/100/4 101/101/4
f 102/102/6 103/103/6 104/104/6 105/105/6
f 106/106/2 107/107/2 108/108/2 109/109/2
f 110/110/1 111/111/1 112/112/1 113/113/1
f 114/114/5 115/115/5 116/116/5
usemtl t2_house01_lm2
f 117/117/1 118/118/1 119/119/1
f 118/118/1 120/120/1 119/119/1
f 119/119/1 120/120/1 121/121/1
f 120/120/1 122/122/1 121/121/1
f 121/121/1 122/122/1 123/123/1
f 122/122/1 124/124/1 123/123/1
f 123/123/1 124/124/1 125/125/1
f 124/124/1 126/126/1 125/125/1
f 125/125/1 126/126/1 127/127/1
f 126/126/1 128/128/1 127/127/1
f 129/129/7 130/130/8 131/131/9
f 130/130/8 132/132/8 131/131/9
f 131/131/9 132/132/8 133/133/8
f 132/132/8 134/134/8 133/133/8
f 133/133/8 134/134/8 135/135/8
f 134/134/8 136/136/7 135/135/8
f 137/137/10 138/138/10 139/139/10 140/140/10
f 141/141/11 142/142/11 143/143/11 144/144/11
f 145/145/12 146/146/12 147/147/12 148/148/12
f 149/149/13 150/150/13 151/151/13 152/152/13
f 153/153/14 154/154/14 155/155/14 156/156/14
f 157/157/15 158/158/15 159/159/15 160/160/15
f 161/161/3 162/162/3 163/163/3 164/164/3
f 165/165/4 166/166/4 167/167/4 168/168/4
f 169/169/6 170/170/6 171/171/6 172/172/6
f 173/173/2 174/174/2 175/175/2 176/176/2
f 177/177/3 178/178/3 179/179/3 180/180/3
f 181/181/2 182/182/2 183/183/2 184/184/2
f 185/185/4 186/186/4 187/187/4 188/188/4
f 189/189/5 190/190/5 191/191/5 192/192/5
f 193/193/1 194/194/1 195/195/1 196/196/1
f 197/197/2 198/198/2 199/199/2 200/200/2
f 201/201/16 202/202/16 203/203/16 204/204/16
f 205/205/17 206/206/17 207/207/17 208/208/17
f 209/209/2 210/210/2 211/211/2 212/212/2
f 213/213/1 214/214/1 215/215/1 216/216/1
f 217/217/5 218/218/5 219/219/5 220/220/5
f 221/221/2 222/222/2 223/223/2 224/224/2
f 225/225/17 226/226/17 227/227/17 228/228/17
f 229/229/16 230/230/16 231/231/16 232/232/16
f 233/233/2 234/234/2 235/235/2 236/236/2
f 237/237/1 238/238/1 239/239/1 240/240/1
f 241/241/4 242/242/4 243/243/4 244/244/4
f 245/245/3 246/246/3 247/247/3 248/248/3
f 249/249/4 250/250/4 251/251/4 252/252/4
f 253/253/1 254/254/1 255/255/1 256/256/1
f 257/257/6 258/258/6 259/259/6 260/260/6
f 261/261/3 262/262/3 263/263/3 264/264/3
f 265/265/1 266/266/1 267/267/1 268/268/1
f 269/269/4 270/270/4 271/271/4 272/272/4
f 273/273/3 274/274/3 275/275/3 276/276/3
f 277/277/6 278/278/6 279/279/6 280/280/6
f 281/281/3 282/282/3 283/283/3 284/284/3
f 285/285/4 286/286/4 287/287/4 288/288/4
f 289/289/2 290/290/2 291/291/2 292/292/2
f 293/293/1 294/294/1 295/295/1 296/296/1
f 297/297/18 298/298/18 299/299/18
f 300/300/2 301/301/2 302/302/2
f 303/303/19 304/304/19 305/305/19
f 306/306/2 307/307/2 308/308/2
f 309/309/2 310/310/2 311/311/2
f 312/312/2 313/313/2 314/314/2
