# Blender v2.93.5 OBJ File: ''
# www.blender.org
mtllib Accumula Town House.mtl
o Accumula_Town_House
v 10.670469 2.994983 26.661366
v 30.220791 2.994977 30.878601
v 30.220795 35.994980 30.878613
v 10.670473 35.994980 26.661375
v -14.744945 2.994987 21.178957
v -14.744941 35.994987 21.178968
v -34.295261 35.994987 16.961735
v -34.295265 2.994991 16.961723
v -39.443348 -1.005008 16.874218
v 35.875015 -1.005024 33.121284
v 45.363800 -1.005008 -10.866930
v -39.443348 -1.005008 16.874218
v 35.875015 -1.005024 33.121284
v 45.363800 -1.005008 -10.866930
v -29.954569 -1.004994 -27.113997
v -29.954569 -1.004994 -27.113997
v 5.916958 -0.005019 29.727978
v 9.827022 -0.005019 30.571424
v 5.916962 30.994984 29.727987
v 9.827026 39.994980 30.571442
v -2.880682 30.994984 27.830235
v -2.880681 39.994984 27.830236
v -11.678324 30.994984 25.932478
v -15.588388 39.994987 25.089033
v -11.678328 -0.005016 25.932465
v -15.588392 -0.005014 25.089018
v 10.248745 -0.005019 28.616392
v 13.181295 9.994980 29.248981
v 10.248749 39.994980 28.616409
v 13.181298 33.994980 29.248991
v 29.799070 39.994980 32.833645
v 26.866520 33.994980 32.201057
v 29.799067 -0.005023 32.833626
v 26.866516 9.994978 32.201046
v 10.248745 -0.005019 28.616392
v 13.181295 9.994980 29.248981
v -15.166664 39.994987 23.134003
v -18.099211 33.994987 22.501415
v -15.166670 -0.005014 23.133987
v -18.099215 9.994987 22.501406
v -34.716991 -0.005010 18.916750
v -31.784445 9.994989 19.549341
v -34.716984 39.994987 18.916767
v -31.784441 33.994987 19.549349
v -15.166664 39.994987 23.134003
v -18.099211 33.994987 22.501415
v 9.827026 39.994980 30.571442
v -0.925647 52.494984 28.251965
v -2.880681 39.994984 27.830236
v -2.880679 52.494984 27.830240
v -15.588388 39.994987 25.089033
v -4.835711 52.494984 27.408518
v -15.588392 -0.005014 25.089018
v -15.588388 39.994987 25.089033
v -15.166664 39.994987 23.134003
v -15.166670 -0.005014 23.133987
v 9.827022 -0.005019 30.571424
v 10.248745 -0.005019 28.616392
v 10.248749 39.994980 28.616409
v 9.827026 39.994980 30.571442
v 6.338684 30.994984 27.772959
v 5.916962 30.994984 29.727987
v -2.880682 30.994984 27.830235
v -11.256601 30.994984 23.977448
v 5.916962 30.994984 29.727987
v 6.338684 30.994984 27.772959
v 6.338680 -0.005019 27.772947
v 5.916958 -0.005019 29.727978
v -11.678328 -0.005016 25.932465
v -11.256605 -0.005015 23.977434
v -11.256601 30.994984 23.977448
v -11.678324 30.994984 25.932478
v 39.709564 -0.005007 -13.109620
v -24.806482 -0.004995 -27.026499
v -24.806479 39.995003 -27.026480
v 39.709568 39.994995 -13.109606
v -30.782743 -0.004995 -23.200644
v -38.795490 -0.005008 13.944964
v -38.795486 39.994991 13.944980
v -30.782738 39.995007 -23.200624
v 35.530094 39.994976 29.977890
v 35.530090 -0.005023 29.977875
v 43.542835 -0.005010 -7.167730
v 43.542839 39.994987 -7.167717
v 20.292902 65.994995 1.116021
v 17.762558 65.994995 12.846212
v 17.762560 74.885628 12.846214
v 20.292902 74.885628 1.116025
v 29.492748 65.994987 15.376553
v 32.023090 65.994987 3.646363
v 32.023090 74.885620 3.646367
v 29.492750 74.885620 15.376556
v 20.292902 74.885628 1.116025
v 32.023090 74.885620 3.646367
v 32.023090 65.994987 3.646363
v 20.292902 65.994995 1.116021
v 17.762560 74.885628 12.846214
v 29.492750 74.885620 15.376556
v 32.023090 74.885620 3.646367
v 20.292902 74.885628 1.116025
v 17.762558 65.994995 12.846212
v 29.492748 65.994987 15.376553
v 29.492750 74.885620 15.376556
v 17.762560 74.885628 12.846214
v -11.256601 30.994984 23.977448
v -2.880682 30.994984 27.830235
v -11.678324 30.994984 25.932478
v -43.204071 43.994991 20.155006
v -43.204071 39.994991 20.155006
v -16.776764 43.994987 25.855690
v -15.799250 39.994987 26.066551
v -5.046573 57.494984 28.386034
v -5.046574 52.494984 28.386034
v -1.140326 57.498894 29.228659
v -1.136510 52.494984 29.229481
v 10.593681 43.994980 31.759819
v 9.616165 39.994980 31.548958
v 36.986610 43.994972 37.453087
v 36.986607 39.994972 37.453087
v -43.204071 43.994991 20.155006
v -16.776764 43.994987 25.855690
v -28.234150 66.995003 2.924176
v -2.570594 57.498894 16.907856
v 30.451174 66.994987 15.583298
v 1.343287 57.498894 17.752127
v 36.986610 43.994972 37.453087
v 10.593681 43.994980 31.759819
v 1.343287 57.498894 17.752127
v -2.570594 57.498894 16.907856
v -5.046573 57.494984 28.386034
v -1.140326 57.498894 29.228659
v -32.239254 43.995007 -30.675817
v -25.703808 66.995003 -8.806013
v 32.981514 66.994987 3.853107
v 47.951424 43.994991 -13.377737
v -5.046574 52.494984 28.386034
v -15.799250 39.994987 26.066551
v -15.377525 39.994987 24.111519
v -4.624850 52.494984 26.431004
v 9.616165 39.994980 31.548958
v -1.136510 52.494984 29.229481
v -0.714786 52.494984 27.274448
v 10.037888 39.994980 29.593924
v -43.204071 43.994991 20.155006
v -28.234150 66.995003 2.924176
v -25.703808 66.995003 -8.806013
v -32.239254 43.995007 -30.675817
v 30.451174 66.994987 15.583298
v 36.986610 43.994972 37.453087
v 47.951424 43.994991 -13.377737
v 32.981514 66.994987 3.853107
v -32.239254 39.995007 -30.675817
v -43.204071 39.994991 20.155006
v -43.204071 43.994991 20.155006
v -32.239254 43.995007 -30.675817
v 36.986607 39.994972 37.453087
v 47.951424 39.994991 -13.377741
v 47.951424 43.994991 -13.377737
v 36.986610 43.994972 37.453087
v -32.239254 43.995007 -30.675817
v 47.951424 43.994991 -13.377737
v 47.951424 39.994991 -13.377741
v -32.239254 39.995007 -30.675817
v -25.703808 66.995003 -8.806013
v -28.234150 66.995003 2.924176
v 30.451174 66.994987 15.583298
v 32.981514 66.994987 3.853107
v 10.134193 -0.005013 10.177661
v 6.338680 -0.005019 27.772947
v 6.338684 30.994984 27.772959
v 10.134197 30.994991 10.177671
v -11.256605 -0.005015 23.977434
v 6.338680 -0.005019 27.772947
v 10.134193 -0.005013 10.177661
v -7.461094 -0.005009 6.382147
v -7.461094 -0.005009 6.382147
v -7.461090 30.994991 6.382160
v -11.256601 30.994984 23.977448
v -11.256605 -0.005015 23.977434
v 10.134197 30.994991 10.177671
v 6.338684 30.994984 27.772959
v -11.256601 30.994984 23.977448
v -7.461090 30.994991 6.382160
v 10.134193 -0.005013 10.177661
v 10.134197 30.994991 10.177671
v -7.461090 30.994991 6.382160
v -7.461094 -0.005009 6.382147
v 17.703157 11.631699 31.998676
v 21.613224 11.631699 32.842121
v 21.881742 11.631699 31.597313
v 17.971680 11.631699 30.753868
v 13.181295 9.994980 29.248981
v 17.647150 9.994978 32.258320
v 17.647154 33.994980 32.258331
v 13.181298 33.994980 29.248991
v 21.557213 9.994978 33.101772
v 26.866516 9.994978 32.201046
v 26.866520 33.994980 32.201057
v 21.557215 33.994980 33.101780
v 17.647154 33.994980 32.258331
v 21.557215 33.994980 33.101780
v 26.866520 33.994980 32.201057
v 13.181298 33.994980 29.248991
v 17.647150 9.994978 32.258320
v 21.557213 9.994978 33.101772
v 21.557215 33.994980 33.101780
v 17.647154 33.994980 32.258331
v -0.714786 52.494984 27.274448
v -1.136510 52.494984 29.229481
v -5.046574 52.494984 28.386034
v -4.624850 52.494984 26.431004
v -23.352509 11.631706 23.142481
v -23.083986 11.631706 21.897673
v -26.994055 11.631708 21.054226
v -27.262573 11.631708 22.299034
v -18.099215 9.994987 22.501406
v -18.099211 33.994987 22.501415
v -23.408514 33.994987 23.402136
v -23.408518 9.994987 23.402126
v -27.318584 9.994987 22.558681
v -27.318583 33.994987 22.558689
v -31.784441 33.994987 19.549349
v -31.784445 9.994989 19.549341
v -23.408514 33.994987 23.402136
v -18.099211 33.994987 22.501415
v -31.784441 33.994987 19.549349
v -27.318583 33.994987 22.558689
v -23.408518 9.994987 23.402126
v -23.408514 33.994987 23.402136
v -27.318583 33.994987 22.558689
v -27.318584 9.994987 22.558681
v -34.716991 -0.005010 18.916750
v -34.716984 39.994987 18.916767
v -34.927845 39.994987 19.894283
v -34.927849 -0.005011 19.894266
v 29.799070 39.994980 32.833645
v 29.799067 -0.005023 32.833626
v 29.588205 -0.005024 33.811142
v 29.588209 39.994980 33.811161
v 35.530094 39.994976 29.977890
v 34.475784 39.994976 34.865471
v 34.475780 -0.005024 34.865456
v 35.530090 -0.005023 29.977875
v -39.849796 39.994991 18.832561
v -39.849800 -0.005009 18.832542
v -34.927849 -0.005011 19.894266
v -34.927845 39.994987 19.894283
v 44.597153 39.994991 -12.055297
v 44.597145 -0.005008 -12.055310
v 39.709564 -0.005007 -13.109620
v 39.709568 39.994995 -13.109606
v -29.728430 39.995007 -28.088205
v -29.728434 -0.004994 -28.088221
v -30.782743 -0.004995 -23.200644
v -30.782738 39.995007 -23.200624
v 29.588205 -0.005024 33.811142
v 34.475780 -0.005024 34.865456
v 34.475784 39.994976 34.865471
v 29.588209 39.994980 33.811161
v 43.542835 -0.005010 -7.167730
v 44.597145 -0.005008 -12.055310
v 44.597153 39.994991 -12.055297
v 43.542839 39.994987 -7.167717
v -39.849796 39.994991 18.832561
v -38.795486 39.994991 13.944980
v -38.795490 -0.005008 13.944964
v -39.849800 -0.005009 18.832542
v -24.806482 -0.004995 -27.026499
v -29.728434 -0.004994 -28.088221
v -29.728430 39.995007 -28.088205
v -24.806479 39.995003 -27.026480
v -11.393333 30.994984 24.611307
v -12.385042 30.994984 29.208683
v -12.385041 33.994984 29.208683
v -11.393332 33.994984 24.611307
v 5.210245 30.994984 33.004192
v 6.201953 30.994984 28.406818
v 6.201953 33.994984 28.406820
v 5.210245 33.994984 33.004196
v -12.385041 33.994984 29.208683
v 5.210245 33.994984 33.004196
v 6.201953 33.994984 28.406820
v -11.393332 33.994984 24.611307
v -12.385042 30.994984 29.208683
v 5.210245 30.994984 33.004192
v 5.210245 33.994984 33.004196
v -12.385041 33.994984 29.208683
v -2.570594 57.498894 16.907856
v -16.776764 43.994987 25.855690
v -5.046573 57.494984 28.386034
v 21.881742 11.631699 31.597313
v 21.613224 11.631699 32.842121
v 26.922527 11.631699 31.941399
v 10.593681 43.994980 31.759819
v 1.343287 57.498894 17.752127
v -1.140326 57.498894 29.228659
v 17.703157 11.631699 31.998676
v 17.971680 11.631699 30.753868
v 13.237302 11.631701 28.989336
v -26.994055 11.631708 21.054226
v -31.728434 11.631710 19.289694
v -27.262573 11.631708 22.299034
v -23.352509 11.631706 23.142481
v -18.043203 11.631706 22.241758
v -23.083986 11.631706 21.897673
vt 0.000000 -1.000000
vt 1.000000 -1.000000
vt 1.000000 0.000000
vt 0.000000 0.000000
vt 0.000000 -1.000000
vt 0.000000 0.000000
vt 1.000000 0.000000
vt 1.000000 -1.000000
vt 0.343750 -0.937500
vt 0.937500 -0.937500
vt 0.937500 -0.343750
vt 0.343750 -0.343750
vt 0.089844 -0.703125
vt 0.031250 -0.703125
vt 0.089844 -0.301758
vt 0.031250 -0.187500
vt 0.204102 -0.301758
vt 0.203125 -0.187500
vt 0.089844 -0.301758
vt 0.031250 -0.187500
vt 0.089844 -0.703125
vt 0.031250 -0.703125
vt 1.578125 -0.625000
vt 1.629883 -0.472656
vt 1.578125 -0.015625
vt 1.626953 -0.107422
vt 1.984375 -0.015625
vt 1.921875 -0.107422
vt 1.984375 -0.625000
vt 1.921875 -0.472656
vt 1.578125 -0.625000
vt 1.629883 -0.472656
vt 1.578125 -0.015625
vt 1.626953 -0.107422
vt 1.578125 -0.625000
vt 1.629883 -0.472656
vt 1.984375 -0.625000
vt 1.921875 -0.472656
vt 1.984375 -0.015625
vt 1.921875 -0.107422
vt 1.578125 -0.015625
vt 1.626953 -0.107422
vt 0.031250 -0.187500
vt 0.174805 -0.031250
vt 0.203125 -0.187500
vt 0.203125 -0.031250
vt 0.031250 -0.187500
vt 0.174805 -0.031250
vt 0.109375 -0.703125
vt 0.109375 -0.312500
vt 0.140625 -0.312500
vt 0.140625 -0.703125
vt 0.109375 -0.703125
vt 0.140625 -0.703125
vt 0.140625 -0.312500
vt 0.109375 -0.312500
vt 0.140625 -0.312500
vt 0.109375 -0.312500
vt 0.109375 -0.312500
vt 0.140625 -0.312500
vt 0.109375 -0.312500
vt 0.140625 -0.312500
vt 0.140625 -0.703125
vt 0.109375 -0.703125
vt 0.109375 -0.703125
vt 0.140625 -0.703125
vt 0.140625 -0.312500
vt 0.109375 -0.312500
vt 0.250000 -0.625000
vt 0.984375 -0.625000
vt 0.984375 -0.015625
vt 0.250000 -0.015625
vt 0.984375 -0.625000
vt 0.250000 -0.625000
vt 0.250000 -0.015625
vt 0.984375 -0.015625
vt 0.250000 -0.015625
vt 0.250000 -0.625000
vt 0.984375 -0.625000
vt 0.984375 -0.015625
vt 1.343750 1.046875
vt 1.203125 1.046875
vt 1.203125 1.250000
vt 1.343750 1.250000
vt 1.203125 1.046875
vt 1.343750 1.046875
vt 1.343750 1.250000
vt 1.203125 1.250000
vt 1.359375 1.250000
vt 1.406250 1.250000
vt 1.406250 1.046875
vt 1.359375 1.046875
vt 1.015625 1.015625
vt 1.171875 1.015625
vt 1.171875 1.171875
vt 1.015625 1.171875
vt 1.203125 1.046875
vt 1.343750 1.046875
vt 1.343750 1.250000
vt 1.203125 1.250000
vt 0.140625 -0.312500
vt 0.109375 -0.312500
vt 0.109375 -0.312500
vt 2.015625 -1.531250
vt 2.015625 -1.609375
vt 2.046875 -1.531250
vt 2.046875 -1.609375
vt 2.078125 -1.531250
vt 2.078125 -1.609375
vt 2.093750 -1.531250
vt 2.093750 -1.609375
vt 2.125000 -1.531250
vt 2.125000 -1.609375
vt 2.234375 -1.531250
vt 2.234375 -1.609375
vt 2.482422 0.562500
vt 2.650391 0.562500
vt 2.679688 0.937500
vt 2.820313 0.783203
vt 3.287109 0.937500
vt 2.904297 0.783203
vt 3.482422 0.562500
vt 3.074219 0.562500
vt 5.619141 0.937500
vt 5.619141 0.984375
vt 4.619141 0.984375
vt 4.619141 0.937500
vt 2.482422 0.562500
vt 2.679688 0.937500
vt 3.287109 0.937500
vt 3.482422 0.562500
vt 1.203125 2.265625
vt 1.203125 2.334961
vt 1.236328 2.334961
vt 1.236328 2.265625
vt 1.203125 2.109375
vt 1.203125 2.171875
vt 1.236328 2.171875
vt 1.236328 2.109375
vt 3.560547 0.562500
vt 3.875000 0.937500
vt 4.062500 0.937500
vt 4.388672 0.562500
vt 3.875000 0.937500
vt 3.560547 0.562500
vt 4.388672 0.562500
vt 4.062500 0.937500
vt 1.234375 -1.609375
vt 1.015625 -1.609375
vt 1.015625 -1.531250
vt 1.234375 -1.531250
vt 1.015625 -1.609375
vt 1.234375 -1.609375
vt 1.234375 -1.531250
vt 1.015625 -1.531250
vt 1.015625 -1.531250
vt 1.234375 -1.531250
vt 1.234375 -1.609375
vt 1.015625 -1.609375
vt 2.679688 0.984375
vt 2.679688 0.937500
vt 3.287109 0.937500
vt 3.287109 0.984375
vt 3.031250 2.079102
vt 3.050781 2.079102
vt 3.050781 2.313477
vt 3.031250 2.313477
vt 2.484375 2.015625
vt 2.484375 2.359375
vt 2.015625 2.359375
vt 2.015625 2.015625
vt 3.031250 2.079102
vt 3.031250 2.313477
vt 3.050781 2.313477
vt 3.050781 2.079102
vt 3.031250 2.313477
vt 3.050781 2.313477
vt 3.050781 2.079102
vt 3.031250 2.079102
vt 3.050781 2.313477
vt 3.031250 2.313477
vt 3.031250 2.079102
vt 3.050781 2.079102
vt 0.212891 0.490234
vt 0.291016 0.490234
vt 0.263672 0.474609
vt 0.240234 0.474609
vt 0.984375 1.015625
vt 0.687500 1.015625
vt 0.687500 1.500000
vt 0.984375 1.500000
vt 0.687500 1.015625
vt 0.984375 1.015625
vt 0.984375 1.500000
vt 0.687500 1.500000
vt 0.470703 1.489258
vt 0.375000 1.489258
vt 0.375000 1.469727
vt 0.470703 1.469727
vt 1.703125 1.015625
vt 1.953125 1.015625
vt 1.953125 1.500000
vt 1.703125 1.500000
vt 1.236328 2.171875
vt 1.203125 2.171875
vt 1.203125 2.265625
vt 1.236328 2.265625
vt 0.212891 0.490234
vt 0.240234 0.474609
vt 0.263672 0.474609
vt 0.291016 0.490234
vt 0.984375 1.015625
vt 0.984375 1.500000
vt 0.687500 1.500000
vt 0.687500 1.015625
vt 0.687500 1.015625
vt 0.687500 1.500000
vt 0.984375 1.500000
vt 0.984375 1.015625
vt 0.470703 1.489258
vt 0.470703 1.469727
vt 0.375000 1.469727
vt 0.375000 1.489258
vt 1.703125 1.015625
vt 1.703125 1.500000
vt 1.953125 1.500000
vt 1.953125 1.015625
vt 4.640625 0.015625
vt 4.640625 0.468750
vt 4.609375 0.468750
vt 4.609375 0.015625
vt 4.640625 0.468750
vt 4.640625 0.015625
vt 4.609375 0.015625
vt 4.609375 0.468750
vt 4.640625 0.468750
vt 4.531250 0.468750
vt 4.531250 0.015625
vt 4.640625 0.015625
vt 4.531250 0.468750
vt 4.531250 0.015625
vt 4.640625 0.015625
vt 4.640625 0.468750
vt 4.640625 0.468750
vt 4.640625 0.015625
vt 4.531250 0.015625
vt 4.531250 0.468750
vt 4.640625 0.468750
vt 4.640625 0.015625
vt 4.531250 0.015625
vt 4.531250 0.468750
vt 4.531250 0.015625
vt 4.640625 0.015625
vt 4.640625 0.468750
vt 4.531250 0.468750
vt 4.531250 0.015625
vt 4.640625 0.015625
vt 4.640625 0.468750
vt 4.531250 0.468750
vt 4.531250 0.468750
vt 4.640625 0.468750
vt 4.640625 0.015625
vt 4.531250 0.015625
vt 4.640625 0.015625
vt 4.531250 0.015625
vt 4.531250 0.468750
vt 4.640625 0.468750
vt 3.035156 1.390625
vt 3.035156 1.390625
vt 3.035156 1.453125
vt 3.035156 1.453125
vt 3.035156 1.390625
vt 3.234375 1.390625
vt 3.234375 1.453125
vt 3.035156 1.453125
vt 3.035156 1.453125
vt 3.234375 1.453125
vt 3.234375 1.468750
vt 3.035156 1.468750
vt 3.035156 1.390625
vt 3.234375 1.390625
vt 3.234375 1.453125
vt 3.035156 1.453125
vt 5.619141 0.937500
vt 4.619141 0.656250
vt 4.619141 0.937500
vt 0.263672 0.474609
vt 0.291016 0.490234
vt 0.291016 0.474609
vt 4.619141 0.656250
vt 5.619141 0.937500
vt 4.619141 0.937500
vt 0.212891 0.490234
vt 0.240234 0.474609
vt 0.212891 0.474609
vt 0.263672 0.474609
vt 0.291016 0.474609
vt 0.291016 0.490234
vt 0.212891 0.490234
vt 0.212891 0.474609
vt 0.240234 0.474609
vn -0.2109 -0.0000 0.9775
vn 0.0000 1.0000 0.0000
vn -0.9775 0.0000 -0.2109
vn 0.9775 -0.0000 0.2109
vn 0.0000 -1.0000 0.0000
vn 0.2109 0.0000 -0.9775
vn -0.1591 0.6562 0.7376
vn -0.1591 0.6569 0.7370
vn -0.0005 1.0000 0.0001
vn 0.1591 0.6565 -0.7373
vn 0.1591 0.6564 -0.7374
vn 0.7338 -0.6606 0.1583
vn -0.7338 -0.6606 -0.1583
vn -0.8819 0.4315 -0.1902
vn 0.8819 0.4315 0.1902
vn -0.5588 -0.0000 0.8293
vn 0.1673 -0.0000 0.9859
vn -0.7311 0.6638 -0.1577
vn -0.7309 0.6640 -0.1576
vn 0.7305 0.6644 0.1581
vn 0.7309 0.6640 0.1578
usemtl h_mado_lm1
s 1
f 1/1/1 2/2/1 3/3/1 4/4/1
f 5/5/1 6/6/1 7/7/1 8/8/1
usemtl h_kage_lm5
f 12/9/2 13/10/2 14/11/2 15/12/2
usemtl t2_house01_lm1
f 17/13/1 18/14/1 19/15/1
f 18/14/1 20/16/1 19/15/1
f 19/15/1 20/16/1 21/17/1
f 20/16/1 22/18/1 21/17/1
f 21/17/1 22/18/1 23/19/1
f 22/18/1 24/20/1 23/19/1
f 23/19/1 24/20/1 25/21/1
f 24/20/1 26/22/1 25/21/1
f 27/23/1 28/24/1 29/25/1
f 28/24/1 30/26/1 29/25/1
f 29/25/1 30/26/1 31/27/1
f 30/26/1 32/28/1 31/27/1
f 31/27/1 32/28/1 33/29/1
f 32/28/1 34/30/1 33/29/1
f 33/29/1 34/30/1 35/31/1
f 34/30/1 36/32/1 35/31/1
f 37/33/1 38/34/1 39/35/1
f 38/34/1 40/36/1 39/35/1
f 39/35/1 40/36/1 41/37/1
f 40/36/1 42/38/1 41/37/1
f 41/37/1 42/38/1 43/39/1
f 42/38/1 44/40/1 43/39/1
f 43/39/1 44/40/1 45/41/1
f 44/40/1 46/42/1 45/41/1
f 47/43/1 48/44/1 49/45/1
f 48/44/1 50/46/1 49/45/1
f 49/45/1 50/46/1 51/47/1
f 50/46/1 52/48/1 51/47/1
f 53/49/3 54/50/3 55/51/3 56/52/3
f 57/53/4 58/54/4 59/55/4 60/56/4
f 61/57/5 62/58/5 63/59/5 64/60/5
f 65/61/3 66/62/3 67/63/3 68/64/3
f 69/65/4 70/66/4 71/67/4 72/68/4
f 73/69/6 74/70/6 75/71/6 76/72/6
f 77/73/3 78/74/3 79/75/3 80/76/3
f 81/77/4 82/78/4 83/79/4 84/80/4
f 85/81/3 86/82/3 87/83/3 88/84/3
f 89/85/4 90/86/4 91/87/4 92/88/4
f 93/89/6 94/90/6 95/91/6 96/92/6
f 97/93/2 98/94/2 99/95/2 100/96/2
f 101/97/1 102/98/1 103/99/1 104/100/1
f 105/101/5 106/102/5 107/103/5
usemtl t2_house01_lm2
f 108/104/1 109/105/1 110/106/1
f 109/105/1 111/107/1 110/106/1
f 110/106/1 111/107/1 112/108/1
f 111/107/1 113/109/1 112/108/1
f 112/108/1 113/109/1 114/110/1
f 113/109/1 115/111/1 114/110/1
f 114/110/1 115/111/1 116/112/1
f 115/111/1 117/113/1 116/112/1
f 116/112/1 117/113/1 118/114/1
f 117/113/1 119/115/1 118/114/1
f 120/116/7 121/117/7 122/118/8
f 121/117/7 123/119/7 122/118/8
f 122/118/8 123/119/7 124/120/7
f 123/119/7 125/121/7 124/120/7
f 124/120/7 125/121/7 126/122/7
f 125/121/7 127/123/7 126/122/7
f 128/124/9 129/125/9 130/126/9 131/127/9
f 132/128/10 133/129/10 134/130/11 135/131/10
f 136/132/12 137/133/12 138/134/12 139/135/12
f 140/136/13 141/137/13 142/138/13 143/139/13
f 144/140/14 145/141/14 146/142/14 147/143/14
f 148/144/15 149/145/15 150/146/15 151/147/15
f 152/148/3 153/149/3 154/150/3 155/151/3
f 156/152/4 157/153/4 158/154/4 159/155/4
f 160/156/6 161/157/6 162/158/6 163/159/6
f 164/160/2 165/161/2 166/162/2 167/163/2
f 168/164/3 169/165/3 170/166/3 171/167/3
f 172/168/2 173/169/2 174/170/2 175/171/2
f 176/172/4 177/173/4 178/174/4 179/175/4
f 180/176/5 181/177/5 182/178/5 183/179/5
f 184/180/1 185/181/1 186/182/1 187/183/1
f 188/184/2 189/185/2 190/186/2 191/187/2
f 192/188/16 193/189/16 194/190/16 195/191/16
f 196/192/17 197/193/17 198/194/17 199/195/17
f 200/196/2 201/197/2 202/198/2 203/199/2
f 204/200/1 205/201/1 206/202/1 207/203/1
f 208/204/5 209/205/5 210/206/5 211/207/5
f 212/208/2 213/209/2 214/210/2 215/211/2
f 216/212/17 217/213/17 218/214/17 219/215/17
f 220/216/16 221/217/16 222/218/16 223/219/16
f 224/220/2 225/221/2 226/222/2 227/223/2
f 228/224/1 229/225/1 230/226/1 231/227/1
f 232/228/4 233/229/4 234/230/4 235/231/4
f 236/232/3 237/233/3 238/234/3 239/235/3
f 240/236/4 241/237/4 242/238/4 243/239/4
f 244/240/1 245/241/1 246/242/1 247/243/1
f 248/244/6 249/245/6 250/246/6 251/247/6
f 252/248/3 253/249/3 254/250/3 255/251/3
f 256/252/1 257/253/1 258/254/1 259/255/1
f 260/256/4 261/257/4 262/258/4 263/259/4
f 264/260/3 265/261/3 266/262/3 267/263/3
f 268/264/6 269/265/6 270/266/6 271/267/6
f 272/268/3 273/269/3 274/270/3 275/271/3
f 276/272/4 277/273/4 278/274/4 279/275/4
f 280/276/2 281/277/2 282/278/2 283/279/2
f 284/280/1 285/281/1 286/282/1 287/283/1
f 288/284/18 289/285/18 290/286/19
f 291/287/2 292/288/2 293/289/2
f 294/290/20 295/291/21 296/292/21
f 297/293/2 298/294/2 299/295/2
f 300/296/2 301/297/2 302/298/2
f 303/299/2 304/300/2 305/301/2
l 9 10
l 10 11
