# Blender v2.93.5 OBJ File: ''
# www.blender.org
mtllib PastoriaCityHouse.mtl
o Cube
v -1.430570 1.000000 -3.233353
v -1.430570 -1.000000 -3.233353
v -1.426583 1.000000 -5.233349
v -1.426583 -1.000000 -5.233349
v 0.569426 1.000000 -3.229365
v 0.569426 -1.000000 -3.229365
v 0.573413 1.000000 -5.229362
v 0.573413 -1.000000 -5.229362
vt 0.625000 0.500000
vt 0.875000 0.500000
vt 0.875000 0.750000
vt 0.625000 0.750000
vt 0.375000 0.750000
vt 0.625000 1.000000
vt 0.375000 1.000000
vt 0.375000 0.000000
vt 0.625000 0.000000
vt 0.625000 0.250000
vt 0.375000 0.250000
vt 0.125000 0.500000
vt 0.375000 0.500000
vt 0.125000 0.750000
vn 0.0000 1.0000 0.0000
vn 0.0020 0.0000 -1.0000
vn 1.0000 0.0000 0.0020
vn 0.0000 -1.0000 0.0000
vn -1.0000 0.0000 -0.0020
vn -0.0020 0.0000 1.0000
usemtl Material
s off
f 1/1/1 5/2/1 7/3/1 3/4/1
f 4/5/2 3/4/2 7/6/2 8/7/2
f 8/8/3 7/9/3 5/10/3 6/11/3
f 6/12/4 2/13/4 4/5/4 8/14/4
f 2/13/5 1/1/5 3/4/5 4/5/5
f 6/11/6 5/10/6 1/1/6 2/13/6
o PastoriaCityHouse
v -6.399621 8.999998 -18.762821
v -27.399580 8.999998 -18.804688
v -27.399580 28.999998 -18.804689
v -6.399621 28.999998 -18.762825
v -18.481474 77.042969 4.646722
v -18.461538 77.042969 -5.353260
v -28.461519 77.042969 -5.373196
v -28.481455 77.042969 4.626787
v -18.481474 67.042969 4.646724
v -18.461538 67.042969 -5.353258
v -18.461538 77.042969 -5.353260
v -18.481474 77.042969 4.646722
v -28.461519 60.542969 -5.373193
v -28.481455 60.542969 4.626790
v -28.481455 77.042969 4.626787
v -28.461519 77.042969 -5.373196
v -18.461538 67.042969 -5.353258
v -28.461519 60.542969 -5.373193
v -28.461519 77.042969 -5.373196
v -18.461538 77.042969 -5.353260
v -33.396614 0.999997 -20.297113
v -33.476357 1.000004 19.702806
v 33.603252 0.999997 -20.163544
v 33.523510 1.000004 19.836376
v -33.396614 0.999997 -20.297113
v -3.396676 7.999998 -20.237309
v -3.396676 1.999997 -20.237307
v -8.396666 7.999998 -20.247276
v -8.396666 1.999997 -20.247274
v -23.396637 7.999998 -20.277180
v -23.396637 1.999997 -20.277178
v -28.396627 7.999998 -20.287148
v -28.396627 1.999997 -20.287146
v -32.396618 7.999998 -20.295122
v -32.396618 1.999997 -20.295120
v -3.396676 7.999998 -20.237309
v -8.396666 14.999997 -20.247276
v -3.396676 32.999996 -20.237312
v -8.396666 29.999998 -20.247280
v -28.396627 32.999996 -20.287151
v -23.396637 29.999998 -20.277184
v -28.396627 7.999998 -20.287148
v -23.396637 14.999997 -20.277180
v -32.476360 33.000004 19.704796
v -32.476360 37.000004 19.704794
v -32.464397 33.000004 13.704807
v -32.464397 37.000004 13.704805
v -32.408581 33.000000 -14.295137
v -32.408581 37.000000 -14.295137
v -32.396618 32.999996 -20.295126
v -32.396618 36.999996 -20.295126
v -32.476360 2.000004 19.704800
v -32.476360 8.000004 19.704800
v -32.464397 2.000003 13.704811
v -32.464397 8.000003 13.704811
v -32.408581 1.999998 -14.295132
v -32.408581 7.999999 -14.295132
v -32.396618 1.999997 -20.295120
v -32.396618 7.999998 -20.295122
v 31.603254 1.999997 -20.167532
v 31.603254 7.999998 -20.167532
v 31.591295 1.999998 -14.167543
v 31.591295 7.999999 -14.167543
v 31.535473 2.000003 13.832399
v 31.535473 8.000003 13.832399
v 31.523512 2.000004 19.832388
v 31.523512 8.000004 19.832388
v 31.603254 32.999996 -20.167538
v 31.603254 36.999996 -20.167538
v 31.591295 33.000000 -14.167549
v 31.591295 37.000000 -14.167549
v 31.535473 33.000004 13.832396
v 31.535473 37.000004 13.832394
v 31.523512 33.000004 19.832384
v 31.523512 37.000004 19.832382
v 18.603279 1.999997 -20.193449
v 18.603279 7.999998 -20.193449
v 27.603262 1.999997 -20.175507
v 27.603262 7.999998 -20.175507
v 31.603254 1.999997 -20.167532
v 31.603254 7.999998 -20.167532
v 18.603279 32.999996 -20.193453
v 18.603279 36.999996 -20.193455
v 27.603262 32.999996 -20.175510
v 27.603262 36.999996 -20.175512
v 31.603254 32.999996 -20.167538
v 31.603254 36.999996 -20.167538
v -32.396618 32.999996 -20.295126
v -32.396618 36.999996 -20.295126
v -28.396627 32.999996 -20.287151
v -28.396627 36.999996 -20.287151
v -3.396676 32.999996 -20.237312
v -3.396676 36.999996 -20.237312
v 27.603262 7.999998 -20.175507
v 18.603279 7.999998 -20.193449
v 18.603279 32.999996 -20.193453
v 27.603262 32.999996 -20.175510
v 31.523512 8.000004 19.832388
v 31.535473 8.000003 13.832399
v 31.535473 33.000004 13.832396
v 31.523512 33.000004 19.832384
v -32.396618 7.999998 -20.295122
v -32.408581 7.999999 -14.295132
v -32.408581 33.000000 -14.295137
v -32.396618 32.999996 -20.295126
v 31.603254 7.999998 -20.167532
v 27.603262 7.999998 -20.175507
v 27.603262 32.999996 -20.175510
v 31.603254 32.999996 -20.167538
v -3.396676 36.999996 -20.237312
v -3.396676 49.999996 -20.237314
v 18.603279 49.999996 -20.193457
v 18.603279 36.999996 -20.193455
v 18.603279 36.999996 -20.193455
v 18.603279 49.999996 -20.193457
v 27.603262 49.999996 -20.175514
v 27.603262 36.999996 -20.175512
v 18.595304 1.999998 -16.193457
v -3.404650 1.999998 -16.237314
v -3.426579 2.000000 -5.237336
v 18.573376 2.000000 -5.193478
v 18.573376 33.000000 -5.193483
v 18.595304 32.999996 -16.193460
v 18.595304 1.999998 -16.193457
v 18.573376 2.000000 -5.193478
v -3.426579 33.000000 -5.237341
v -3.426579 2.000000 -5.237336
v -3.404650 1.999998 -16.237314
v -3.404650 32.999996 -16.237320
v 18.595304 32.999996 -16.193460
v 18.603279 32.999996 -20.193453
v 18.603279 7.999998 -20.193449
v 18.595304 1.999998 -16.193457
v -3.396676 32.999996 -20.237312
v -3.396676 36.999996 -20.237312
v 18.603279 36.999996 -20.193455
v 18.603279 32.999996 -20.193453
v 18.573376 33.000000 -5.193483
v 18.573376 2.000000 -5.193478
v -3.426579 2.000000 -5.237336
v -3.426579 33.000000 -5.237341
v -32.464397 50.000004 13.704803
v -32.464397 37.000004 13.704805
v -32.476360 37.000004 19.704794
v -32.476360 50.000004 19.704792
v -32.464397 33.000004 13.704807
v -32.464397 8.000003 13.704811
v -32.476360 8.000004 19.704800
v -32.476360 33.000004 19.704796
v 31.535473 50.000004 13.832392
v 31.535473 37.000004 13.832394
v 31.591295 37.000000 -14.167549
v 31.591295 50.000000 -14.167551
v 31.535473 33.000004 13.832396
v 31.535473 8.000003 13.832399
v 31.591295 7.999999 -14.167543
v 31.591295 33.000000 -14.167549
v -8.396666 7.999998 -20.247276
v -23.396637 7.999998 -20.277180
v -23.396637 14.999997 -20.277180
v -8.396666 14.999997 -20.247276
v 31.591295 50.000000 -14.167551
v 31.591295 37.000000 -14.167549
v 31.603254 36.999996 -20.167538
v 31.603254 49.999996 -20.167540
v -32.408581 50.000000 -14.295139
v -32.408581 37.000000 -14.295137
v -32.464397 37.000004 13.704805
v -32.464397 50.000004 13.704803
v 31.591295 33.000000 -14.167549
v 31.591295 7.999999 -14.167543
v 31.603254 7.999998 -20.167532
v 31.603254 32.999996 -20.167538
v -32.408581 33.000000 -14.295137
v -32.408581 7.999999 -14.295132
v -32.464397 8.000003 13.704811
v -32.464397 33.000004 13.704807
v -32.396618 32.999996 -20.295126
v -28.396627 32.999996 -20.287151
v -28.396627 7.999998 -20.287148
v -32.396618 7.999998 -20.295122
v -23.396637 29.999998 -20.277184
v -8.396666 29.999998 -20.247280
v -8.396666 14.999997 -20.247276
v -23.396637 14.999997 -20.277180
v -3.404650 32.999996 -16.237320
v -3.404650 1.999998 -16.237314
v -3.396676 7.999998 -20.237309
v -3.396676 32.999996 -20.237312
v 31.523512 37.000004 19.832382
v 31.535473 37.000004 13.832394
v 31.535473 50.000004 13.832392
v 31.523512 50.000004 19.832380
v -32.396618 36.999996 -20.295126
v -32.408581 37.000000 -14.295137
v -32.408581 50.000000 -14.295139
v -32.396618 49.999996 -20.295128
v 31.603254 36.999996 -20.167538
v 27.603262 36.999996 -20.175512
v 27.603262 49.999996 -20.175514
v 31.603254 49.999996 -20.167540
v -32.396618 49.999996 -20.295128
v -28.396627 49.999996 -20.287153
v -28.396627 36.999996 -20.287151
v -32.396618 36.999996 -20.295126
v -28.396627 49.999996 -20.287153
v -3.396676 49.999996 -20.237314
v -3.396676 36.999996 -20.237312
v -28.396627 36.999996 -20.287151
v 33.607239 54.957027 -22.163549
v 33.519520 54.957035 21.836363
v 33.519520 50.000004 21.836365
v 33.607239 49.999996 -22.163548
v -34.392624 54.957027 -22.299112
v -34.392624 49.999996 -22.299110
v -34.480343 50.000004 21.700802
v -34.480343 54.957035 21.700800
v 33.607239 54.957027 -22.163549
v 33.607239 49.999996 -22.163548
v -34.392624 49.999996 -22.299110
v -34.392624 54.957027 -22.299112
v -28.396627 7.999998 -20.287148
v -23.396637 14.999997 -20.277180
v -23.396637 7.999998 -20.277180
v -34.480343 54.957035 21.700800
v 33.519520 54.957035 21.836363
v -0.436553 78.000000 -0.231378
v -34.392624 54.957027 -22.299112
v -34.480343 54.957035 21.700800
v -0.436553 78.000000 -0.231378
v 33.607239 54.957027 -22.163549
v -34.392624 54.957027 -22.299112
v -0.436553 78.000000 -0.231378
v 18.595304 1.999998 -16.193457
v 18.603279 7.999998 -20.193449
v 18.603279 1.999997 -20.193449
v -3.396676 7.999998 -20.237309
v -3.404650 1.999998 -16.237314
v -3.396676 1.999997 -20.237307
v -8.396666 14.999997 -20.247276
v -3.396676 7.999998 -20.237309
v -8.396666 7.999998 -20.247276
v 33.519520 54.957035 21.836363
v 33.607239 54.957027 -22.163549
v -0.436553 78.000000 -0.231378
vt 0.000000 -1.000000
vt 1.000000 -1.000000
vt 1.000000 0.000000
vt 0.000000 0.000000
vt -0.968750 -0.062500
vt -0.968750 -0.937500
vt -0.531250 -0.937500
vt -0.531250 -0.062500
vt -0.468750 -0.937500
vt -0.031250 -0.937500
vt -0.031250 -0.062500
vt -0.468750 -0.062500
vt -0.468750 -0.937500
vt -0.031250 -0.937500
vt -0.031250 -0.062500
vt -0.468750 -0.062500
vt -0.468750 -0.625000
vt -0.031250 -0.937500
vt -0.031250 -0.062500
vt -0.468750 -0.062500
vt 0.500000 0.500000
vt 0.500000 1.000000
vt 0.000000 0.500000
vt 0.000000 1.000000
vt 0.437500 -0.921875
vt 0.437500 -0.984375
vt 0.468750 -0.921875
vt 0.468750 -0.984375
vt 0.550781 -0.921875
vt 0.550781 -0.984375
vt 0.578125 -0.921875
vt 0.578125 -0.984375
vt 0.609375 -0.921875
vt 0.609375 -0.984375
vt 0.015625 -0.359375
vt 0.093750 -0.265625
vt 0.015625 -0.015625
vt 0.093750 -0.062500
vt 0.359375 -0.015625
vt 0.312500 -0.062500
vt 0.359375 -0.359375
vt 0.312500 -0.265625
vt 0.217773 -0.872070
vt 0.217773 -0.845703
vt 0.208008 -0.872070
vt 0.208008 -0.845703
vt 0.161133 -0.872070
vt 0.161133 -0.845703
vt 0.151367 -0.872070
vt 0.151367 -0.845703
vt 0.296875 -0.984375
vt 0.296875 -0.921875
vt 0.234375 -0.984375
vt 0.234375 -0.921875
vt 0.078125 -0.984375
vt 0.078125 -0.921875
vt 0.015625 -0.984375
vt 0.015625 -0.921875
vt 0.015625 -0.984375
vt 0.015625 -0.921875
vt 0.078125 -0.984375
vt 0.078125 -0.921875
vt 0.234375 -0.984375
vt 0.234375 -0.921875
vt 0.296875 -0.984375
vt 0.296875 -0.921875
vt 0.217773 -0.869141
vt 0.217773 -0.842773
vt 0.208008 -0.869141
vt 0.208008 -0.842773
vt 0.161133 -0.869141
vt 0.161133 -0.842773
vt 0.150391 -0.869141
vt 0.150391 -0.842773
vt 0.437500 -0.984375
vt 0.437500 -0.921875
vt 0.359375 -0.984375
vt 0.359375 -0.921875
vt 0.328125 -0.984375
vt 0.328125 -0.921875
vt 0.058594 -0.869141
vt 0.058594 -0.842773
vt 0.048828 -0.869141
vt 0.048828 -0.842773
vt 0.044922 -0.869141
vt 0.044922 -0.842773
vt 0.087891 -0.869141
vt 0.087891 -0.842773
vt 0.083984 -0.869141
vt 0.083984 -0.842773
vt 0.074219 -0.869141
vt 0.074219 -0.842773
vt 0.125977 -0.359375
vt 0.235352 -0.359375
vt 0.235352 -0.015625
vt 0.125977 -0.015625
vt 0.859375 -0.718750
vt 0.765625 -0.718750
vt 0.765625 -0.406250
vt 0.859375 -0.406250
vt 0.859375 -0.718750
vt 0.765625 -0.718750
vt 0.765625 -0.406250
vt 0.859375 -0.406250
vt 0.734375 -0.718750
vt 0.640625 -0.718750
vt 0.640625 -0.406250
vt 0.734375 -0.406250
vt 0.718750 -0.187500
vt 0.718750 -0.015625
vt 0.421875 -0.015625
vt 0.421875 -0.187500
vt 0.593750 -0.187500
vt 0.593750 -0.015625
vt 0.500000 -0.015625
vt 0.500000 -0.187500
vt 0.984375 -0.359375
vt 0.984375 -0.015625
vt 0.765625 -0.015625
vt 0.765625 -0.359375
vt 0.815430 -0.175781
vt 0.803711 -0.175781
vt 0.803711 -0.227539
vt 0.815430 -0.227539
vt 0.787109 -0.175781
vt 0.787109 -0.227539
vt 0.798828 -0.227539
vt 0.798828 -0.175781
vt 0.323242 -0.829102
vt 0.309570 -0.829102
vt 0.309570 -0.870117
vt 0.323242 -0.882812
vt 0.072266 -0.869141
vt 0.072266 -0.842773
vt 0.061523 -0.842773
vt 0.061523 -0.869141
vt 0.786133 -0.176758
vt 0.786133 -0.228516
vt 0.807617 -0.228516
vt 0.807617 -0.176758
vt 0.765625 -0.406250
vt 0.765625 -0.718750
vt 0.859375 -0.718750
vt 0.859375 -0.406250
vt 0.765625 -0.406250
vt 0.765625 -0.718750
vt 0.859375 -0.718750
vt 0.859375 -0.406250
vt 0.890625 -0.390625
vt 0.890625 -0.718750
vt 0.984375 -0.718750
vt 0.984375 -0.390625
vt 0.890625 -0.390625
vt 0.890625 -0.718750
vt 0.984375 -0.718750
vt 0.984375 -0.390625
vt 0.093750 -0.359375
vt 0.312500 -0.359375
vt 0.312500 -0.265625
vt 0.093750 -0.265625
vt 0.765625 -0.406250
vt 0.765625 -0.718750
vt 0.859375 -0.718750
vt 0.859375 -0.406250
vt 0.890625 -0.390625
vt 0.890625 -0.718750
vt 0.984375 -0.718750
vt 0.984375 -0.390625
vt 0.765625 -0.406250
vt 0.765625 -0.718750
vt 0.859375 -0.718750
vt 0.859375 -0.406250
vt 0.890625 -0.390625
vt 0.890625 -0.718750
vt 0.984375 -0.718750
vt 0.984375 -0.390625
vt 0.734375 -0.406250
vt 0.640625 -0.406250
vt 0.640625 -0.718750
vt 0.734375 -0.718750
vt 0.859375 -0.984375
vt 0.859375 -0.765625
vt 0.640625 -0.765625
vt 0.640625 -0.984375
vt 0.291016 -0.829102
vt 0.291016 -0.882812
vt 0.303711 -0.870117
vt 0.303711 -0.829102
vt 0.859375 -0.718750
vt 0.765625 -0.718750
vt 0.765625 -0.406250
vt 0.859375 -0.406250
vt 0.859375 -0.718750
vt 0.765625 -0.718750
vt 0.765625 -0.406250
vt 0.859375 -0.406250
vt 0.734375 -0.718750
vt 0.640625 -0.718750
vt 0.640625 -0.406250
vt 0.734375 -0.406250
vt 0.734375 -0.406250
vt 0.640625 -0.406250
vt 0.640625 -0.718750
vt 0.734375 -0.718750
vt 0.734375 -0.015625
vt 0.390625 -0.015625
vt 0.390625 -0.187500
vt 0.734375 -0.187500
vt 0.958008 -0.231445
vt 0.958008 -0.173828
vt 0.913086 -0.173828
vt 0.913086 -0.231445
vt 0.952148 -0.177734
vt 0.907227 -0.177734
vt 0.907227 -0.235352
vt 0.952148 -0.235352
vt 0.583984 -0.838867
vt 0.538086 -0.838867
vt 0.538086 -0.888672
vt 0.583984 -0.888672
vt 0.359375 -0.359375
vt 0.312500 -0.265625
vt 0.312500 -0.359375
vt 0.609375 -0.796875
vt 0.328125 -0.796875
vt 0.468750 -0.390625
vt 0.328125 -0.796875
vt 0.609375 -0.796875
vt 0.468750 -0.390625
vt 0.015625 -0.796875
vt 0.296875 -0.796875
vt 0.156250 -0.390625
vt 0.323242 -0.882812
vt 0.309570 -0.870117
vt 0.309570 -0.882812
vt 0.303711 -0.870117
vt 0.291016 -0.882812
vt 0.303711 -0.882812
vt 0.093750 -0.265625
vt 0.015625 -0.359375
vt 0.093750 -0.359375
vt 0.328125 -0.796875
vt 0.609375 -0.796875
vt 0.468750 -0.390625
vn 0.0020 -0.0000 -1.0000
vn 0.0000 1.0000 0.0000
vn 1.0000 0.0000 0.0020
vn -1.0000 0.0000 -0.0020
vn -0.0014 0.6909 0.7230
vn -0.0014 0.6912 0.7227
vn -0.0014 0.6905 0.7233
vn -0.5610 0.8278 -0.0011
vn 0.0014 0.6909 -0.7230
vn 0.0014 0.6912 -0.7227
vn 0.0014 0.6905 -0.7233
vn 0.5610 0.8278 0.0011
usemtl h_mado
s 1
f 9/15/7 10/16/7 11/17/7 12/18/7
usemtl c6_h01_b
f 13/19/8 14/20/8 15/21/8 16/22/8
f 17/23/9 18/24/9 19/25/9 20/26/9
f 21/27/10 22/28/10 23/29/10 24/30/10
f 25/31/7 26/32/7 27/33/7 28/34/7
usemtl h_kage
f 29/35/8 30/36/8 31/37/8
f 30/36/8 32/38/8 31/37/8
usemtl c6_h01_a
f 34/39/7 35/40/7 36/41/7
f 35/40/7 37/42/7 36/41/7
f 36/41/7 37/42/7 38/43/7
f 37/42/7 39/44/7 38/43/7
f 38/43/7 39/44/7 40/45/7
f 39/44/7 41/46/7 40/45/7
f 40/45/7 41/46/7 42/47/7
f 41/46/7 43/48/7 42/47/7
f 44/49/7 45/50/7 46/51/7
f 45/50/7 47/52/7 46/51/7
f 46/51/7 47/52/7 48/53/7
f 47/52/7 49/54/7 48/53/7
f 48/53/7 49/54/7 50/55/7
f 49/54/7 51/56/7 50/55/7
f 52/57/10 53/58/10 54/59/10
f 53/58/10 55/60/10 54/59/10
f 54/59/10 55/60/10 56/61/10
f 55/60/10 57/62/10 56/61/10
f 56/61/10 57/62/10 58/63/10
f 57/62/10 59/64/10 58/63/10
f 60/65/10 61/66/10 62/67/10
f 61/66/10 63/68/10 62/67/10
f 62/67/10 63/68/10 64/69/10
f 63/68/10 65/70/10 64/69/10
f 64/69/10 65/70/10 66/71/10
f 65/70/10 67/72/10 66/71/10
f 68/73/9 69/74/9 70/75/9
f 69/74/9 71/76/9 70/75/9
f 70/75/9 71/76/9 72/77/9
f 71/76/9 73/78/9 72/77/9
f 72/77/9 73/78/9 74/79/9
f 73/78/9 75/80/9 74/79/9
f 76/81/9 77/82/9 78/83/9
f 77/82/9 79/84/9 78/83/9
f 78/83/9 79/84/9 80/85/9
f 79/84/9 81/86/9 80/85/9
f 80/85/9 81/86/9 82/87/9
f 81/86/9 83/88/9 82/87/9
f 84/89/7 85/90/7 86/91/7
f 85/90/7 87/92/7 86/91/7
f 86/91/7 87/92/7 88/93/7
f 87/92/7 89/94/7 88/93/7
f 90/95/7 91/96/7 92/97/7
f 91/96/7 93/98/7 92/97/7
f 92/97/7 93/98/7 94/99/7
f 93/98/7 95/100/7 94/99/7
f 96/101/7 97/102/7 98/103/7
f 97/102/7 99/104/7 98/103/7
f 98/103/7 99/104/7 100/105/7
f 99/104/7 101/106/7 100/105/7
f 102/107/7 103/108/7 104/109/7 105/110/7
f 106/111/9 107/112/9 108/113/9 109/114/9
f 110/115/10 111/116/10 112/117/10 113/118/10
f 114/119/7 115/120/7 116/121/7 117/122/7
f 118/123/7 119/124/7 120/125/7 121/126/7
f 122/127/7 123/128/7 124/129/7 125/130/7
f 126/131/8 127/132/8 128/133/8 129/134/8
f 130/135/10 131/136/10 132/137/10 133/138/10
f 134/139/9 135/140/9 136/141/9 137/142/9
f 138/143/10 139/144/10 140/145/10 141/146/10
f 142/147/7 143/148/7 144/149/7 145/150/7
f 146/151/7 147/152/7 148/153/7 149/154/7
f 150/155/10 151/156/10 152/157/10 153/158/10
f 154/159/10 155/160/10 156/161/10 157/162/10
f 158/163/9 159/164/9 160/165/9 161/166/9
f 162/167/9 163/168/9 164/169/9 165/170/9
f 166/171/7 167/172/7 168/173/7 169/174/7
f 170/175/9 171/176/9 172/177/9 173/178/9
f 174/179/10 175/180/10 176/181/10 177/182/10
f 178/183/9 179/184/9 180/185/9 181/186/9
f 182/187/10 183/188/10 184/189/10 185/190/10
f 186/191/7 187/192/7 188/193/7 189/194/7
f 190/195/7 191/196/7 192/197/7 193/198/7
f 194/199/9 195/200/9 196/201/9 197/202/9
f 198/203/9 199/204/9 200/205/9 201/206/9
f 202/207/10 203/208/10 204/209/10 205/210/10
f 206/211/7 207/212/7 208/213/7 209/214/7
f 210/215/7 211/216/7 212/217/7 213/218/7
f 214/219/7 215/220/7 216/221/7 217/222/7
f 218/223/9 219/224/9 220/225/9 221/226/9
f 222/227/10 223/228/10 224/229/10 225/230/10
f 226/231/7 227/232/7 228/233/7 229/234/7
f 230/235/7 231/236/7 232/237/7
f 233/238/11 234/239/12 235/240/13
f 236/241/14 237/242/14 238/243/14
f 239/244/15 240/245/16 241/246/17
f 242/247/10 243/248/10 244/249/10
f 245/250/9 246/251/9 247/252/9
f 248/253/7 249/254/7 250/255/7
f 251/256/18 252/257/18 253/258/18
o Cube.001
v 31.963369 2.468626 19.699474
v 31.963369 54.018257 19.699474
v 31.963209 2.468626 19.780308
v 31.963209 54.018257 19.780308
v -33.014542 2.468626 19.569935
v -33.014542 54.018257 19.569935
v -33.014702 2.468626 19.650768
v -33.014702 54.018257 19.650768
vt 0.370942 0.625326
vt 0.368989 0.958628
vt 0.370221 0.958628
vt 0.372174 0.625326
vt 0.000000 0.622684
vt 0.003100 0.958628
vt 0.370066 0.956167
vt 0.374480 0.625326
vt 0.372174 0.625326
vt 0.370221 0.958628
vt 0.368989 0.958628
vt 0.370942 0.625326
vt 0.374480 0.625326
vt 0.370066 0.956167
vt 0.003100 0.958628
vt 0.000000 0.622684
vt 0.000000 0.624222
vt 0.372019 0.626864
vt 0.372019 0.625632
vt 0.000000 0.622990
vt 0.372019 0.626864
vt 0.000000 0.624222
vt 0.000000 0.622990
vt 0.372019 0.625632
vn 1.0000 0.0000 0.0020
vn -0.0020 0.0000 1.0000
vn -1.0000 0.0000 -0.0020
vn 0.0020 0.0000 -1.0000
vn 0.0000 -1.0000 0.0000
vn 0.0000 1.0000 0.0000
usemtl Material.001
s off
f 254/259/19 255/260/19 257/261/19 256/262/19
f 256/263/20 257/264/20 261/265/20 260/266/20
f 260/267/21 261/268/21 259/269/21 258/270/21
f 258/271/22 259/272/22 255/273/22 254/274/22
f 256/275/23 260/276/23 258/277/23 254/278/23
f 261/279/24 257/280/24 255/281/24 259/282/24
