# Blender v2.93.5 OBJ File: ''
# www.blender.org
mtllib PastoriaCityHouse.mtl
o PastoriaCityHouse
v -6.399621 6.639165 -18.762819
v -27.399580 6.639165 -18.804686
v -27.399580 26.639166 -18.804686
v -6.399621 26.639166 -18.762821
v -18.481474 74.682129 4.646734
v -18.461538 74.682129 -5.353248
v -28.461519 74.682129 -5.373184
v -28.481455 74.682129 4.626800
v -18.481474 64.682129 4.646735
v -18.461538 64.682129 -5.353247
v -18.461538 74.682129 -5.353248
v -18.481474 74.682129 4.646734
v -28.461519 58.182133 -5.373183
v -28.481455 58.182133 4.626800
v -28.481455 74.682129 4.626800
v -28.461519 74.682129 -5.373184
v -18.461538 64.682129 -5.353247
v -28.461519 58.182133 -5.373183
v -28.461519 74.682129 -5.373184
v -18.461538 74.682129 -5.353248
v -33.396614 -1.360836 -20.297113
v -33.476357 -1.360835 19.702806
v 33.603252 -1.360836 -20.163544
v 33.523510 -1.360835 19.836376
v -3.396676 5.639165 -20.237307
v -3.396676 -0.360836 -20.237307
v -8.396666 5.639165 -20.247274
v -8.396666 -0.360836 -20.247274
v -23.396637 5.639165 -20.277178
v -23.396637 -0.360836 -20.277178
v -28.396627 5.639165 -20.287146
v -28.396627 -0.360836 -20.287146
v -32.396618 5.639165 -20.295120
v -32.396618 -0.360836 -20.295120
v -3.396676 5.639165 -20.237307
v -8.396666 12.639164 -20.247274
v -3.396676 30.639164 -20.237307
v -8.396666 27.639166 -20.247274
v -28.396627 30.639164 -20.287146
v -23.396637 27.639166 -20.277178
v -28.396627 5.639165 -20.287146
v -23.396637 12.639164 -20.277178
v -32.476360 30.639164 19.704802
v -32.476360 34.639164 19.704800
v -32.464397 30.639164 13.704813
v -32.464397 34.639164 13.704811
v -32.408581 30.639168 -14.295132
v -32.408581 34.639168 -14.295132
v -32.396618 30.639164 -20.295120
v -32.396618 34.639164 -20.295120
v -32.476360 -0.360835 19.704800
v -32.476360 5.639165 19.704802
v -32.464397 -0.360835 13.704811
v -32.464397 5.639165 13.704812
v -32.408581 -0.360836 -14.295132
v -32.408581 5.639165 -14.295131
v -32.396618 -0.360836 -20.295120
v -32.396618 5.639165 -20.295120
v 31.603254 -0.360836 -20.167532
v 31.603254 5.639165 -20.167530
v 31.591295 -0.360836 -14.167543
v 31.591295 5.639165 -14.167542
v 31.535473 -0.360835 13.832399
v 31.535473 5.639165 13.832400
v 31.523512 -0.360836 19.832388
v 31.523512 5.639165 19.832390
v 31.603254 30.639164 -20.167532
v 31.603254 34.639164 -20.167532
v 31.591295 30.639168 -14.167543
v 31.591295 34.639168 -14.167543
v 31.535473 30.639164 13.832401
v 31.535473 34.639164 13.832399
v 31.523512 30.639164 19.832390
v 31.523512 34.639164 19.832388
v 18.603279 -0.360836 -20.193449
v 18.603279 5.639165 -20.193447
v 27.603262 -0.360836 -20.175507
v 27.603262 5.639165 -20.175505
v 31.603254 -0.360836 -20.167532
v 31.603254 5.639165 -20.167530
v 18.603279 30.639164 -20.193447
v 18.603279 34.639164 -20.193449
v 27.603262 30.639164 -20.175505
v 27.603262 34.639164 -20.175507
v 31.603254 30.639164 -20.167532
v 31.603254 34.639164 -20.167532
v -32.396618 30.639164 -20.295120
v -32.396618 34.639164 -20.295120
v -28.396627 30.639164 -20.287146
v -28.396627 34.639164 -20.287146
v -3.396676 30.639164 -20.237307
v -3.396676 34.639164 -20.237307
v 27.603262 5.639165 -20.175505
v 18.603279 5.639165 -20.193447
v 18.603279 30.639164 -20.193447
v 27.603262 30.639164 -20.175505
v 31.523512 5.639165 19.832390
v 31.535473 5.639165 13.832400
v 31.535473 30.639164 13.832401
v 31.523512 30.639164 19.832390
v -32.396618 5.639165 -20.295120
v -32.408581 5.639165 -14.295131
v -32.408581 30.639168 -14.295132
v -32.396618 30.639164 -20.295120
v 31.603254 5.639165 -20.167530
v 27.603262 5.639165 -20.175505
v 27.603262 30.639164 -20.175505
v 31.603254 30.639164 -20.167532
v -3.396676 34.639164 -20.237307
v -3.396676 47.639164 -20.237307
v 18.603279 47.639164 -20.193449
v 18.603279 34.639164 -20.193449
v 18.603279 34.639164 -20.193449
v 18.603279 47.639164 -20.193449
v 27.603262 47.639164 -20.175507
v 27.603262 34.639164 -20.175507
v 18.595304 -0.360836 -16.193457
v -3.404650 -0.360836 -16.237314
v -3.426579 -0.360835 -5.237336
v 18.573376 -0.360835 -5.193478
v 18.573376 30.639164 -5.193478
v 18.595304 30.639164 -16.193455
v 18.595304 -0.360836 -16.193457
v 18.573376 -0.360835 -5.193478
v -3.426579 30.639164 -5.237336
v -3.426579 -0.360835 -5.237336
v -3.404650 -0.360836 -16.237314
v -3.404650 30.639164 -16.237314
v 18.595304 30.639164 -16.193455
v 18.603279 30.639164 -20.193447
v 18.603279 5.639165 -20.193447
v 18.595304 -0.360836 -16.193457
v -3.396676 30.639164 -20.237307
v -3.396676 34.639164 -20.237307
v 18.603279 34.639164 -20.193449
v 18.603279 30.639164 -20.193447
v 18.573376 30.639164 -5.193478
v 18.573376 -0.360835 -5.193478
v -3.426579 -0.360835 -5.237336
v -3.426579 30.639164 -5.237336
v -32.464397 47.639164 13.704812
v -32.464397 34.639164 13.704811
v -32.476360 34.639164 19.704800
v -32.476360 47.639164 19.704800
v -32.464397 30.639164 13.704813
v -32.464397 5.639165 13.704812
v -32.476360 5.639165 19.704802
v -32.476360 30.639164 19.704802
v 31.535473 47.639164 13.832400
v 31.535473 34.639164 13.832399
v 31.591295 34.639168 -14.167543
v 31.591295 47.639168 -14.167542
v 31.535473 30.639164 13.832401
v 31.535473 5.639165 13.832400
v 31.591295 5.639165 -14.167542
v 31.591295 30.639168 -14.167543
v -8.396666 5.639165 -20.247274
v -23.396637 5.639165 -20.277178
v -23.396637 12.639164 -20.277178
v -8.396666 12.639164 -20.247274
v 31.591295 47.639168 -14.167542
v 31.591295 34.639168 -14.167543
v 31.603254 34.639164 -20.167532
v 31.603254 47.639164 -20.167532
v -32.408581 47.639168 -14.295131
v -32.408581 34.639168 -14.295132
v -32.464397 34.639164 13.704811
v -32.464397 47.639164 13.704812
v 31.591295 30.639168 -14.167543
v 31.591295 5.639165 -14.167542
v 31.603254 5.639165 -20.167530
v 31.603254 30.639164 -20.167532
v -32.408581 30.639168 -14.295132
v -32.408581 5.639165 -14.295131
v -32.464397 5.639165 13.704812
v -32.464397 30.639164 13.704813
v -32.396618 30.639164 -20.295120
v -28.396627 30.639164 -20.287146
v -28.396627 5.639165 -20.287146
v -32.396618 5.639165 -20.295120
v -23.396637 27.639166 -20.277178
v -8.396666 27.639166 -20.247274
v -8.396666 12.639164 -20.247274
v -23.396637 12.639164 -20.277178
v -3.404650 30.639164 -16.237314
v -3.404650 -0.360836 -16.237314
v -3.396676 5.639165 -20.237307
v -3.396676 30.639164 -20.237307
v 31.523512 34.639164 19.832388
v 31.535473 34.639164 13.832399
v 31.535473 47.639164 13.832400
v 31.523512 47.639164 19.832388
v -32.396618 34.639164 -20.295120
v -32.408581 34.639168 -14.295132
v -32.408581 47.639168 -14.295131
v -32.396618 47.639164 -20.295120
v 31.603254 34.639164 -20.167532
v 27.603262 34.639164 -20.175507
v 27.603262 47.639164 -20.175507
v 31.603254 47.639164 -20.167532
v -32.396618 47.639164 -20.295120
v -28.396627 47.639164 -20.287146
v -28.396627 34.639164 -20.287146
v -32.396618 34.639164 -20.295120
v -28.396627 47.639164 -20.287146
v -3.396676 47.639164 -20.237307
v -3.396676 34.639164 -20.237307
v -28.396627 34.639164 -20.287146
v 33.607239 52.596195 -22.163540
v 33.519520 52.596195 21.836372
v 33.519520 47.639164 21.836372
v 33.607239 47.639164 -22.163540
v -34.392624 52.596195 -22.299103
v -34.392624 47.639164 -22.299103
v -34.480343 47.639164 21.700809
v -34.480343 52.596195 21.700809
v 33.607239 52.596195 -22.163540
v 33.607239 47.639164 -22.163540
v -34.392624 47.639164 -22.299103
v -34.392624 52.596195 -22.299103
v -28.396627 5.639165 -20.287146
v -23.396637 12.639164 -20.277178
v -23.396637 5.639165 -20.277178
v -34.480343 52.596195 21.700809
v 33.519520 52.596195 21.836372
v -0.436553 75.639160 -0.231365
v -34.392624 52.596195 -22.299103
v -34.480343 52.596195 21.700809
v -0.436553 75.639160 -0.231365
v 33.607239 52.596195 -22.163540
v -34.392624 52.596195 -22.299103
v -0.436553 75.639160 -0.231365
v 18.595304 -0.360836 -16.193457
v 18.603279 5.639165 -20.193447
v 18.603279 -0.360836 -20.193449
v -3.396676 5.639165 -20.237307
v -3.404650 -0.360836 -16.237314
v -3.396676 -0.360836 -20.237307
v -8.396666 12.639164 -20.247274
v -3.396676 5.639165 -20.237307
v -8.396666 5.639165 -20.247274
v 33.519520 52.596195 21.836372
v 33.607239 52.596195 -22.163540
v -0.436553 75.639160 -0.231365
vt 0.000000 -1.000000
vt 1.000000 -1.000000
vt 1.000000 0.000000
vt 0.000000 0.000000
vt -0.968750 -0.062500
vt -0.968750 -0.937500
vt -0.531250 -0.937500
vt -0.531250 -0.062500
vt -0.468750 -0.937500
vt -0.031250 -0.937500
vt -0.031250 -0.062500
vt -0.468750 -0.062500
vt -0.468750 -0.937500
vt -0.031250 -0.937500
vt -0.031250 -0.062500
vt -0.468750 -0.062500
vt -0.468750 -0.625000
vt -0.031250 -0.937500
vt -0.031250 -0.062500
vt -0.468750 -0.062500
vt 0.500000 0.500000
vt 0.500000 1.000000
vt 0.000000 0.500000
vt 0.000000 1.000000
vt 0.437500 -0.921875
vt 0.437500 -0.984375
vt 0.468750 -0.921875
vt 0.468750 -0.984375
vt 0.550781 -0.921875
vt 0.550781 -0.984375
vt 0.578125 -0.921875
vt 0.578125 -0.984375
vt 0.609375 -0.921875
vt 0.609375 -0.984375
vt 0.015625 -0.359375
vt 0.093750 -0.265625
vt 0.015625 -0.015625
vt 0.093750 -0.062500
vt 0.359375 -0.015625
vt 0.312500 -0.062500
vt 0.359375 -0.359375
vt 0.312500 -0.265625
vt 0.217773 -0.872070
vt 0.217773 -0.845703
vt 0.208008 -0.872070
vt 0.208008 -0.845703
vt 0.161133 -0.872070
vt 0.161133 -0.845703
vt 0.151367 -0.872070
vt 0.151367 -0.845703
vt 0.296875 -0.984375
vt 0.296875 -0.921875
vt 0.234375 -0.984375
vt 0.234375 -0.921875
vt 0.078125 -0.984375
vt 0.078125 -0.921875
vt 0.015625 -0.984375
vt 0.015625 -0.921875
vt 0.015625 -0.984375
vt 0.015625 -0.921875
vt 0.078125 -0.984375
vt 0.078125 -0.921875
vt 0.234375 -0.984375
vt 0.234375 -0.921875
vt 0.296875 -0.984375
vt 0.296875 -0.921875
vt 0.217773 -0.869141
vt 0.217773 -0.842773
vt 0.208008 -0.869141
vt 0.208008 -0.842773
vt 0.161133 -0.869141
vt 0.161133 -0.842773
vt 0.150391 -0.869141
vt 0.150391 -0.842773
vt 0.437500 -0.984375
vt 0.437500 -0.921875
vt 0.359375 -0.984375
vt 0.359375 -0.921875
vt 0.328125 -0.984375
vt 0.328125 -0.921875
vt 0.058594 -0.869141
vt 0.058594 -0.842773
vt 0.048828 -0.869141
vt 0.048828 -0.842773
vt 0.044922 -0.869141
vt 0.044922 -0.842773
vt 0.087891 -0.869141
vt 0.087891 -0.842773
vt 0.083984 -0.869141
vt 0.083984 -0.842773
vt 0.074219 -0.869141
vt 0.074219 -0.842773
vt 0.125977 -0.359375
vt 0.235352 -0.359375
vt 0.235352 -0.015625
vt 0.125977 -0.015625
vt 0.859375 -0.718750
vt 0.765625 -0.718750
vt 0.765625 -0.406250
vt 0.859375 -0.406250
vt 0.859375 -0.718750
vt 0.765625 -0.718750
vt 0.765625 -0.406250
vt 0.859375 -0.406250
vt 0.734375 -0.718750
vt 0.640625 -0.718750
vt 0.640625 -0.406250
vt 0.734375 -0.406250
vt 0.718750 -0.187500
vt 0.718750 -0.015625
vt 0.421875 -0.015625
vt 0.421875 -0.187500
vt 0.593750 -0.187500
vt 0.593750 -0.015625
vt 0.500000 -0.015625
vt 0.500000 -0.187500
vt 0.984375 -0.359375
vt 0.984375 -0.015625
vt 0.765625 -0.015625
vt 0.765625 -0.359375
vt 0.815430 -0.175781
vt 0.803711 -0.175781
vt 0.803711 -0.227539
vt 0.815430 -0.227539
vt 0.787109 -0.175781
vt 0.787109 -0.227539
vt 0.798828 -0.227539
vt 0.798828 -0.175781
vt 0.323242 -0.829102
vt 0.309570 -0.829102
vt 0.309570 -0.870117
vt 0.323242 -0.882812
vt 0.072266 -0.869141
vt 0.072266 -0.842773
vt 0.061523 -0.842773
vt 0.061523 -0.869141
vt 0.786133 -0.176758
vt 0.786133 -0.228516
vt 0.807617 -0.228516
vt 0.807617 -0.176758
vt 0.765625 -0.406250
vt 0.765625 -0.718750
vt 0.859375 -0.718750
vt 0.859375 -0.406250
vt 0.765625 -0.406250
vt 0.765625 -0.718750
vt 0.859375 -0.718750
vt 0.859375 -0.406250
vt 0.890625 -0.390625
vt 0.890625 -0.718750
vt 0.984375 -0.718750
vt 0.984375 -0.390625
vt 0.890625 -0.390625
vt 0.890625 -0.718750
vt 0.984375 -0.718750
vt 0.984375 -0.390625
vt 0.093750 -0.359375
vt 0.312500 -0.359375
vt 0.312500 -0.265625
vt 0.093750 -0.265625
vt 0.765625 -0.406250
vt 0.765625 -0.718750
vt 0.859375 -0.718750
vt 0.859375 -0.406250
vt 0.890625 -0.390625
vt 0.890625 -0.718750
vt 0.984375 -0.718750
vt 0.984375 -0.390625
vt 0.765625 -0.406250
vt 0.765625 -0.718750
vt 0.859375 -0.718750
vt 0.859375 -0.406250
vt 0.890625 -0.390625
vt 0.890625 -0.718750
vt 0.984375 -0.718750
vt 0.984375 -0.390625
vt 0.734375 -0.406250
vt 0.640625 -0.406250
vt 0.640625 -0.718750
vt 0.734375 -0.718750
vt 0.859375 -0.984375
vt 0.859375 -0.765625
vt 0.640625 -0.765625
vt 0.640625 -0.984375
vt 0.291016 -0.829102
vt 0.291016 -0.882812
vt 0.303711 -0.870117
vt 0.303711 -0.829102
vt 0.859375 -0.718750
vt 0.765625 -0.718750
vt 0.765625 -0.406250
vt 0.859375 -0.406250
vt 0.859375 -0.718750
vt 0.765625 -0.718750
vt 0.765625 -0.406250
vt 0.859375 -0.406250
vt 0.734375 -0.718750
vt 0.640625 -0.718750
vt 0.640625 -0.406250
vt 0.734375 -0.406250
vt 0.734375 -0.406250
vt 0.640625 -0.406250
vt 0.640625 -0.718750
vt 0.734375 -0.718750
vt 0.734375 -0.015625
vt 0.390625 -0.015625
vt 0.390625 -0.187500
vt 0.734375 -0.187500
vt 0.958008 -0.231445
vt 0.958008 -0.173828
vt 0.913086 -0.173828
vt 0.913086 -0.231445
vt 0.952148 -0.177734
vt 0.907227 -0.177734
vt 0.907227 -0.235352
vt 0.952148 -0.235352
vt 0.583984 -0.838867
vt 0.538086 -0.838867
vt 0.538086 -0.888672
vt 0.583984 -0.888672
vt 0.359375 -0.359375
vt 0.312500 -0.265625
vt 0.312500 -0.359375
vt 0.609375 -0.796875
vt 0.328125 -0.796875
vt 0.468750 -0.390625
vt 0.328125 -0.796875
vt 0.609375 -0.796875
vt 0.468750 -0.390625
vt 0.015625 -0.796875
vt 0.296875 -0.796875
vt 0.156250 -0.390625
vt 0.323242 -0.882812
vt 0.309570 -0.870117
vt 0.309570 -0.882812
vt 0.303711 -0.870117
vt 0.291016 -0.882812
vt 0.303711 -0.882812
vt 0.093750 -0.265625
vt 0.015625 -0.359375
vt 0.093750 -0.359375
vt 0.328125 -0.796875
vt 0.609375 -0.796875
vt 0.468750 -0.390625
vn 0.0020 -0.0000 -1.0000
vn 0.0000 1.0000 0.0000
vn 1.0000 -0.0000 0.0020
vn -1.0000 0.0000 -0.0020
vn -0.0014 0.6905 0.7233
vn -0.0014 0.6911 0.7228
vn -0.5610 0.8278 -0.0011
vn 0.0014 0.6905 -0.7233
vn 0.0014 0.6910 -0.7228
vn 0.5610 0.8278 0.0011
usemtl h_mado
s 1
f 1/1/1 2/2/1 3/3/1 4/4/1
usemtl c6_h01_b
f 5/5/2 6/6/2 7/7/2 8/8/2
f 9/9/3 10/10/3 11/11/3 12/12/3
f 13/13/4 14/14/4 15/15/4 16/16/4
f 17/17/1 18/18/1 19/19/1 20/20/1
usemtl h_kage
f 21/21/2 22/22/2 23/23/2
f 22/22/2 24/24/2 23/23/2
usemtl c6_h01_a
f 25/25/1 26/26/1 27/27/1
f 26/26/1 28/28/1 27/27/1
f 27/27/1 28/28/1 29/29/1
f 28/28/1 30/30/1 29/29/1
f 29/29/1 30/30/1 31/31/1
f 30/30/1 32/32/1 31/31/1
f 31/31/1 32/32/1 33/33/1
f 32/32/1 34/34/1 33/33/1
f 35/35/1 36/36/1 37/37/1
f 36/36/1 38/38/1 37/37/1
f 37/37/1 38/38/1 39/39/1
f 38/38/1 40/40/1 39/39/1
f 39/39/1 40/40/1 41/41/1
f 40/40/1 42/42/1 41/41/1
f 43/43/4 44/44/4 45/45/4
f 44/44/4 46/46/4 45/45/4
f 45/45/4 46/46/4 47/47/4
f 46/46/4 48/48/4 47/47/4
f 47/47/4 48/48/4 49/49/4
f 48/48/4 50/50/4 49/49/4
f 51/51/4 52/52/4 53/53/4
f 52/52/4 54/54/4 53/53/4
f 53/53/4 54/54/4 55/55/4
f 54/54/4 56/56/4 55/55/4
f 55/55/4 56/56/4 57/57/4
f 56/56/4 58/58/4 57/57/4
f 59/59/3 60/60/3 61/61/3
f 60/60/3 62/62/3 61/61/3
f 61/61/3 62/62/3 63/63/3
f 62/62/3 64/64/3 63/63/3
f 63/63/3 64/64/3 65/65/3
f 64/64/3 66/66/3 65/65/3
f 67/67/3 68/68/3 69/69/3
f 68/68/3 70/70/3 69/69/3
f 69/69/3 70/70/3 71/71/3
f 70/70/3 72/72/3 71/71/3
f 71/71/3 72/72/3 73/73/3
f 72/72/3 74/74/3 73/73/3
f 75/75/1 76/76/1 77/77/1
f 76/76/1 78/78/1 77/77/1
f 77/77/1 78/78/1 79/79/1
f 78/78/1 80/80/1 79/79/1
f 81/81/1 82/82/1 83/83/1
f 82/82/1 84/84/1 83/83/1
f 83/83/1 84/84/1 85/85/1
f 84/84/1 86/86/1 85/85/1
f 87/87/1 88/88/1 89/89/1
f 88/88/1 90/90/1 89/89/1
f 89/89/1 90/90/1 91/91/1
f 90/90/1 92/92/1 91/91/1
f 93/93/1 94/94/1 95/95/1 96/96/1
f 97/97/3 98/98/3 99/99/3 100/100/3
f 101/101/4 102/102/4 103/103/4 104/104/4
f 105/105/1 106/106/1 107/107/1 108/108/1
f 109/109/1 110/110/1 111/111/1 112/112/1
f 113/113/1 114/114/1 115/115/1 116/116/1
f 117/117/2 118/118/2 119/119/2 120/120/2
f 121/121/4 122/122/4 123/123/4 124/124/4
f 125/125/3 126/126/3 127/127/3 128/128/3
f 129/129/4 130/130/4 131/131/4 132/132/4
f 133/133/1 134/134/1 135/135/1 136/136/1
f 137/137/1 138/138/1 139/139/1 140/140/1
f 141/141/4 142/142/4 143/143/4 144/144/4
f 145/145/4 146/146/4 147/147/4 148/148/4
f 149/149/3 150/150/3 151/151/3 152/152/3
f 153/153/3 154/154/3 155/155/3 156/156/3
f 157/157/1 158/158/1 159/159/1 160/160/1
f 161/161/3 162/162/3 163/163/3 164/164/3
f 165/165/4 166/166/4 167/167/4 168/168/4
f 169/169/3 170/170/3 171/171/3 172/172/3
f 173/173/4 174/174/4 175/175/4 176/176/4
f 177/177/1 178/178/1 179/179/1 180/180/1
f 181/181/1 182/182/1 183/183/1 184/184/1
f 185/185/3 186/186/3 187/187/3 188/188/3
f 189/189/3 190/190/3 191/191/3 192/192/3
f 193/193/4 194/194/4 195/195/4 196/196/4
f 197/197/1 198/198/1 199/199/1 200/200/1
f 201/201/1 202/202/1 203/203/1 204/204/1
f 205/205/1 206/206/1 207/207/1 208/208/1
f 209/209/3 210/210/3 211/211/3 212/212/3
f 213/213/4 214/214/4 215/215/4 216/216/4
f 217/217/1 218/218/1 219/219/1 220/220/1
f 221/221/1 222/222/1 223/223/1
f 224/224/5 225/225/6 226/226/5
f 227/227/7 228/228/7 229/229/7
f 230/230/8 231/231/9 232/232/8
f 233/233/4 234/234/4 235/235/4
f 236/236/3 237/237/3 238/238/3
f 239/239/1 240/240/1 241/241/1
f 242/242/10 243/243/10 244/244/10
o Cube.002
v 31.963369 0.107787 19.699474
v 31.963369 51.657417 19.699484
v 31.963209 51.657417 19.780317
v 31.963209 0.107786 19.780308
v -33.014702 51.657417 19.650778
v -33.014702 0.107787 19.650768
v -33.014542 51.657417 19.569944
v -33.014542 0.107787 19.569935
vt 0.370942 0.625326
vt 0.368989 0.958628
vt 0.370221 0.958628
vt 0.372174 0.625326
vt 0.000000 0.622684
vt 0.003100 0.958628
vt 0.370066 0.956167
vt 0.374480 0.625326
vt 0.372174 0.625326
vt 0.370221 0.958628
vt 0.368989 0.958628
vt 0.370942 0.625326
vt 0.374480 0.625326
vt 0.370066 0.956167
vt 0.003100 0.958628
vt 0.000000 0.622684
vt 0.000000 0.624222
vt 0.372019 0.626864
vt 0.372019 0.625632
vt 0.000000 0.622990
vt 0.372019 0.626864
vt 0.000000 0.624222
vt 0.000000 0.622990
vt 0.372019 0.625632
vn 1.0000 -0.0000 0.0020
vn -0.0020 -0.0000 1.0000
vn -1.0000 0.0000 -0.0020
vn 0.0020 0.0000 -1.0000
vn 0.0000 -1.0000 -0.0000
vn 0.0000 1.0000 0.0000
usemtl Material.004
s off
f 245/245/11 246/246/11 247/247/11 248/248/11
f 248/249/12 247/250/12 249/251/12 250/252/12
f 250/253/13 249/254/13 251/255/13 252/256/13
f 252/257/14 251/258/14 246/259/14 245/260/14
f 248/261/15 250/262/15 252/263/15 245/264/15
f 249/265/16 247/266/16 246/267/16 251/268/16
