# Blender v2.93.5 OBJ File: ''
# www.blender.org
mtllib MistraltonCityHouse.mtl
o MistraltonCityHouse
v -19.312500 13.197461 30.128914
v -7.687500 13.197461 30.128914
v -7.687500 28.576366 30.128922
v -19.312500 28.576366 30.128922
v -4.621094 42.400585 28.660175
v 4.628906 42.400585 28.660175
v 4.628906 54.638866 28.660179
v -4.621094 54.638866 28.660179
v -29.179689 13.443566 -8.773433
v -29.179689 13.443559 9.000006
v -29.179689 28.795124 9.000011
v -29.179689 28.795124 -8.773427
v -29.179689 41.736534 -5.316391
v -29.179689 41.736534 5.542984
v -29.179689 54.220901 5.542988
v -29.179689 54.220901 -5.316387
v 29.179689 13.443566 -8.773433
v 29.179689 28.795124 -8.773427
v 29.179689 28.795124 9.000011
v 29.179689 13.443559 9.000006
v -24.800779 -2.521293 30.093750
v 31.160160 -2.521293 30.093750
v -24.800779 -2.521273 -32.496090
v 31.160160 -2.521273 -32.496090
v -4.000000 29.318554 28.000011
v -4.000000 29.318546 35.437508
v -4.000000 32.611519 35.437515
v -4.000000 37.052925 28.000015
v 20.000000 29.318546 35.437508
v 20.000000 29.318554 28.000011
v 20.000000 37.052925 28.000015
v 20.000000 32.611519 35.437515
v -4.000000 32.611519 35.437515
v 20.000000 32.611519 35.437515
v 20.000000 37.052925 28.000015
v -4.000000 37.052925 28.000015
v -4.000000 29.318546 35.437508
v 20.000000 29.318546 35.437508
v 20.000000 32.611519 35.437515
v -4.000000 32.611519 35.437515
v 2.382813 63.631046 34.023464
v 0.000000 57.775585 34.023464
v 29.082029 37.775585 34.023457
v 31.695311 42.822464 34.023457
v -2.378906 63.631046 34.023464
v 2.382813 63.631046 34.023464
v 2.382813 63.631077 -33.925758
v -2.378906 63.631077 -33.925758
v 31.695311 42.822464 34.023457
v 29.082029 37.775585 34.023457
v 34.917969 37.775585 34.023457
v 34.917969 42.779495 34.023457
v 31.695311 42.822479 -33.925766
v 31.695311 42.822464 34.023457
v 34.917969 42.779495 34.023457
v 34.917969 42.779510 -33.925766
v -31.679689 42.822464 34.023457
v -31.679689 42.822479 -33.925766
v -34.917969 42.779510 -33.925766
v -34.917969 42.779495 34.023457
v -29.062500 37.775585 34.023457
v -31.679689 42.822464 34.023457
v -34.917969 42.779495 34.023457
v -34.917969 37.775585 34.023457
v 34.917969 37.775585 34.023457
v 34.917969 37.783409 -33.925766
v 34.917969 42.779510 -33.925766
v 34.917969 42.779495 34.023457
v -34.917969 37.775600 -33.925766
v -34.917969 37.775585 34.023457
v -34.917969 42.779495 34.023457
v -34.917969 42.779510 -33.925766
v -2.378906 63.631046 34.023464
v -31.679689 42.822464 34.023457
v -29.062500 37.775585 34.023457
v 0.000000 57.775585 34.023464
v 2.382813 63.631077 -33.925758
v 2.382813 63.631046 34.023464
v 31.695311 42.822464 34.023457
v 31.695311 42.822479 -33.925766
v -31.679689 42.822464 34.023457
v -2.378906 63.631046 34.023464
v -2.378906 63.631077 -33.925758
v -31.679689 42.822479 -33.925766
v -6.089844 59.267784 0.000020
v -6.089844 52.592003 -8.628887
v -31.542971 52.592003 -8.628887
v -31.542971 59.267784 0.000020
v -6.089844 52.592003 8.628925
v -6.089844 59.267784 0.000020
v -31.542971 59.267784 0.000020
v -31.542971 52.592003 8.628925
v -2.378906 63.631046 34.023464
v 0.000000 57.775585 34.023464
v 2.382813 63.631046 34.023464
v -0.007812 -0.318160 8.000002
v 0.000000 31.681843 8.000011
v -0.003906 -0.318165 20.960939
v 0.003906 31.681835 20.960951
v 0.000000 -0.318168 27.980471
v 0.007812 31.681835 27.980482
v -23.781250 41.533394 30.718765
v -23.781250 36.025585 30.718761
v 0.000000 41.533394 30.718765
v 0.000000 36.025585 30.718761
v 23.781250 41.533394 30.718765
v 23.781250 36.025585 30.718761
v 16.000000 31.681843 8.000011
v 15.992190 -0.318160 8.000002
v 16.000000 31.681835 20.960951
v 15.992190 -0.318165 20.960939
v 16.000000 31.681835 27.980482
v 15.992190 -0.318168 27.980471
v -23.781250 41.533394 24.824236
v -23.781250 41.533394 30.718765
v 0.000000 41.533394 24.824236
v 0.000000 41.533394 30.718765
v 27.953131 41.533394 24.824236
v 23.781250 41.533394 30.718765
v -31.542971 52.592003 -8.628887
v -31.542971 42.931843 -8.628891
v -31.542971 59.267784 0.000020
v -31.542971 42.931843 0.000016
v -31.542971 52.592003 8.628925
v -31.542971 42.931843 8.628922
v -23.554689 41.572464 27.980486
v 0.011719 41.572464 27.980486
v 0.011719 57.865425 27.980490
v 23.566410 41.572464 27.980486
v -0.003906 -0.318165 20.960939
v 0.000000 -0.318168 27.980471
v 15.992190 -0.318168 27.980471
v 15.992190 -0.318165 20.960939
v 16.000000 -0.318168 28.000000
v 16.000000 -0.318168 32.000000
v 16.000000 29.318554 32.000008
v 16.000000 29.318554 28.000011
v 20.000000 -0.318168 32.000000
v 20.000000 -0.318168 28.000000
v 20.000000 29.318554 28.000011
v 20.000000 29.318554 32.000008
v 16.000000 -0.318168 32.000000
v 20.000000 -0.318168 32.000000
v 20.000000 29.318554 32.000008
v 16.000000 29.318554 32.000008
v -4.000000 -0.318168 28.000000
v -4.000000 -0.318168 32.000000
v -4.000000 29.318554 32.000008
v -4.000000 29.049026 28.000011
v 0.000000 -0.318168 32.000000
v 0.000000 -0.318168 28.000000
v 0.000000 29.318554 28.000011
v 0.000000 29.318554 32.000008
v -4.000000 -0.318168 32.000000
v 0.000000 -0.318168 32.000000
v 0.000000 29.318554 32.000008
v -4.000000 29.318554 32.000008
v -5.113281 42.021675 23.500015
v -5.113281 42.021675 29.546896
v -5.113281 54.802925 29.546900
v -5.113281 54.802925 23.500019
v 5.113281 42.021675 29.546896
v 5.113281 42.021675 23.500015
v 5.113281 54.802925 23.500019
v 5.113281 54.802925 29.546900
v -5.113281 54.802925 29.546900
v 5.113281 54.802925 29.546900
v 5.113281 54.802925 23.500019
v -5.113281 54.802925 23.500019
v -5.113281 42.021675 29.546896
v 5.113281 42.021675 29.546896
v 5.113281 54.802925 29.546900
v -5.113281 54.802925 29.546900
v -20.265631 12.494334 24.000004
v -20.265631 12.494330 32.000008
v -20.265631 29.412304 32.000008
v -20.265631 29.412304 24.000011
v -20.265631 29.412304 32.000008
v -6.730469 29.412304 32.000008
v -6.730469 29.412304 24.000011
v -20.265631 29.412304 24.000011
v -23.699221 -0.318168 27.980471
v -4.003906 -0.318168 27.980471
v -3.996094 36.006054 27.980482
v -23.691410 36.006054 27.980482
v 24.152340 36.033394 27.980482
v 19.699221 36.033394 27.980482
v 19.722660 -0.318168 27.980471
v 24.148439 -0.318168 27.980471
v -6.730469 12.494330 32.000008
v -6.730469 12.494334 24.000004
v -6.730469 29.412304 24.000011
v -6.730469 29.412304 32.000008
v -20.265631 12.494330 32.000008
v -6.730469 12.494330 32.000008
v -6.730469 29.412304 32.000008
v -20.265631 29.412304 32.000008
v 29.996090 -0.318148 -32.039059
v 29.996090 41.580292 -32.039043
v 29.996090 41.580292 -24.066395
v 29.996090 -0.318151 -24.066410
v 29.996090 -0.318151 -24.066410
v 29.996090 41.580292 -24.066395
v 23.746090 41.580292 -24.066395
v 23.746090 -0.318151 -24.066410
v -29.996090 -0.318148 -32.039059
v -29.996090 -0.318151 -24.066410
v -29.996090 41.580292 -24.066395
v -29.996090 41.580292 -32.039043
v -29.996090 -0.318151 -24.066410
v -23.746090 -0.318151 -24.066410
v -23.746090 41.580292 -24.066395
v -29.996090 41.580292 -24.066395
v 29.996090 -0.318166 24.000000
v 29.996090 41.580276 24.000015
v 29.996090 41.580276 31.972675
v 29.996090 -0.318168 31.972660
v 29.996090 -0.318168 31.972660
v 29.996090 41.580276 31.972675
v 23.746090 41.580276 31.972675
v 23.746090 -0.318168 31.972660
v -29.996090 -0.318166 24.000000
v -29.996090 -0.318168 31.972660
v -29.996090 41.580276 31.972675
v -29.996090 41.580276 24.000015
v -23.746090 -0.318168 31.972660
v -23.746090 -0.318166 24.000000
v -23.746090 41.580276 24.000015
v -23.746090 41.580276 31.972675
v -29.996090 -0.318168 31.972660
v -23.746090 -0.318168 31.972660
v -23.746090 41.580276 31.972675
v -29.996090 41.580276 31.972675
v -0.007812 -0.318160 8.000002
v -0.003906 -0.318165 20.960939
v 15.992190 -0.318165 20.960939
v 15.992190 -0.318160 8.000002
v 15.992190 -0.318160 8.000002
v 16.000000 31.681843 8.000011
v 0.000000 31.681843 8.000011
v -0.007812 -0.318160 8.000002
v -29.886721 12.912309 9.429694
v -27.191410 12.912309 9.429694
v -27.191410 29.834183 9.429700
v -29.886721 29.834183 9.429700
v -29.886721 29.834183 -9.429677
v -29.886721 29.834183 9.429700
v -27.191410 29.834183 9.429700
v -27.191410 29.834183 -9.429677
v -29.886721 12.912316 -9.429683
v -29.886721 12.912309 9.429694
v -29.886721 29.834183 9.429700
v -29.886721 29.834183 -9.429677
v 29.886721 12.912309 9.429694
v 29.886721 29.834183 9.429700
v 27.191410 29.834183 9.429700
v 27.191410 12.912309 9.429694
v -6.089844 42.888874 8.628922
v -6.089844 52.592003 8.628925
v -31.542971 52.592003 8.628925
v -31.542971 42.931843 8.628922
v 29.886721 12.912316 -9.429683
v 29.886721 29.834183 -9.429677
v 29.886721 29.834183 9.429700
v 29.886721 12.912309 9.429694
v -28.003910 -0.318151 -24.835939
v -28.003910 -0.318166 24.835939
v -27.996090 39.681835 24.835955
v -27.996090 39.681850 -24.835924
v 27.996090 -0.318166 24.835939
v 27.996090 -0.318151 -24.835939
v 28.003910 39.681850 -24.835924
v 28.003910 39.681835 24.835955
v 23.746090 -0.318168 31.972660
v 23.746090 41.580276 31.972675
v 23.820311 41.580276 24.000015
v 23.820311 -0.318166 24.000000
v 29.886721 29.834183 -9.429677
v 27.191410 29.834183 -9.429677
v 27.191410 29.834183 9.429700
v 29.886721 29.834183 9.429700
vt 0.000000 -0.988281
vt 1.000000 -0.988281
vt 1.000000 -0.007812
vt 0.000000 -0.007812
vt 0.000000 -0.988281
vt 1.000000 -0.988281
vt 1.000000 -0.007812
vt 0.000000 -0.007812
vt 0.000000 -0.988281
vt 1.000000 -0.988281
vt 1.000000 -0.007812
vt 0.000000 -0.007812
vt 0.000000 -0.988281
vt 1.000000 -0.988281
vt 1.000000 -0.007812
vt 0.000000 -0.007812
vt 0.000000 -0.988281
vt 0.000000 -0.007812
vt 1.000000 -0.007812
vt 1.000000 -0.988281
vt 0.625000 -0.851562
vt 0.625000 -0.851562
vt 0.625000 -0.851562
vt 0.625000 -0.851562
vt 0.714844 -0.985352
vt 0.140625 -0.985352
vt 0.140625 -0.936523
vt 0.714844 -0.871094
vt 0.140625 -0.985352
vt 0.710938 -0.985352
vt 0.710938 -0.871094
vt 0.140625 -0.936523
vt -1.054688 -0.246094
vt 2.058594 -0.246094
vt 2.058594 -0.180664
vt -1.054688 -0.180664
vt 0.375000 -0.988281
vt 0.695312 -0.988281
vt 0.695312 -0.933594
vt 0.375000 -0.933594
vt 0.296875 -0.909180
vt 0.804688 -0.998047
vt -4.578125 -0.998047
vt -5.035156 -0.909180
vt 0.625000 -0.114258
vt 0.890625 -0.114258
vt 0.890625 -0.083008
vt 0.625000 -0.083008
vt 0.085938 -0.909180
vt 0.542969 -0.998047
vt 0.769531 -0.998047
vt 0.769531 -0.909180
vt 0.792969 -0.591797
vt 0.792969 -0.613281
vt 0.824219 -0.613281
vt 0.824219 -0.591797
vt 0.207031 -0.613281
vt 0.207031 -0.591797
vt 0.175781 -0.591797
vt 0.175781 -0.613281
vt 0.882812 -0.998047
vt 0.886719 -0.909180
vt 0.835938 -0.909180
vt 0.835938 -0.998047
vt 0.167969 -0.999023
vt 0.832031 -0.998047
vt 0.832031 -0.911133
vt 0.167969 -0.911133
vt 0.765625 -0.999023
vt 0.234375 -0.999023
vt 0.234375 -0.911133
vt 0.765625 -0.911133
vt 0.746094 -0.909180
vt 5.878906 -0.909180
vt 5.382813 -0.998047
vt 0.199219 -0.998047
vt 3.050781 0.000000
vt -3.046875 0.000000
vt -3.046875 -0.902344
vt 3.050781 -0.902344
vt 3.050781 -0.902344
vt 3.050781 0.000000
vt -3.046875 0.000000
vt -3.046875 -0.902344
vt 0.476562 -0.188477
vt 0.476562 -0.728516
vt 0.945312 -0.728516
vt 0.945312 -0.188477
vt 0.476562 -0.726562
vt 0.476562 -0.188477
vt 0.945312 -0.188477
vt 0.945312 -0.726562
vt 0.722656 -0.909180
vt 0.500000 -0.998047
vt 0.277344 -0.909180
vt 0.572266 -0.791016
vt 0.572266 -0.744141
vt 0.572266 -0.791016
vt 0.572266 -0.744141
vt 0.572266 -0.791016
vt 0.572266 -0.744141
vt 0.496094 -0.041016
vt 0.539062 -0.041016
vt 0.496094 -0.402344
vt 0.539062 -0.402344
vt 0.496094 -0.039062
vt 0.539062 -0.039062
vt 0.619141 -0.744141
vt 0.619141 -0.791016
vt 0.619141 -0.744141
vt 0.619141 -0.791016
vt 0.619141 -0.744141
vt 0.619141 -0.791016
vt 0.542969 -0.433594
vt 0.525391 -0.433594
vt 0.542969 -0.472656
vt 0.525391 -0.472656
vt 0.542969 -0.433594
vt 0.525391 -0.433594
vt 0.998047 -0.562500
vt 0.998047 -0.806641
vt 0.796875 -0.386719
vt 0.796875 -0.806641
vt 0.998047 -0.562500
vt 0.998047 -0.806641
vt 0.503906 -0.884766
vt 0.070312 -0.884766
vt 0.070312 -0.269531
vt 0.501953 -0.884766
vt 0.568359 -0.816406
vt 0.568359 -0.998047
vt 0.998047 -0.998047
vt 0.998047 -0.816406
vt 0.494141 -0.234375
vt 0.494141 -0.234375
vt 0.494141 -0.007812
vt 0.494141 -0.007812
vt 0.539062 -0.234375
vt 0.539062 -0.234375
vt 0.539062 -0.007812
vt 0.539062 -0.007812
vt 0.494141 -0.234375
vt 0.539062 -0.234375
vt 0.539062 -0.007812
vt 0.494141 -0.007812
vt 0.494141 -0.234375
vt 0.494141 -0.234375
vt 0.494141 -0.005859
vt 0.494141 -0.216797
vt 0.542969 -0.234375
vt 0.542969 -0.234375
vt 0.542969 -0.005859
vt 0.542969 -0.005859
vt 0.494141 -0.234375
vt 0.542969 -0.234375
vt 0.542969 -0.005859
vt 0.494141 -0.005859
vt 0.628906 -0.371094
vt 0.628906 -0.371094
vt 0.628906 -0.007812
vt 0.628906 -0.007812
vt 0.994141 -0.371094
vt 0.994141 -0.371094
vt 0.994141 -0.007812
vt 0.994141 -0.007812
vt 0.628906 -0.007812
vt 0.994141 -0.007812
vt 0.994141 -0.007812
vt 0.628906 -0.007812
vt 0.628906 -0.371094
vt 0.994141 -0.371094
vt 0.994141 -0.007812
vt 0.628906 -0.007812
vt 0.626953 -0.373047
vt 0.626953 -0.373047
vt 0.626953 -0.009766
vt 0.626953 -0.009766
vt 0.626953 -0.009766
vt 0.994141 -0.009766
vt 0.994141 -0.009766
vt 0.626953 -0.009766
vt 0.000000 -1.000000
vt 0.468750 -1.000000
vt 0.468750 0.000000
vt 0.000000 0.000000
vt 0.130859 0.000000
vt 0.000000 0.000000
vt 0.001953 -1.000000
vt 0.130859 -1.000000
vt 0.994141 -0.373047
vt 0.994141 -0.373047
vt 0.994141 -0.009766
vt 0.994141 -0.009766
vt 0.626953 -0.373047
vt 0.994141 -0.373047
vt 0.994141 -0.009766
vt 0.626953 -0.009766
vt 0.537109 -0.402344
vt 0.537109 -0.003906
vt 0.501953 -0.003906
vt 0.501953 -0.402344
vt 0.539062 -0.402344
vt 0.539062 -0.003906
vt 0.494141 -0.003906
vt 0.494141 -0.402344
vt 0.537109 -0.402344
vt 0.501953 -0.402344
vt 0.501953 -0.003906
vt 0.537109 -0.003906
vt 0.539062 -0.402344
vt 0.494141 -0.402344
vt 0.494141 -0.003906
vt 0.539062 -0.003906
vt 0.537109 -0.402344
vt 0.537109 -0.003906
vt 0.501953 -0.003906
vt 0.501953 -0.402344
vt 0.539062 -0.402344
vt 0.539062 -0.003906
vt 0.494141 -0.003906
vt 0.494141 -0.402344
vt 0.494141 -0.402344
vt 0.529297 -0.402344
vt 0.529297 -0.003906
vt 0.494141 -0.003906
vt 0.539062 -0.402344
vt 0.539062 -0.402344
vt 0.539062 -0.003906
vt 0.539062 -0.003906
vt 0.494141 -0.402344
vt 0.539062 -0.402344
vt 0.539062 -0.003906
vt 0.494141 -0.003906
vt 0.572266 -0.677734
vt 0.572266 -0.724609
vt 0.621094 -0.724609
vt 0.621094 -0.677734
vt 0.619141 -0.791016
vt 0.619141 -0.744141
vt 0.572266 -0.744141
vt 0.572266 -0.791016
vt 0.630859 -0.369141
vt 0.630859 -0.369141
vt 0.630859 -0.003906
vt 0.630859 -0.003906
vt 1.000000 -0.003906
vt 0.630859 -0.003906
vt 0.630859 -0.003906
vt 1.000000 -0.003906
vt 1.000000 -0.369141
vt 0.630859 -0.369141
vt 0.630859 -0.003906
vt 1.000000 -0.003906
vt 0.630859 -0.369141
vt 0.630859 -0.003906
vt 0.630859 -0.003906
vt 0.630859 -0.369141
vt 0.212891 -0.294922
vt 0.005859 -0.294922
vt 0.005859 -0.380859
vt 0.212891 -0.380859
vt 1.000000 -0.369141
vt 1.000000 -0.003906
vt 0.630859 -0.003906
vt 0.630859 -0.369141
vt 0.462891 -1.000000
vt 0.000000 -1.000000
vt 0.000000 0.000000
vt 0.462891 0.000000
vt 0.000000 -1.000000
vt 0.462891 -1.000000
vt 0.462891 0.000000
vt 0.000000 0.000000
vt 0.539062 -0.402344
vt 0.539062 -0.003906
vt 0.539062 -0.003906
vt 0.539062 -0.402344
vt 1.000000 -0.003906
vt 1.000000 -0.003906
vt 0.630859 -0.003906
vt 0.630859 -0.003906
vn 0.0000 -0.0000 1.0000
vn -1.0000 0.0000 0.0000
vn 1.0000 -0.0000 0.0000
vn 0.0000 1.0000 0.0000
vn -0.0000 0.8592 0.5117
vn 0.5789 0.8154 0.0000
vn -0.5783 0.8158 0.0000
vn -0.0000 0.7913 -0.6114
vn 0.0000 0.7913 0.6114
vn 1.0000 0.0001 0.0001
vn 1.0000 0.0001 0.0002
vn 1.0000 0.0001 0.0000
vn -1.0000 0.0002 0.0000
vn -1.0000 -0.0001 -0.0000
vn -1.0000 -0.0014 0.0000
vn 1.0000 0.0014 0.0000
usemtl window
s 1
f 1/1/1 2/2/1 3/3/1 4/4/1
f 5/5/1 6/6/1 7/7/1 8/8/1
f 9/9/2 10/10/2 11/11/2 12/12/2
f 13/13/2 14/14/2 15/15/2 16/16/2
f 17/17/3 18/18/3 19/19/3 20/20/3
usemtl shadow
f 21/21/4 22/22/4 23/23/4
f 22/22/4 24/24/4 23/23/4
usemtl h2
f 25/25/2 26/26/2 27/27/2 28/28/2
f 29/29/3 30/30/3 31/31/3 32/32/3
f 33/33/5 34/34/5 35/35/5 36/36/5
f 37/37/1 38/38/1 39/39/1 40/40/1
f 41/41/1 42/42/1 43/43/1 44/44/1
f 45/45/4 46/46/4 47/47/4 48/48/4
f 49/49/1 50/50/1 51/51/1 52/52/1
f 53/53/4 54/54/4 55/55/4 56/56/4
f 57/57/4 58/58/4 59/59/4 60/60/4
f 61/61/1 62/62/1 63/63/1 64/64/1
f 65/65/3 66/66/3 67/67/3 68/68/3
f 69/69/2 70/70/2 71/71/2 72/72/2
f 73/73/1 74/74/1 75/75/1 76/76/1
f 77/77/6 78/78/6 79/79/6 80/80/6
f 81/81/7 82/82/7 83/83/7 84/84/7
f 85/85/8 86/86/8 87/87/8 88/88/8
f 89/89/9 90/90/9 91/91/9 92/92/9
f 93/93/1 94/94/1 95/95/1
usemtl h1
f 96/96/3 97/97/10 98/98/3
f 97/97/10 99/99/11 98/98/3
f 98/98/3 99/99/11 100/100/12
f 99/99/11 101/101/3 100/100/12
f 102/102/1 103/103/1 104/104/1
f 103/103/1 105/105/1 104/104/1
f 104/104/1 105/105/1 106/106/1
f 105/105/1 107/107/1 106/106/1
f 108/108/13 109/109/13 110/110/13
f 109/109/13 111/111/13 110/110/13
f 110/110/13 111/111/13 112/112/13
f 111/111/13 113/113/14 112/112/13
f 114/114/4 115/115/4 116/116/4
f 115/115/4 117/117/4 116/116/4
f 116/116/4 117/117/4 118/118/4
f 117/117/4 119/119/4 118/118/4
f 120/120/2 121/121/2 122/122/2
f 121/121/2 123/123/2 122/122/2
f 122/122/2 123/123/2 124/124/2
f 123/123/2 125/125/2 124/124/2
f 126/126/1 127/127/1 128/128/1
f 127/127/1 129/129/1 128/128/1
f 130/130/4 131/131/4 132/132/4 133/133/4
f 134/134/2 135/135/2 136/136/2 137/137/2
f 138/138/3 139/139/3 140/140/3 141/141/3
f 142/142/1 143/143/1 144/144/1 145/145/1
f 146/146/2 147/147/2 148/148/2 149/149/2
f 150/150/3 151/151/3 152/152/3 153/153/3
f 154/154/1 155/155/1 156/156/1 157/157/1
f 158/158/2 159/159/2 160/160/2 161/161/2
f 162/162/3 163/163/3 164/164/3 165/165/3
f 166/166/4 167/167/4 168/168/4 169/169/4
f 170/170/1 171/171/1 172/172/1 173/173/1
f 174/174/2 175/175/2 176/176/2 177/177/2
f 178/178/4 179/179/4 180/180/4 181/181/4
f 182/182/1 183/183/1 184/184/1 185/185/1
f 186/186/1 187/187/1 188/188/1 189/189/1
f 190/190/3 191/191/3 192/192/3 193/193/3
f 194/194/1 195/195/1 196/196/1 197/197/1
f 198/198/3 199/199/3 200/200/3 201/201/3
f 202/202/1 203/203/1 204/204/1 205/205/1
f 206/206/2 207/207/2 208/208/2 209/209/2
f 210/210/1 211/211/1 212/212/1 213/213/1
f 214/214/3 215/215/3 216/216/3 217/217/3
f 218/218/1 219/219/1 220/220/1 221/221/1
f 222/222/2 223/223/2 224/224/2 225/225/2
f 226/226/3 227/227/3 228/228/3 229/229/3
f 230/230/1 231/231/1 232/232/1 233/233/1
f 234/234/4 235/235/4 236/236/4 237/237/4
f 238/238/1 239/239/1 240/240/1 241/241/1
f 242/242/1 243/243/1 244/244/1 245/245/1
f 246/246/4 247/247/4 248/248/4 249/249/4
f 250/250/2 251/251/2 252/252/2 253/253/2
f 254/254/1 255/255/1 256/256/1 257/257/1
f 258/258/1 259/259/1 260/260/1 261/261/1
f 262/262/3 263/263/3 264/264/3 265/265/3
f 266/266/15 267/267/15 268/268/15 269/269/15
f 270/270/16 271/271/16 272/272/16 273/273/16
f 274/274/2 275/275/2 276/276/2 277/277/2
f 278/278/4 279/279/4 280/280/4 281/281/4
o Cube_Cube.001
v -29.681440 -1.110990 -31.635387
v -29.681440 41.628090 -31.635380
v -29.681440 41.628090 -32.100147
v -29.681440 -1.110990 -32.100155
v 30.668665 41.628090 -32.100147
v 30.668665 -1.110990 -32.100155
v 30.668665 41.628090 -31.635380
v 30.668665 -1.110990 -31.635387
vt 0.499223 -0.000000
vt 0.516204 0.993822
vt 0.523906 0.993822
vt 0.506924 -0.000000
vt -0.002510 -0.004060
vt 0.000000 1.002754
vt 0.511591 1.000022
vt 0.502360 -0.001551
vt 0.506924 -0.000000
vt 0.523906 0.993822
vt 0.516204 0.993822
vt 0.499223 -0.000000
vt 0.502360 -0.001551
vt 0.521434 0.998792
vt 0.000000 1.002754
vt -0.002510 -0.004060
vt 0.006201 0.587561
vt 0.051280 0.590662
vt 0.164444 0.096199
vt 0.006201 0.579860
vt 0.164444 0.103900
vt 0.006201 0.587561
vt 0.006201 0.579860
vt 0.164444 0.096199
vn -1.0000 -0.0000 0.0000
vn 0.0000 0.0000 -1.0000
vn 1.0000 0.0000 0.0000
vn 0.0000 -0.0000 1.0000
vn 0.0000 -1.0000 0.0000
vn 0.0000 1.0000 0.0000
usemtl Material.001
s off
f 282/282/17 283/283/17 284/284/17 285/285/17
f 285/286/18 284/287/18 286/288/18 287/289/18
f 287/290/19 286/291/19 288/292/19 289/293/19
f 289/294/20 288/295/20 283/296/20 282/297/20
f 285/298/21 287/299/21 289/300/21 282/301/21
f 286/302/22 284/303/22 283/304/22 288/305/22
o Cone
v 0.145668 40.871708 -31.344910
v 0.145668 65.287239 -31.285942
v 5.966049 40.871708 -31.343777
v 11.562756 40.871708 -31.340422
v 16.720709 40.871708 -31.334972
v 21.241693 40.871708 -31.327639
v 24.951969 40.871708 -31.318705
v 27.708954 40.871708 -31.308510
v 29.406696 40.871708 -31.297449
v 29.979954 40.871708 -31.285946
v 29.406696 40.871708 -31.274443
v 27.708956 40.871708 -31.263382
v 24.951971 40.871708 -31.253187
v 21.241693 40.871708 -31.244253
v 16.720707 40.871708 -31.236919
v 11.562757 40.871708 -31.231470
v 5.966048 40.871708 -31.228115
v 0.145665 40.871708 -31.226982
v -5.674710 40.871708 -31.228115
v -11.271419 40.871708 -31.231470
v -16.429375 40.871708 -31.236919
v -20.950356 40.871708 -31.244251
v -24.660629 40.871708 -31.253187
v -27.417618 40.871708 -31.263382
v -29.115360 40.871708 -31.274443
v -29.688618 40.871708 -31.285946
v -29.115360 40.871708 -31.297449
v -27.417616 40.871708 -31.308510
v -24.660637 40.871708 -31.318705
v -20.950361 40.871708 -31.327639
v -16.429375 40.871708 -31.334972
v -11.271419 40.871708 -31.340422
v -5.674710 40.871708 -31.343777
vt -0.001872 0.562611
vt 0.243799 0.529035
vt 0.007320 0.652645
vt 0.025599 0.737929
vt 0.052264 0.815185
vt 0.086289 0.881445
vt 0.126367 0.934161
vt 0.170958 0.971309
vt 0.218349 0.991461
vt 0.266717 0.993842
vt 0.314205 0.978360
vt 0.358987 0.945612
vt 0.399342 0.896854
vt 0.433720 0.833962
vt 0.460799 0.759351
vt 0.479540 0.675889
vt 0.489221 0.586784
vt 0.489470 0.495460
vt 0.480279 0.405426
vt 0.461999 0.320142
vt 0.435335 0.242886
vt 0.401309 0.176626
vt 0.361231 0.123909
vt 0.316640 0.086761
vt 0.269250 0.066610
vt 0.220881 0.064229
vt 0.173394 0.079710
vt 0.128612 0.112459
vt 0.088256 0.161216
vt 0.053878 0.224109
vt 0.026799 0.298720
vt 0.008059 0.382181
vt 0.253937 0.759734
vt 0.300759 0.755123
vt 0.345781 0.741465
vt 0.387274 0.719287
vt 0.423643 0.689440
vt 0.453490 0.653071
vt 0.475668 0.611578
vt 0.489326 0.566556
vt 0.493937 0.519734
vt 0.489326 0.472913
vt 0.475668 0.427890
vt 0.453490 0.386397
vt 0.423643 0.350029
vt 0.387274 0.320181
vt 0.345781 0.298003
vt 0.300759 0.284346
vt 0.253937 0.279734
vt 0.207116 0.284346
vt 0.162093 0.298003
vt 0.120600 0.320181
vt 0.084231 0.350029
vt 0.054384 0.386397
vt 0.032206 0.427890
vt 0.018549 0.472913
vt 0.013937 0.519734
vt 0.018549 0.566556
vt 0.032206 0.611578
vt 0.054384 0.653071
vt 0.084231 0.689440
vt 0.120600 0.719287
vt 0.162093 0.741465
vt 0.207116 0.755123
vt -0.001622 0.471286
vn 0.0002 0.0024 -1.0000
vn 0.0006 0.0025 -1.0000
vn 0.0011 0.0027 -1.0000
vn 0.0016 0.0031 -1.0000
vn 0.0024 0.0038 -1.0000
vn 0.0037 0.0051 -1.0000
vn 0.0065 0.0083 -0.9999
vn 0.0201 0.0245 -0.9995
vn 0.0200 0.0245 0.9995
vn 0.0065 0.0083 0.9999
vn 0.0037 0.0051 1.0000
vn 0.0024 0.0038 1.0000
vn 0.0016 0.0031 1.0000
vn 0.0011 0.0027 1.0000
vn 0.0006 0.0025 1.0000
vn 0.0002 0.0024 1.0000
vn -0.0002 0.0024 1.0000
vn -0.0006 0.0025 1.0000
vn -0.0011 0.0027 1.0000
vn -0.0016 0.0031 1.0000
vn -0.0024 0.0038 1.0000
vn -0.0037 0.0051 1.0000
vn -0.0065 0.0083 0.9999
vn -0.0200 0.0245 0.9995
vn -0.0201 0.0245 -0.9995
vn -0.0065 0.0083 -0.9999
vn -0.0037 0.0051 -1.0000
vn -0.0024 0.0038 -1.0000
vn -0.0016 0.0031 -1.0000
vn -0.0011 0.0027 -1.0000
vn 0.0000 -1.0000 0.0000
vn -0.0006 0.0025 -1.0000
vn -0.0002 0.0024 -1.0000
usemtl Material.002
s off
f 290/306/23 291/307/23 292/308/23
f 292/308/24 291/307/24 293/309/24
f 293/309/25 291/307/25 294/310/25
f 294/310/26 291/307/26 295/311/26
f 295/311/27 291/307/27 296/312/27
f 296/312/28 291/307/28 297/313/28
f 297/313/29 291/307/29 298/314/29
f 298/314/30 291/307/30 299/315/30
f 299/315/31 291/307/31 300/316/31
f 300/316/32 291/307/32 301/317/32
f 301/317/33 291/307/33 302/318/33
f 302/318/34 291/307/34 303/319/34
f 303/319/35 291/307/35 304/320/35
f 304/320/36 291/307/36 305/321/36
f 305/321/37 291/307/37 306/322/37
f 306/322/38 291/307/38 307/323/38
f 307/323/39 291/307/39 308/324/39
f 308/324/40 291/307/40 309/325/40
f 309/325/41 291/307/41 310/326/41
f 310/326/42 291/307/42 311/327/42
f 311/327/43 291/307/43 312/328/43
f 312/328/44 291/307/44 313/329/44
f 313/329/45 291/307/45 314/330/45
f 314/330/46 291/307/46 315/331/46
f 315/331/47 291/307/47 316/332/47
f 316/332/48 291/307/48 317/333/48
f 317/333/49 291/307/49 318/334/49
f 318/334/50 291/307/50 319/335/50
f 319/335/51 291/307/51 320/336/51
f 320/336/52 291/307/52 321/337/52
f 290/338/53 292/339/53 293/340/53 294/341/53 295/342/53 296/343/53 297/344/53 298/345/53 299/346/53 300/347/53 301/348/53 302/349/53 303/350/53 304/351/53 305/352/53 306/353/53 307/354/53 308/355/53 309/356/53 310/357/53 311/358/53 312/359/53 313/360/53 314/361/53 315/362/53 316/363/53 317/364/53 318/365/53 319/366/53 320/367/53 321/368/53 322/369/53
f 321/337/54 291/307/54 322/370/54
f 322/370/55 291/307/55 290/306/55
