# Blender v2.93.5 OBJ File: ''
# www.blender.org
mtllib untitled.mtl
o MistraltonCityHouse
v -19.312500 17.515625 30.128912
v -7.687500 17.515625 30.128912
v -7.687500 32.894527 30.128916
v -19.312500 32.894527 30.128916
v -4.621094 46.718746 28.660168
v 4.628906 46.718746 28.660168
v 4.628906 58.957027 28.660170
v -4.621094 58.957027 28.660170
v -29.179689 17.761723 -8.773436
v -29.179689 17.761719 9.000003
v -29.179689 33.113281 9.000006
v -29.179689 33.113281 -8.773433
v -29.179689 46.054691 -5.316398
v -29.179689 46.054691 5.542977
v -29.179689 58.539059 5.542979
v -29.179689 58.539059 -5.316396
v 29.179689 17.761723 -8.773436
v 29.179689 33.113281 -8.773433
v 29.179689 33.113281 9.000006
v 29.179689 17.761719 9.000003
v -24.800779 1.796870 30.093750
v 31.160160 1.796870 30.093750
v -24.800779 1.796880 -32.496090
v 31.160160 1.796880 -32.496090
v 31.160160 1.796880 -32.496090
v 31.160160 1.796870 30.093750
v -24.800779 1.796870 30.093750
v -24.800779 1.796870 30.093750
v -4.000000 33.636715 28.000006
v -4.000000 33.636711 35.437504
v -4.000000 36.929684 35.437508
v -4.000000 41.371086 28.000008
v 20.000000 33.636711 35.437504
v 20.000000 33.636715 28.000006
v 20.000000 41.371086 28.000008
v 20.000000 36.929684 35.437508
v -4.000000 36.929684 35.437508
v 20.000000 36.929684 35.437508
v 20.000000 41.371086 28.000008
v -4.000000 41.371086 28.000008
v -4.000000 33.636711 35.437504
v 20.000000 33.636711 35.437504
v 20.000000 36.929684 35.437508
v -4.000000 36.929684 35.437508
v 2.382813 67.949211 34.023453
v 0.000000 62.093746 34.023453
v 29.082029 42.093746 34.023449
v 31.695311 47.140625 34.023449
v -2.378906 67.949211 34.023453
v 2.382813 67.949211 34.023453
v 2.382813 67.949226 -33.925770
v -2.378906 67.949226 -33.925770
v 31.695311 47.140625 34.023449
v 29.082029 42.093746 34.023449
v 34.917969 42.093746 34.023449
v 34.917969 47.097656 34.023449
v 31.695311 47.140633 -33.925774
v 31.695311 47.140625 34.023449
v 34.917969 47.097656 34.023449
v 34.917969 47.097664 -33.925774
v -31.679689 47.140625 34.023449
v -31.679689 47.140633 -33.925774
v -34.917969 47.097664 -33.925774
v -34.917969 47.097656 34.023449
v -29.062500 42.093746 34.023449
v -31.679689 47.140625 34.023449
v -34.917969 47.097656 34.023449
v -34.917969 42.093746 34.023449
v 34.917969 42.093746 34.023449
v 34.917969 42.101562 -33.925774
v 34.917969 47.097664 -33.925774
v 34.917969 47.097656 34.023449
v -34.917969 42.093754 -33.925774
v -34.917969 42.093746 34.023449
v -34.917969 47.097656 34.023449
v -34.917969 47.097664 -33.925774
v -2.378906 67.949211 34.023453
v -31.679689 47.140625 34.023449
v -29.062500 42.093746 34.023449
v 0.000000 62.093746 34.023453
v 2.382813 67.949226 -33.925770
v 2.382813 67.949211 34.023453
v 31.695311 47.140625 34.023449
v 31.695311 47.140633 -33.925774
v -31.679689 47.140625 34.023449
v -2.378906 67.949211 34.023453
v -2.378906 67.949226 -33.925770
v -31.679689 47.140633 -33.925774
v -6.089844 63.585941 0.000010
v -6.089844 56.910160 -8.628897
v -31.542971 56.910160 -8.628897
v -31.542971 63.585941 0.000010
v -6.089844 56.910160 8.628916
v -6.089844 63.585941 0.000010
v -31.542971 63.585941 0.000010
v -31.542971 56.910160 8.628916
v -2.378906 67.949211 34.023453
v 0.000000 62.093746 34.023453
v 2.382813 67.949211 34.023453
v -0.007812 3.999999 8.000001
v 0.000000 36.000000 8.000006
v -0.003906 3.999997 20.960939
v 0.003906 35.999996 20.960945
v 0.000000 3.999995 27.980471
v 0.007812 35.999996 27.980476
v -23.781250 45.851555 30.718758
v -23.781250 40.343746 30.718756
v 0.000000 45.851555 30.718758
v 0.000000 40.343746 30.718756
v 23.781250 45.851555 30.718758
v 23.781250 40.343746 30.718756
v 16.000000 36.000000 8.000006
v 15.992190 3.999999 8.000001
v 16.000000 35.999996 20.960945
v 15.992190 3.999997 20.960939
v 16.000000 35.999996 27.980476
v 15.992190 3.999995 27.980471
v -23.781250 45.851555 24.824228
v -23.781250 45.851555 30.718758
v 0.000000 45.851555 24.824228
v 0.000000 45.851555 30.718758
v 27.953131 45.851555 24.824228
v 23.781250 45.851555 30.718758
v -31.542971 56.910160 -8.628897
v -31.542971 47.250000 -8.628899
v -31.542971 63.585941 0.000010
v -31.542971 47.250000 0.000008
v -31.542971 56.910160 8.628916
v -31.542971 47.250000 8.628914
v -23.554689 45.890625 27.980478
v 0.011719 45.890625 27.980478
v 0.011719 62.183586 27.980480
v 23.566410 45.890625 27.980478
v -0.003906 3.999997 20.960939
v 0.000000 3.999995 27.980471
v 15.992190 3.999995 27.980471
v 15.992190 3.999997 20.960939
v 16.000000 3.999995 28.000000
v 16.000000 3.999995 32.000000
v 16.000000 33.636715 32.000004
v 16.000000 33.636715 28.000006
v 20.000000 3.999995 32.000000
v 20.000000 3.999995 28.000000
v 20.000000 33.636715 28.000006
v 20.000000 33.636715 32.000004
v 16.000000 3.999995 32.000000
v 20.000000 3.999995 32.000000
v 20.000000 33.636715 32.000004
v 16.000000 33.636715 32.000004
v -4.000000 3.999995 28.000000
v -4.000000 3.999995 32.000000
v -4.000000 33.636715 32.000004
v -4.000000 33.367188 28.000006
v 0.000000 3.999995 32.000000
v 0.000000 3.999995 28.000000
v 0.000000 33.636715 28.000006
v 0.000000 33.636715 32.000004
v -4.000000 3.999995 32.000000
v 0.000000 3.999995 32.000000
v 0.000000 33.636715 32.000004
v -4.000000 33.636715 32.000004
v -5.113281 46.339836 23.500008
v -5.113281 46.339836 29.546888
v -5.113281 59.121086 29.546890
v -5.113281 59.121086 23.500010
v 5.113281 46.339836 29.546888
v 5.113281 46.339836 23.500008
v 5.113281 59.121086 23.500010
v 5.113281 59.121086 29.546890
v -5.113281 59.121086 29.546890
v 5.113281 59.121086 29.546890
v 5.113281 59.121086 23.500010
v -5.113281 59.121086 23.500010
v -5.113281 46.339836 29.546888
v 5.113281 46.339836 29.546888
v 5.113281 59.121086 29.546890
v -5.113281 59.121086 29.546890
v -20.265631 16.812496 24.000002
v -20.265631 16.812494 32.000004
v -20.265631 33.730465 32.000004
v -20.265631 33.730465 24.000006
v -20.265631 33.730465 32.000004
v -6.730469 33.730465 32.000004
v -6.730469 33.730465 24.000006
v -20.265631 33.730465 24.000006
v -23.699221 3.999995 27.980471
v -4.003906 3.999995 27.980471
v -3.996094 40.324215 27.980476
v -23.691410 40.324215 27.980476
v 24.152340 40.351555 27.980476
v 19.699221 40.351555 27.980476
v 19.722660 3.999995 27.980471
v 24.148439 3.999995 27.980471
v -6.730469 16.812494 32.000004
v -6.730469 16.812496 24.000002
v -6.730469 33.730465 24.000006
v -6.730469 33.730465 32.000004
v -20.265631 16.812494 32.000004
v -6.730469 16.812494 32.000004
v -6.730469 33.730465 32.000004
v -20.265631 33.730465 32.000004
v 29.996090 4.000005 -32.039059
v 29.996090 45.898445 -32.039051
v 29.996090 45.898445 -24.066402
v 29.996090 4.000004 -24.066410
v 29.996090 4.000004 -24.066410
v 29.996090 45.898445 -24.066402
v 23.746090 45.898445 -24.066402
v 23.746090 4.000004 -24.066410
v -29.996090 4.000005 -32.039059
v -29.996090 4.000004 -24.066410
v -29.996090 45.898445 -24.066402
v -29.996090 45.898445 -32.039051
v -29.996090 4.000004 -24.066410
v -23.746090 4.000004 -24.066410
v -23.746090 45.898445 -24.066402
v -29.996090 45.898445 -24.066402
v 29.996090 3.999996 24.000000
v 29.996090 45.898438 24.000008
v 29.996090 45.898438 31.972668
v 29.996090 3.999995 31.972660
v 29.996090 3.999995 31.972660
v 29.996090 45.898438 31.972668
v 23.746090 45.898438 31.972668
v 23.746090 3.999995 31.972660
v -29.996090 3.999996 24.000000
v -29.996090 3.999995 31.972660
v -29.996090 45.898438 31.972668
v -29.996090 45.898438 24.000008
v -23.746090 3.999995 31.972660
v -23.746090 3.999996 24.000000
v -23.746090 45.898438 24.000008
v -23.746090 45.898438 31.972668
v -29.996090 3.999995 31.972660
v -23.746090 3.999995 31.972660
v -23.746090 45.898438 31.972668
v -29.996090 45.898438 31.972668
v -0.007812 3.999999 8.000001
v -0.003906 3.999997 20.960939
v 15.992190 3.999997 20.960939
v 15.992190 3.999999 8.000001
v 15.992190 3.999999 8.000001
v 16.000000 36.000000 8.000006
v 0.000000 36.000000 8.000006
v -0.007812 3.999999 8.000001
v -29.886721 17.230469 9.429691
v -27.191410 17.230469 9.429691
v -27.191410 34.152340 9.429694
v -29.886721 34.152340 9.429694
v -29.886721 34.152340 -9.429683
v -29.886721 34.152340 9.429694
v -27.191410 34.152340 9.429694
v -27.191410 34.152340 -9.429683
v -29.886721 17.230473 -9.429686
v -29.886721 17.230469 9.429691
v -29.886721 34.152340 9.429694
v -29.886721 34.152340 -9.429683
v 29.886721 17.230469 9.429691
v 29.886721 34.152340 9.429694
v 27.191410 34.152340 9.429694
v 27.191410 17.230469 9.429691
v -6.089844 47.207031 8.628914
v -6.089844 56.910160 8.628916
v -31.542971 56.910160 8.628916
v -31.542971 47.250000 8.628914
v 29.886721 17.230473 -9.429686
v 29.886721 34.152340 -9.429683
v 29.886721 34.152340 9.429694
v 29.886721 17.230469 9.429691
v -28.003910 4.000004 -24.835939
v -28.003910 3.999996 24.835939
v -27.996090 43.999996 24.835947
v -27.996090 44.000004 -24.835932
v 27.996090 3.999996 24.835939
v 27.996090 4.000004 -24.835939
v 28.003910 44.000004 -24.835932
v 28.003910 43.999996 24.835947
v 23.746090 3.999995 31.972660
v 23.746090 45.898438 31.972668
v 23.820311 45.898438 24.000008
v 23.820311 3.999996 24.000000
v 29.886721 34.152340 -9.429683
v 27.191410 34.152340 -9.429683
v 27.191410 34.152340 9.429694
v 29.886721 34.152340 9.429694
vt 0.000000 -0.988281
vt 1.000000 -0.988281
vt 1.000000 -0.007812
vt 0.000000 -0.007812
vt 0.000000 -0.988281
vt 1.000000 -0.988281
vt 1.000000 -0.007812
vt 0.000000 -0.007812
vt 0.000000 -0.988281
vt 1.000000 -0.988281
vt 1.000000 -0.007812
vt 0.000000 -0.007812
vt 0.000000 -0.988281
vt 1.000000 -0.988281
vt 1.000000 -0.007812
vt 0.000000 -0.007812
vt 0.000000 -0.988281
vt 0.000000 -0.007812
vt 1.000000 -0.007812
vt 1.000000 -0.988281
vt 0.625000 -0.851562
vt 0.625000 -0.851562
vt 0.625000 -0.851562
vt 0.625000 -0.851562
vt 0.714844 -0.985352
vt 0.140625 -0.985352
vt 0.140625 -0.936523
vt 0.714844 -0.871094
vt 0.140625 -0.985352
vt 0.710938 -0.985352
vt 0.710938 -0.871094
vt 0.140625 -0.936523
vt -1.054688 -0.246094
vt 2.058594 -0.246094
vt 2.058594 -0.180664
vt -1.054688 -0.180664
vt 0.375000 -0.988281
vt 0.695312 -0.988281
vt 0.695312 -0.933594
vt 0.375000 -0.933594
vt 0.296875 -0.909180
vt 0.804688 -0.998047
vt -4.578125 -0.998047
vt -5.035156 -0.909180
vt 0.625000 -0.114258
vt 0.890625 -0.114258
vt 0.890625 -0.083008
vt 0.625000 -0.083008
vt 0.085938 -0.909180
vt 0.542969 -0.998047
vt 0.769531 -0.998047
vt 0.769531 -0.909180
vt 0.792969 -0.591797
vt 0.792969 -0.613281
vt 0.824219 -0.613281
vt 0.824219 -0.591797
vt 0.207031 -0.613281
vt 0.207031 -0.591797
vt 0.175781 -0.591797
vt 0.175781 -0.613281
vt 0.882812 -0.998047
vt 0.886719 -0.909180
vt 0.835938 -0.909180
vt 0.835938 -0.998047
vt 0.167969 -0.999023
vt 0.832031 -0.998047
vt 0.832031 -0.911133
vt 0.167969 -0.911133
vt 0.765625 -0.999023
vt 0.234375 -0.999023
vt 0.234375 -0.911133
vt 0.765625 -0.911133
vt 0.746094 -0.909180
vt 5.878906 -0.909180
vt 5.382813 -0.998047
vt 0.199219 -0.998047
vt 3.050781 0.000000
vt -3.046875 0.000000
vt -3.046875 -0.902344
vt 3.050781 -0.902344
vt 3.050781 -0.902344
vt 3.050781 0.000000
vt -3.046875 0.000000
vt -3.046875 -0.902344
vt 0.476562 -0.188477
vt 0.476562 -0.728516
vt 0.945312 -0.728516
vt 0.945312 -0.188477
vt 0.476562 -0.726562
vt 0.476562 -0.188477
vt 0.945312 -0.188477
vt 0.945312 -0.726562
vt 0.722656 -0.909180
vt 0.500000 -0.998047
vt 0.277344 -0.909180
vt 0.572266 -0.791016
vt 0.572266 -0.744141
vt 0.572266 -0.791016
vt 0.572266 -0.744141
vt 0.572266 -0.791016
vt 0.572266 -0.744141
vt 0.496094 -0.041016
vt 0.539062 -0.041016
vt 0.496094 -0.402344
vt 0.539062 -0.402344
vt 0.496094 -0.039062
vt 0.539062 -0.039062
vt 0.619141 -0.744141
vt 0.619141 -0.791016
vt 0.619141 -0.744141
vt 0.619141 -0.791016
vt 0.619141 -0.744141
vt 0.619141 -0.791016
vt 0.542969 -0.433594
vt 0.525391 -0.433594
vt 0.542969 -0.472656
vt 0.525391 -0.472656
vt 0.542969 -0.433594
vt 0.525391 -0.433594
vt 0.998047 -0.562500
vt 0.998047 -0.806641
vt 0.796875 -0.386719
vt 0.796875 -0.806641
vt 0.998047 -0.562500
vt 0.998047 -0.806641
vt 0.503906 -0.884766
vt 0.070312 -0.884766
vt 0.070312 -0.269531
vt 0.501953 -0.884766
vt 0.568359 -0.816406
vt 0.568359 -0.998047
vt 0.998047 -0.998047
vt 0.998047 -0.816406
vt 0.494141 -0.234375
vt 0.494141 -0.234375
vt 0.494141 -0.007812
vt 0.494141 -0.007812
vt 0.539062 -0.234375
vt 0.539062 -0.234375
vt 0.539062 -0.007812
vt 0.539062 -0.007812
vt 0.494141 -0.234375
vt 0.539062 -0.234375
vt 0.539062 -0.007812
vt 0.494141 -0.007812
vt 0.494141 -0.234375
vt 0.494141 -0.234375
vt 0.494141 -0.005859
vt 0.494141 -0.216797
vt 0.542969 -0.234375
vt 0.542969 -0.234375
vt 0.542969 -0.005859
vt 0.542969 -0.005859
vt 0.494141 -0.234375
vt 0.542969 -0.234375
vt 0.542969 -0.005859
vt 0.494141 -0.005859
vt 0.628906 -0.371094
vt 0.628906 -0.371094
vt 0.628906 -0.007812
vt 0.628906 -0.007812
vt 0.994141 -0.371094
vt 0.994141 -0.371094
vt 0.994141 -0.007812
vt 0.994141 -0.007812
vt 0.628906 -0.007812
vt 0.994141 -0.007812
vt 0.994141 -0.007812
vt 0.628906 -0.007812
vt 0.628906 -0.371094
vt 0.994141 -0.371094
vt 0.994141 -0.007812
vt 0.628906 -0.007812
vt 0.626953 -0.373047
vt 0.626953 -0.373047
vt 0.626953 -0.009766
vt 0.626953 -0.009766
vt 0.626953 -0.009766
vt 0.994141 -0.009766
vt 0.994141 -0.009766
vt 0.626953 -0.009766
vt 0.000000 -1.000000
vt 0.468750 -1.000000
vt 0.468750 0.000000
vt 0.000000 0.000000
vt 0.130859 0.000000
vt 0.000000 0.000000
vt 0.001953 -1.000000
vt 0.130859 -1.000000
vt 0.994141 -0.373047
vt 0.994141 -0.373047
vt 0.994141 -0.009766
vt 0.994141 -0.009766
vt 0.626953 -0.373047
vt 0.994141 -0.373047
vt 0.994141 -0.009766
vt 0.626953 -0.009766
vt 0.537109 -0.402344
vt 0.537109 -0.003906
vt 0.501953 -0.003906
vt 0.501953 -0.402344
vt 0.539062 -0.402344
vt 0.539062 -0.003906
vt 0.494141 -0.003906
vt 0.494141 -0.402344
vt 0.537109 -0.402344
vt 0.501953 -0.402344
vt 0.501953 -0.003906
vt 0.537109 -0.003906
vt 0.539062 -0.402344
vt 0.494141 -0.402344
vt 0.494141 -0.003906
vt 0.539062 -0.003906
vt 0.537109 -0.402344
vt 0.537109 -0.003906
vt 0.501953 -0.003906
vt 0.501953 -0.402344
vt 0.539062 -0.402344
vt 0.539062 -0.003906
vt 0.494141 -0.003906
vt 0.494141 -0.402344
vt 0.494141 -0.402344
vt 0.529297 -0.402344
vt 0.529297 -0.003906
vt 0.494141 -0.003906
vt 0.539062 -0.402344
vt 0.539062 -0.402344
vt 0.539062 -0.003906
vt 0.539062 -0.003906
vt 0.494141 -0.402344
vt 0.539062 -0.402344
vt 0.539062 -0.003906
vt 0.494141 -0.003906
vt 0.572266 -0.677734
vt 0.572266 -0.724609
vt 0.621094 -0.724609
vt 0.621094 -0.677734
vt 0.619141 -0.791016
vt 0.619141 -0.744141
vt 0.572266 -0.744141
vt 0.572266 -0.791016
vt 0.630859 -0.369141
vt 0.630859 -0.369141
vt 0.630859 -0.003906
vt 0.630859 -0.003906
vt 1.000000 -0.003906
vt 0.630859 -0.003906
vt 0.630859 -0.003906
vt 1.000000 -0.003906
vt 1.000000 -0.369141
vt 0.630859 -0.369141
vt 0.630859 -0.003906
vt 1.000000 -0.003906
vt 0.630859 -0.369141
vt 0.630859 -0.003906
vt 0.630859 -0.003906
vt 0.630859 -0.369141
vt 0.212891 -0.294922
vt 0.005859 -0.294922
vt 0.005859 -0.380859
vt 0.212891 -0.380859
vt 1.000000 -0.369141
vt 1.000000 -0.003906
vt 0.630859 -0.003906
vt 0.630859 -0.369141
vt 0.462891 -1.000000
vt 0.000000 -1.000000
vt 0.000000 0.000000
vt 0.462891 0.000000
vt 0.000000 -1.000000
vt 0.462891 -1.000000
vt 0.462891 0.000000
vt 0.000000 0.000000
vt 0.539062 -0.402344
vt 0.539062 -0.003906
vt 0.539062 -0.003906
vt 0.539062 -0.402344
vt 1.000000 -0.003906
vt 1.000000 -0.003906
vt 0.630859 -0.003906
vt 0.630859 -0.003906
vn 0.0000 -0.0000 1.0000
vn -1.0000 0.0000 0.0000
vn 1.0000 0.0000 0.0000
vn 0.0000 1.0000 0.0000
vn -0.0000 0.8592 0.5117
vn 0.5789 0.8154 0.0000
vn -0.5784 0.8158 0.0000
vn -0.0000 0.7913 -0.6115
vn 0.0000 0.7913 0.6115
vn 1.0000 0.0001 0.0002
vn 1.0000 0.0001 0.0001
vn -1.0000 0.0002 0.0000
vn -1.0000 -0.0001 -0.0000
vn -1.0000 -0.0014 0.0000
vn 1.0000 0.0014 0.0000
usemtl window
s 1
f 1/1/1 2/2/1 3/3/1 4/4/1
f 5/5/1 6/6/1 7/7/1 8/8/1
f 9/9/2 10/10/2 11/11/2 12/12/2
f 13/13/2 14/14/2 15/15/2 16/16/2
f 17/17/3 18/18/3 19/19/3 20/20/3
usemtl shadow
f 21/21/4 22/22/4 23/23/4
f 22/22/4 24/24/4 23/23/4
usemtl h2
f 29/25/2 30/26/2 31/27/2 32/28/2
f 33/29/3 34/30/3 35/31/3 36/32/3
f 37/33/5 38/34/5 39/35/5 40/36/5
f 41/37/1 42/38/1 43/39/1 44/40/1
f 45/41/1 46/42/1 47/43/1 48/44/1
f 49/45/4 50/46/4 51/47/4 52/48/4
f 53/49/1 54/50/1 55/51/1 56/52/1
f 57/53/4 58/54/4 59/55/4 60/56/4
f 61/57/4 62/58/4 63/59/4 64/60/4
f 65/61/1 66/62/1 67/63/1 68/64/1
f 69/65/3 70/66/3 71/67/3 72/68/3
f 73/69/2 74/70/2 75/71/2 76/72/2
f 77/73/1 78/74/1 79/75/1 80/76/1
f 81/77/6 82/78/6 83/79/6 84/80/6
f 85/81/7 86/82/7 87/83/7 88/84/7
f 89/85/8 90/86/8 91/87/8 92/88/8
f 93/89/9 94/90/9 95/91/9 96/92/9
f 97/93/1 98/94/1 99/95/1
usemtl h1
f 100/96/3 101/97/3 102/98/3
f 101/97/3 103/99/10 102/98/3
f 102/98/3 103/99/10 104/100/11
f 103/99/10 105/101/3 104/100/11
f 106/102/1 107/103/1 108/104/1
f 107/103/1 109/105/1 108/104/1
f 108/104/1 109/105/1 110/106/1
f 109/105/1 111/107/1 110/106/1
f 112/108/12 113/109/12 114/110/12
f 113/109/12 115/111/13 114/110/12
f 114/110/12 115/111/13 116/112/13
f 115/111/13 117/113/13 116/112/13
f 118/114/4 119/115/4 120/116/4
f 119/115/4 121/117/4 120/116/4
f 120/116/4 121/117/4 122/118/4
f 121/117/4 123/119/4 122/118/4
f 124/120/2 125/121/2 126/122/2
f 125/121/2 127/123/2 126/122/2
f 126/122/2 127/123/2 128/124/2
f 127/123/2 129/125/2 128/124/2
f 130/126/1 131/127/1 132/128/1
f 131/127/1 133/129/1 132/128/1
f 134/130/4 135/131/4 136/132/4 137/133/4
f 138/134/2 139/135/2 140/136/2 141/137/2
f 142/138/3 143/139/3 144/140/3 145/141/3
f 146/142/1 147/143/1 148/144/1 149/145/1
f 150/146/2 151/147/2 152/148/2 153/149/2
f 154/150/3 155/151/3 156/152/3 157/153/3
f 158/154/1 159/155/1 160/156/1 161/157/1
f 162/158/2 163/159/2 164/160/2 165/161/2
f 166/162/3 167/163/3 168/164/3 169/165/3
f 170/166/4 171/167/4 172/168/4 173/169/4
f 174/170/1 175/171/1 176/172/1 177/173/1
f 178/174/2 179/175/2 180/176/2 181/177/2
f 182/178/4 183/179/4 184/180/4 185/181/4
f 186/182/1 187/183/1 188/184/1 189/185/1
f 190/186/1 191/187/1 192/188/1 193/189/1
f 194/190/3 195/191/3 196/192/3 197/193/3
f 198/194/1 199/195/1 200/196/1 201/197/1
f 202/198/3 203/199/3 204/200/3 205/201/3
f 206/202/1 207/203/1 208/204/1 209/205/1
f 210/206/2 211/207/2 212/208/2 213/209/2
f 214/210/1 215/211/1 216/212/1 217/213/1
f 218/214/3 219/215/3 220/216/3 221/217/3
f 222/218/1 223/219/1 224/220/1 225/221/1
f 226/222/2 227/223/2 228/224/2 229/225/2
f 230/226/3 231/227/3 232/228/3 233/229/3
f 234/230/1 235/231/1 236/232/1 237/233/1
f 238/234/4 239/235/4 240/236/4 241/237/4
f 242/238/1 243/239/1 244/240/1 245/241/1
f 246/242/1 247/243/1 248/244/1 249/245/1
f 250/246/4 251/247/4 252/248/4 253/249/4
f 254/250/2 255/251/2 256/252/2 257/253/2
f 258/254/1 259/255/1 260/256/1 261/257/1
f 262/258/1 263/259/1 264/260/1 265/261/1
f 266/262/3 267/263/3 268/264/3 269/265/3
f 270/266/14 271/267/14 272/268/14 273/269/14
f 274/270/15 275/271/15 276/272/15 277/273/15
f 278/274/2 279/275/2 280/276/2 281/277/2
f 282/278/4 283/279/4 284/280/4 285/281/4
o Cube_Cube.001
v -29.681440 3.207163 -31.635387
v -29.681440 45.946243 -31.635387
v -29.681440 3.207163 -32.100155
v -29.681440 45.946243 -32.100155
v 30.668665 3.207163 -31.635387
v 30.668665 45.946243 -31.635387
v 30.668665 3.207163 -32.100155
v 30.668665 45.946243 -32.100155
vt 0.499223 -0.000000
vt 0.516204 0.993822
vt 0.523906 0.993822
vt 0.506924 -0.000000
vt -0.002510 -0.004060
vt 0.000000 1.002754
vt 0.511591 1.000022
vt 0.502360 -0.001551
vt 0.506924 -0.000000
vt 0.523906 0.993822
vt 0.516204 0.993822
vt 0.499223 -0.000000
vt 0.502360 -0.001551
vt 0.521434 0.998792
vt 0.000000 1.002754
vt -0.002510 -0.004060
vt 0.006201 0.587561
vt 0.051280 0.590662
vt 0.164444 0.096199
vt 0.006201 0.579860
vt 0.164444 0.103900
vt 0.006201 0.587561
vt 0.006201 0.579860
vt 0.164444 0.096199
vn -1.0000 0.0000 0.0000
vn 0.0000 0.0000 -1.0000
vn 1.0000 0.0000 0.0000
vn 0.0000 0.0000 1.0000
vn 0.0000 -1.0000 0.0000
vn 0.0000 1.0000 0.0000
usemtl Material.001
s off
f 286/282/16 287/283/16 289/284/16 288/285/16
f 288/286/17 289/287/17 293/288/17 292/289/17
f 292/290/18 293/291/18 291/292/18 290/293/18
f 290/294/19 291/295/19 287/296/19 286/297/19
f 288/298/20 292/299/20 290/300/20 286/301/20
f 293/302/21 289/303/21 287/304/21 291/305/21
o Cone
v 0.145668 45.189861 -31.344917
v 5.966049 45.189861 -31.343784
v 11.562756 45.189861 -31.340429
v 16.720709 45.189861 -31.334980
v 21.241693 45.189861 -31.327646
v 24.951969 45.189861 -31.318712
v 27.708954 45.189861 -31.308517
v 29.406696 45.189861 -31.297457
v 29.979954 45.189861 -31.285954
v 29.406696 45.189861 -31.274450
v 27.708956 45.189861 -31.263390
v 24.951971 45.189861 -31.253195
v 21.241693 45.189861 -31.244261
v 16.720707 45.189861 -31.236927
v 11.562757 45.189861 -31.231478
v 5.966048 45.189861 -31.228123
v 0.145665 45.189861 -31.226990
v -5.674710 45.189861 -31.228123
v -11.271419 45.189861 -31.231478
v -16.429375 45.189861 -31.236927
v -20.950356 45.189861 -31.244259
v -24.660629 45.189861 -31.253195
v -27.417618 45.189861 -31.263390
v -29.115360 45.189861 -31.274450
v -29.688618 45.189861 -31.285954
v -29.115360 45.189861 -31.297457
v -27.417616 45.189861 -31.308517
v -24.660637 45.189861 -31.318712
v -20.950361 45.189861 -31.327646
v -16.429375 45.189861 -31.334980
v -11.271419 45.189861 -31.340429
v -5.674710 45.189861 -31.343784
v 0.145668 69.605392 -31.285954
vt -0.001872 0.562611
vt 0.243799 0.529035
vt 0.007320 0.652645
vt 0.025599 0.737929
vt 0.052264 0.815185
vt 0.086289 0.881445
vt 0.126367 0.934161
vt 0.170958 0.971309
vt 0.218349 0.991461
vt 0.266717 0.993842
vt 0.314205 0.978360
vt 0.358987 0.945612
vt 0.399342 0.896854
vt 0.433720 0.833962
vt 0.460799 0.759351
vt 0.479540 0.675889
vt 0.489221 0.586784
vt 0.489470 0.495460
vt 0.480279 0.405426
vt 0.461999 0.320142
vt 0.435335 0.242886
vt 0.401309 0.176626
vt 0.361231 0.123909
vt 0.316640 0.086761
vt 0.269250 0.066610
vt 0.220881 0.064229
vt 0.173394 0.079710
vt 0.128612 0.112459
vt 0.088256 0.161216
vt 0.053878 0.224109
vt 0.026799 0.298720
vt 0.008059 0.382181
vt 0.253937 0.759734
vt 0.300759 0.755123
vt 0.345781 0.741465
vt 0.387274 0.719287
vt 0.423643 0.689440
vt 0.453490 0.653071
vt 0.475668 0.611578
vt 0.489326 0.566556
vt 0.493937 0.519734
vt 0.489326 0.472913
vt 0.475668 0.427890
vt 0.453490 0.386397
vt 0.423643 0.350029
vt 0.387274 0.320181
vt 0.345781 0.298003
vt 0.300759 0.284346
vt 0.253937 0.279734
vt 0.207116 0.284346
vt 0.162093 0.298003
vt 0.120600 0.320181
vt 0.084231 0.350029
vt 0.054384 0.386397
vt 0.032206 0.427890
vt 0.018549 0.472913
vt 0.013937 0.519734
vt 0.018549 0.566556
vt 0.032206 0.611578
vt 0.054384 0.653071
vt 0.084231 0.689440
vt 0.120600 0.719287
vt 0.162093 0.741465
vt 0.207116 0.755123
vt -0.001622 0.471286
vn 0.0002 0.0024 -1.0000
vn 0.0006 0.0025 -1.0000
vn 0.0011 0.0027 -1.0000
vn 0.0016 0.0031 -1.0000
vn 0.0024 0.0038 -1.0000
vn 0.0037 0.0051 -1.0000
vn 0.0065 0.0083 -0.9999
vn 0.0201 0.0245 -0.9995
vn 0.0201 0.0245 0.9995
vn 0.0065 0.0083 0.9999
vn 0.0037 0.0051 1.0000
vn 0.0024 0.0038 1.0000
vn 0.0016 0.0031 1.0000
vn 0.0011 0.0027 1.0000
vn 0.0006 0.0025 1.0000
vn 0.0002 0.0024 1.0000
vn -0.0002 0.0024 1.0000
vn -0.0006 0.0025 1.0000
vn -0.0011 0.0027 1.0000
vn -0.0016 0.0031 1.0000
vn -0.0024 0.0038 1.0000
vn -0.0037 0.0051 1.0000
vn -0.0065 0.0083 0.9999
vn -0.0201 0.0245 0.9995
vn -0.0201 0.0245 -0.9995
vn -0.0065 0.0083 -0.9999
vn -0.0037 0.0051 -1.0000
vn -0.0024 0.0038 -1.0000
vn -0.0016 0.0031 -1.0000
vn -0.0011 0.0027 -1.0000
vn 0.0000 -1.0000 -0.0000
vn -0.0006 0.0025 -1.0000
vn -0.0002 0.0024 -1.0000
usemtl Material.002
s off
f 294/306/22 326/307/22 295/308/22
f 295/308/23 326/307/23 296/309/23
f 296/309/24 326/307/24 297/310/24
f 297/310/25 326/307/25 298/311/25
f 298/311/26 326/307/26 299/312/26
f 299/312/27 326/307/27 300/313/27
f 300/313/28 326/307/28 301/314/28
f 301/314/29 326/307/29 302/315/29
f 302/315/30 326/307/30 303/316/30
f 303/316/31 326/307/31 304/317/31
f 304/317/32 326/307/32 305/318/32
f 305/318/33 326/307/33 306/319/33
f 306/319/34 326/307/34 307/320/34
f 307/320/35 326/307/35 308/321/35
f 308/321/36 326/307/36 309/322/36
f 309/322/37 326/307/37 310/323/37
f 310/323/38 326/307/38 311/324/38
f 311/324/39 326/307/39 312/325/39
f 312/325/40 326/307/40 313/326/40
f 313/326/41 326/307/41 314/327/41
f 314/327/42 326/307/42 315/328/42
f 315/328/43 326/307/43 316/329/43
f 316/329/44 326/307/44 317/330/44
f 317/330/45 326/307/45 318/331/45
f 318/331/46 326/307/46 319/332/46
f 319/332/47 326/307/47 320/333/47
f 320/333/48 326/307/48 321/334/48
f 321/334/49 326/307/49 322/335/49
f 322/335/50 326/307/50 323/336/50
f 323/336/51 326/307/51 324/337/51
f 294/338/52 295/339/52 296/340/52 297/341/52 298/342/52 299/343/52 300/344/52 301/345/52 302/346/52 303/347/52 304/348/52 305/349/52 306/350/52 307/351/52 308/352/52 309/353/52 310/354/52 311/355/52 312/356/52 313/357/52 314/358/52 315/359/52 316/360/52 317/361/52 318/362/52 319/363/52 320/364/52 321/365/52 322/366/52 323/367/52 324/368/52 325/369/52
f 324/337/53 326/307/53 325/370/53
f 325/370/54 326/307/54 294/306/54
