# Blender v2.93.5 OBJ File: ''
# www.blender.org
mtllib CelesticTownHouse.mtl
o CelesticTownHouse
v 15.932610 5.039570 -7.342201
v 15.815351 5.039574 -28.341873
v 15.815355 37.039570 -28.341869
v 15.932615 37.039566 -7.342196
v 18.150345 -0.960437 31.646021
v 17.787399 -0.960427 -33.352966
v -22.211977 -0.960420 -33.129612
v -21.849031 -0.960430 31.869373
v 17.077772 0.039565 18.651806
v 17.077774 8.039565 18.651808
v 17.094522 0.039564 21.651760
v 17.094524 8.039564 21.651762
v 17.128025 0.039563 27.651667
v 17.128027 8.039563 27.651669
v 17.144777 0.039563 30.651619
v 17.144779 8.039563 30.651621
v 16.798582 0.039573 -31.347412
v 16.798584 8.039573 -31.347410
v 16.815334 0.039572 -28.347460
v 16.815336 8.039573 -28.347458
v 16.938177 0.039569 -6.347802
v 16.938179 8.039569 -6.347801
v 16.954929 0.039568 -3.347848
v 16.954929 8.039569 -3.347846
v 22.949265 78.039574 -4.381322
v 22.993935 78.039574 3.618553
v 22.932512 71.039574 -7.381277
v 23.010685 71.039574 6.618505
v 22.960430 65.039574 -2.381356
v 22.982765 65.039574 1.618582
v -24.005333 78.039581 3.880991
v -23.988583 71.039581 6.880943
v -0.993973 78.039574 3.752498
v -0.988941 71.039574 6.752516
v 22.993935 78.039574 3.618553
v 23.010685 71.039574 6.618505
v -24.050003 78.039581 -4.118884
v -24.005333 78.039581 3.880991
v -1.062080 78.039574 -4.247246
v -0.993973 78.039574 3.752498
v 22.949265 78.039574 -4.381322
v 22.993935 78.039574 3.618553
v -24.066755 71.039581 -7.118839
v -24.050003 78.039581 -4.118884
v -1.067114 71.039574 -7.247266
v -1.062080 78.039574 -4.247246
v 22.932512 71.039574 -7.381277
v 22.949265 78.039574 -4.381322
v 19.809710 36.039570 -29.364189
v 16.809757 43.039570 -29.347437
v 19.971638 36.039566 -0.364640
v 16.971687 43.039566 -0.347888
v 20.133568 36.039562 28.634907
v 17.133617 43.039562 28.651659
v 16.809757 43.039570 -29.347437
v 16.971691 64.039574 -0.347884
v 16.971687 43.039566 -0.347888
v 17.133617 43.039562 28.651659
v 3.077990 0.039568 18.729979
v 3.077995 32.039566 18.729984
v 14.077824 32.039562 18.668564
v 14.077820 8.039566 18.668560
v 16.798590 36.039570 -31.347406
v 16.815340 36.039570 -28.347454
v 16.815336 8.039573 -28.347458
v 16.798584 8.039573 -31.347410
v 13.954977 8.039570 -3.331095
v 16.954929 8.039569 -3.347846
v 16.954933 32.039566 -3.347842
v 13.954981 32.039566 -3.331091
v 14.077820 8.039566 18.668560
v 17.077774 8.039565 18.651808
v 17.077772 0.039565 18.651806
v 14.077819 0.039566 18.668558
v -15.854708 0.039569 30.835884
v 13.144839 0.039564 30.673954
v 13.144840 8.039564 30.673956
v -15.854707 8.039569 30.835886
v -16.200895 36.039577 -31.163141
v 12.798651 36.039570 -31.325071
v 12.798646 8.039574 -31.325075
v -16.200901 8.039578 -31.163145
v 17.144779 8.039563 30.651621
v 13.144840 8.039564 30.673956
v 13.144839 0.039564 30.673954
v 17.144777 0.039563 30.651619
v 16.798584 8.039573 -31.347410
v 12.798646 8.039574 -31.325075
v 12.798651 36.039570 -31.325071
v 16.798590 36.039570 -31.347406
v 16.954929 8.039569 -3.347846
v 16.938179 8.039569 -6.347801
v 16.938183 36.039566 -6.347796
v 16.954933 32.039566 -3.347842
v -15.854707 8.039569 30.835886
v -19.854643 8.039569 30.858221
v -19.854645 0.039569 30.858219
v -15.854708 0.039569 30.835884
v -20.200838 8.039578 -31.140810
v -16.200901 8.039578 -31.163145
v -16.200903 0.039579 -31.163147
v -20.200840 0.039579 -31.140812
v 2.955147 0.039571 -3.269675
v 13.954977 8.039570 -3.331095
v 13.954981 32.039566 -3.331091
v 2.955152 32.039570 -3.269670
v 14.077819 0.039566 18.668558
v 13.954975 0.039569 -3.331097
v 2.955147 0.039571 -3.269675
v 3.077990 0.039568 18.729979
v 23.183775 35.539558 37.618015
v 23.150272 30.539562 31.618107
v 22.982765 65.039574 1.618582
v 23.010685 71.039574 6.618505
v 22.759409 35.539574 -38.380795
v 22.932512 71.039574 -7.381277
v 22.960430 65.039574 -2.381356
v 22.792912 30.539570 -32.380894
v 23.183775 35.539558 37.618015
v 23.010685 71.039574 6.618505
v -0.988941 71.039574 6.752516
v -0.815850 35.539562 37.752026
v -0.815850 35.539562 37.752026
v -0.988941 71.039574 6.752516
v -23.988583 71.039581 6.880943
v -23.815493 35.539566 37.880451
v -24.239859 35.539581 -38.118359
v -24.066755 71.039581 -7.118839
v -1.067114 71.039574 -7.247266
v -1.240217 35.539577 -38.246784
v -1.240217 35.539577 -38.246784
v -1.067114 71.039574 -7.247266
v 22.932512 71.039574 -7.381277
v 22.759409 35.539574 -38.380795
v 16.954929 0.039568 -3.347848
v 16.954929 8.039569 -3.347846
v 13.954977 8.039570 -3.331095
v 13.954975 0.039569 -3.331097
v 17.077778 32.039562 18.651812
v 17.077774 8.039565 18.651808
v 14.077820 8.039566 18.668560
v 14.077824 32.039562 18.668564
v 13.144845 36.039562 30.673960
v -15.854702 36.039570 30.835890
v -15.854707 8.039569 30.835886
v 13.144840 8.039564 30.673956
v 12.798645 0.039574 -31.325077
v -16.200903 0.039579 -31.163147
v -16.200901 8.039578 -31.163145
v 12.798646 8.039574 -31.325075
v 13.144845 36.039562 30.673960
v 13.144840 8.039564 30.673956
v 17.144779 8.039563 30.651621
v 17.144783 36.039562 30.651625
v 12.798645 0.039574 -31.325077
v 12.798646 8.039574 -31.325075
v 16.798584 8.039573 -31.347410
v 16.798582 0.039573 -31.347412
v 17.094528 36.039562 21.651766
v 17.094524 8.039564 21.651762
v 17.077774 8.039565 18.651808
v 17.077778 32.039562 18.651812
v 16.938183 36.039566 -6.347796
v 17.094528 36.039562 21.651766
v 17.077778 32.039562 18.651812
v 16.954933 32.039566 -3.347842
v 17.144783 36.039562 30.651625
v 17.144779 8.039563 30.651621
v 17.128027 8.039563 27.651669
v 17.128031 36.039562 27.651672
v -19.854639 36.039570 30.858225
v -19.854643 8.039569 30.858221
v -15.854707 8.039569 30.835886
v -15.854702 36.039570 30.835890
v -20.200834 36.039577 -31.140806
v -16.200895 36.039577 -31.163141
v -16.200901 8.039578 -31.163145
v -20.200838 8.039578 -31.140810
v 17.128031 36.039562 27.651672
v 17.128027 8.039563 27.651669
v 17.094524 8.039564 21.651762
v 17.094528 36.039562 21.651766
v 16.938183 36.039566 -6.347796
v 16.938179 8.039569 -6.347801
v 16.815336 8.039573 -28.347458
v 16.815340 36.039570 -28.347454
v 2.955147 0.039571 -3.269675
v 2.955152 32.039570 -3.269670
v 3.077995 32.039566 18.729984
v 3.077990 0.039568 18.729979
v -24.066755 71.039581 -7.118839
v -23.988583 71.039581 6.880943
v -24.005333 78.039581 3.880991
v -24.050003 78.039581 -4.118884
v 3.077990 0.039568 18.729979
v 14.077820 8.039566 18.668560
v 14.077819 0.039566 18.668558
v 2.955147 0.039571 -3.269675
v 13.954975 0.039569 -3.331097
v 13.954977 8.039570 -3.331095
v 17.787399 -0.960427 -33.352966
v -22.211977 -0.960420 -33.129612
v 22.122364 -0.960438 26.623764
v 18.150345 -0.960437 31.646021
vt -0.937500 -1.937500
vt -0.062500 -1.937500
vt -0.062500 -1.062500
vt -0.937500 -1.062500
vt 0.890625 -0.734375
vt 0.984375 -0.734375
vt 0.984375 -0.640625
vt 0.890625 -0.640625
vt 0.984375 -0.984375
vt 0.984375 -0.890625
vt 0.952148 -0.984375
vt 0.952148 -0.890625
vt 0.915039 -0.984375
vt 0.915039 -0.890625
vt 0.890625 -0.984375
vt 0.890625 -0.890625
vt 0.984375 -0.984375
vt 0.984375 -0.890625
vt 0.962891 -0.984375
vt 0.963867 -0.890625
vt 0.890625 -0.984375
vt 0.890625 -0.890625
vt 0.890625 -0.984375
vt 0.890625 -0.890625
vt 0.468750 -0.031250
vt 0.406250 -0.031250
vt 0.484375 -0.078125
vt 0.390625 -0.078125
vt 0.453125 -0.109375
vt 0.421875 -0.109375
vt 0.875000 -0.234375
vt 0.765625 -0.234375
vt 0.875000 -0.015625
vt 0.765625 -0.015625
vt 0.875000 -0.234375
vt 0.765625 -0.234375
vt 0.984375 -0.234375
vt 0.906250 -0.234375
vt 0.984375 -0.015625
vt 0.906250 -0.015625
vt 0.984375 -0.234375
vt 0.906250 -0.234375
vt 0.765625 -0.234375
vt 0.875000 -0.234375
vt 0.765625 -0.015625
vt 0.875000 -0.015625
vt 0.765625 -0.234375
vt 0.875000 -0.234375
vt 0.406250 -0.984375
vt 0.406250 -0.890625
vt 0.843750 -0.984375
vt 0.843750 -0.890625
vt 0.406250 -0.984375
vt 0.406250 -0.890625
vt 0.015625 -0.859375
vt 0.359375 -0.515625
vt 0.359375 -0.859375
vt 0.015625 -0.859375
vt -0.140625 -0.859375
vt -0.140625 -0.765625
vt -0.218750 -0.765625
vt -0.218750 -0.828125
vt 0.515625 -0.015625
vt 0.609375 -0.015625
vt 0.609375 -0.234375
vt 0.515625 -0.234375
vt 0.734375 -0.234375
vt 0.640625 -0.234375
vt 0.640625 -0.140625
vt 0.734375 -0.140625
vt 0.734375 -0.015625
vt 0.640625 -0.015625
vt 0.640625 -0.109375
vt 0.734375 -0.109375
vt 0.890625 -0.984375
vt 0.984375 -0.984375
vt 0.984375 -0.890625
vt 0.890625 -0.890625
vt 0.453125 -0.140625
vt 0.406250 -0.140625
vt 0.406250 -0.484375
vt 0.453125 -0.484375
vt 0.984375 -0.890625
vt 0.890625 -0.890625
vt 0.890625 -0.984375
vt 0.984375 -0.984375
vt 0.515625 -0.234375
vt 0.609375 -0.234375
vt 0.609375 -0.015625
vt 0.515625 -0.015625
vt 0.609375 -0.234375
vt 0.515625 -0.234375
vt 0.515625 -0.015625
vt 0.609375 -0.015625
vt 0.984375 -0.890625
vt 0.890625 -0.890625
vt 0.890625 -0.984375
vt 0.984375 -0.984375
vt 0.984375 -0.890625
vt 0.890625 -0.890625
vt 0.890625 -0.984375
vt 0.984375 -0.984375
vt -0.140625 -0.859375
vt -0.218750 -0.828125
vt -0.218750 -0.765625
vt -0.140625 -0.765625
vt 0.984375 -0.859375
vt 0.984375 -0.515625
vt 0.765625 -0.515625
vt 0.765625 -0.859375
vt 0.390625 -0.015625
vt 0.390625 -0.109375
vt 0.484375 -0.109375
vt 0.484375 -0.015625
vt 0.484375 -0.015625
vt 0.390625 -0.015625
vt 0.390625 -0.109375
vt 0.484375 -0.109375
vt 0.359375 -0.484375
vt 0.359375 -0.015625
vt 0.015625 -0.015625
vt 0.015625 -0.484375
vt 0.359375 -0.484375
vt 0.359375 -0.015625
vt 0.015625 -0.015625
vt 0.015625 -0.484375
vt 0.359375 -0.484375
vt 0.359375 -0.015625
vt 0.015625 -0.015625
vt 0.015625 -0.484375
vt 0.359375 -0.484375
vt 0.359375 -0.015625
vt 0.015625 -0.015625
vt 0.015625 -0.484375
vt 0.640625 -0.109375
vt 0.640625 -0.015625
vt 0.734375 -0.015625
vt 0.734375 -0.109375
vt 0.640625 -0.140625
vt 0.640625 -0.234375
vt 0.734375 -0.234375
vt 0.734375 -0.140625
vt 0.453125 -0.140625
vt 0.406250 -0.140625
vt 0.406250 -0.484375
vt 0.453125 -0.484375
vt 0.890625 -0.984375
vt 0.984375 -0.984375
vt 0.984375 -0.890625
vt 0.890625 -0.890625
vt 0.515625 -0.015625
vt 0.515625 -0.234375
vt 0.609375 -0.234375
vt 0.609375 -0.015625
vt 0.984375 -0.984375
vt 0.984375 -0.890625
vt 0.890625 -0.890625
vt 0.890625 -0.984375
vt 0.515625 -0.015625
vt 0.515625 -0.234375
vt 0.609375 -0.234375
vt 0.609375 -0.015625
vt 0.609375 -0.046875
vt 0.609375 -0.031250
vt 0.515625 -0.031250
vt 0.515625 -0.046875
vt 0.515625 -0.015625
vt 0.515625 -0.234375
vt 0.609375 -0.234375
vt 0.609375 -0.015625
vt 0.515625 -0.015625
vt 0.515625 -0.234375
vt 0.609375 -0.234375
vt 0.609375 -0.015625
vt 0.609375 -0.015625
vt 0.515625 -0.015625
vt 0.515625 -0.234375
vt 0.609375 -0.234375
vt 0.390625 -0.140625
vt 0.390625 -0.484375
vt 0.484375 -0.484375
vt 0.484375 -0.140625
vt 0.390625 -0.515625
vt 0.390625 -0.859375
vt 0.734375 -0.859375
vt 0.734375 -0.515625
vt -0.140625 -0.859375
vt -0.140625 -0.765625
vt -0.234375 -0.765625
vt -0.234375 -0.859375
vt 0.474609 -0.342773
vt 0.474609 -0.282227
vt 0.474609 -0.282227
vt 0.474609 -0.342773
vt -0.140625 -0.859375
vt -0.218750 -0.828125
vt -0.218750 -0.859375
vt -0.140625 -0.859375
vt -0.218750 -0.859375
vt -0.218750 -0.828125
vn 1.0000 -0.0000 -0.0056
vn 0.0000 1.0000 0.0000
vn 0.0051 0.3939 0.9191
vn -0.0051 0.3939 -0.9191
vn 0.9191 0.3939 -0.0051
vn -0.0056 0.0000 -1.0000
vn 0.0056 -0.0000 1.0000
vn 0.0042 0.6578 0.7532
vn -0.0042 0.6578 -0.7532
vn -1.0000 0.0000 0.0056
usemtl h_mado.001
s 1
f 1/1/1 2/2/1 3/3/1 4/4/1
usemtl h_kage.001
f 5/5/2 6/6/2 7/7/2 8/8/2
usemtl c4_h01
f 9/9/1 10/10/1 11/11/1
f 10/10/1 12/12/1 11/11/1
f 11/11/1 12/12/1 13/13/1
f 12/12/1 14/14/1 13/13/1
f 13/13/1 14/14/1 15/15/1
f 14/14/1 16/16/1 15/15/1
f 17/17/1 18/18/1 19/19/1
f 18/18/1 20/20/1 19/19/1
f 19/19/1 20/20/1 21/21/1
f 20/20/1 22/22/1 21/21/1
f 21/21/1 22/22/1 23/23/1
f 22/22/1 24/24/1 23/23/1
f 25/25/1 26/26/1 27/27/1
f 26/26/1 28/28/1 27/27/1
f 27/27/1 28/28/1 29/29/1
f 28/28/1 30/30/1 29/29/1
f 31/31/3 32/32/3 33/33/3
f 32/32/3 34/34/3 33/33/3
f 33/33/3 34/34/3 35/35/3
f 34/34/3 36/36/3 35/35/3
f 37/37/2 38/38/2 39/39/2
f 38/38/2 40/40/2 39/39/2
f 39/39/2 40/40/2 41/41/2
f 40/40/2 42/42/2 41/41/2
f 43/43/4 44/44/4 45/45/4
f 44/44/4 46/46/4 45/45/4
f 45/45/4 46/46/4 47/47/4
f 46/46/4 48/48/4 47/47/4
f 49/49/5 50/50/5 51/51/5
f 50/50/5 52/52/5 51/51/5
f 51/51/5 52/52/5 53/53/5
f 52/52/5 54/54/5 53/53/5
f 55/55/1 56/56/1 57/57/1
f 56/56/1 58/58/1 57/57/1
f 59/59/6 60/60/6 61/61/6 62/62/6
f 63/63/1 64/64/1 65/65/1 66/66/1
f 67/67/7 68/68/7 69/69/7 70/70/7
f 71/71/6 72/72/6 73/73/6 74/74/6
f 75/75/7 76/76/7 77/77/7 78/78/7
f 79/79/6 80/80/6 81/81/6 82/82/6
f 83/83/7 84/84/7 85/85/7 86/86/7
f 87/87/6 88/88/6 89/89/6 90/90/6
f 91/91/1 92/92/1 93/93/1 94/94/1
f 95/95/7 96/96/7 97/97/7 98/98/7
f 99/99/6 100/100/6 101/101/6 102/102/6
f 103/103/7 104/104/7 105/105/7 106/106/7
f 107/107/2 108/108/2 109/109/2 110/110/2
f 111/111/1 112/112/1 113/113/1 114/114/1
f 115/115/1 116/116/1 117/117/1 118/118/1
f 119/119/8 120/120/8 121/121/8 122/122/8
f 123/123/8 124/124/8 125/125/8 126/126/8
f 127/127/9 128/128/9 129/129/9 130/130/9
f 131/131/9 132/132/9 133/133/9 134/134/9
f 135/135/7 136/136/7 137/137/7 138/138/7
f 139/139/6 140/140/6 141/141/6 142/142/6
f 143/143/7 144/144/7 145/145/7 146/146/7
f 147/147/6 148/148/6 149/149/6 150/150/6
f 151/151/7 152/152/7 153/153/7 154/154/7
f 155/155/6 156/156/6 157/157/6 158/158/6
f 159/159/1 160/160/1 161/161/1 162/162/1
f 163/163/1 164/164/1 165/165/1 166/166/1
f 167/167/1 168/168/1 169/169/1 170/170/1
f 171/171/7 172/172/7 173/173/7 174/174/7
f 175/175/6 176/176/6 177/177/6 178/178/6
f 179/179/1 180/180/1 181/181/1 182/182/1
f 183/183/1 184/184/1 185/185/1 186/186/1
f 187/187/1 188/188/1 189/189/1 190/190/1
f 191/191/10 192/192/10 193/193/10 194/194/10
f 195/195/6 196/196/6 197/197/6
f 198/198/7 199/199/7 200/200/7
l 201 202
l 203 204
o Cube.004
v -19.588785 -0.025150 30.236668
v -19.588785 42.168446 30.236675
v -19.732338 42.168446 30.237476
v -19.732338 -0.025150 30.237469
v -20.073034 42.168453 -30.776943
v -20.073034 -0.025140 -30.776951
v -19.929482 42.168453 -30.777744
v -19.929482 -0.025140 -30.777752
vt 0.503941 0.545953
vt 0.506992 0.850036
vt 0.509345 0.850036
vt 0.506293 0.545953
vt 0.364469 0.548365
vt 0.363830 0.850036
vt 0.509005 0.850036
vt 0.505954 0.552153
vt 0.506293 0.545953
vt 0.509345 0.850036
vt 0.506992 0.850036
vt 0.503941 0.545953
vt 0.505954 0.552153
vt 0.509005 0.850036
vt 0.363830 0.850036
vt 0.364469 0.548365
vt 0.364469 0.553883
vt 0.509054 0.551471
vt 0.509054 0.549118
vt 0.364469 0.551530
vt 0.509054 0.551471
vt 0.364469 0.553883
vt 0.364469 0.551530
vt 0.509054 0.549118
vn 0.0056 -0.0000 1.0000
vn -1.0000 -0.0000 0.0056
vn -0.0056 0.0000 -1.0000
vn 1.0000 -0.0000 -0.0056
vn -0.0000 -1.0000 -0.0000
vn 0.0000 1.0000 0.0000
usemtl Material.010
s off
f 205/201/11 206/202/11 207/203/11 208/204/11
f 208/205/12 207/206/12 209/207/12 210/208/12
f 210/209/13 209/210/13 211/211/13 212/212/13
f 212/213/14 211/214/14 206/215/14 205/216/14
f 208/217/15 210/218/15 212/219/15 205/220/15
f 209/221/16 207/222/16 206/223/16 211/224/16
o Cone.001
v -19.544872 41.958649 -0.195619
v -19.072174 78.820564 -0.198253
v -19.569510 41.958649 -6.234354
v -19.575033 41.958652 -12.041124
v -19.561234 41.958652 -17.392776
v -19.528637 41.958652 -22.083656
v -19.478502 41.958652 -25.933495
v -19.412750 41.958652 -28.794338
v -19.333910 41.958652 -30.556253
v -19.245012 41.958652 -31.151527
v -19.149473 41.958652 -30.557283
v -19.050962 41.958652 -28.796362
v -18.953268 41.958652 -25.936430
v -18.860142 41.958652 -22.087391
v -18.775164 41.958652 -17.397167
v -18.701601 41.958652 -12.046002
v -18.642277 41.958649 -6.239531
v -18.599476 41.958649 -0.200895
v -18.574839 41.958649 5.837834
v -18.569315 41.958649 11.644607
v -18.583115 41.958645 16.996264
v -18.615709 41.958645 21.687140
v -18.665846 41.958645 25.536976
v -18.731598 41.958645 28.397823
v -18.810438 41.958645 30.159739
v -18.899336 41.958645 30.755013
v -18.994875 41.958645 30.160769
v -19.093386 41.958645 28.399843
v -19.191080 41.958645 25.539915
v -19.284206 41.958645 21.690880
v -19.369184 41.958645 17.000654
v -19.442747 41.958649 11.649484
v -19.502071 41.958649 5.843011
vt 0.200784 0.305441
vt 0.200784 0.065441
vt 0.247606 0.300830
vt 0.292628 0.287172
vt 0.334121 0.264994
vt 0.370490 0.235147
vt 0.400337 0.198778
vt 0.422515 0.157285
vt 0.436173 0.112263
vt 0.440784 0.065441
vt 0.436173 0.018620
vt 0.422515 -0.026403
vt 0.400337 -0.067896
vt 0.370490 -0.104264
vt 0.334121 -0.134111
vt 0.292628 -0.156290
vt 0.247606 -0.169947
vt 0.200784 -0.174559
vt 0.153963 -0.169947
vt 0.108940 -0.156290
vt 0.067447 -0.134111
vt 0.031079 -0.104264
vt 0.001232 -0.067896
vt -0.020947 -0.026403
vt -0.034604 0.018620
vt -0.039216 0.065441
vt -0.034604 0.112263
vt -0.020947 0.157285
vt 0.001232 0.198778
vt 0.031079 0.235147
vt 0.067447 0.264994
vt 0.108940 0.287172
vt 0.750000 0.490000
vt 0.796822 0.485388
vt 0.841844 0.471731
vt 0.883337 0.449553
vt 0.919706 0.419706
vt 0.949553 0.383337
vt 0.971731 0.341844
vt 0.985388 0.296822
vt 0.990000 0.250000
vt 0.985388 0.203178
vt 0.971731 0.158156
vt 0.949553 0.116663
vt 0.919706 0.080294
vt 0.883337 0.050447
vt 0.841844 0.028269
vt 0.796822 0.014611
vt 0.750000 0.010000
vt 0.703178 0.014611
vt 0.658156 0.028269
vt 0.616663 0.050447
vt 0.580294 0.080294
vt 0.550447 0.116663
vt 0.528269 0.158156
vt 0.514612 0.203178
vt 0.510000 0.250000
vt 0.514612 0.296822
vt 0.528269 0.341844
vt 0.550447 0.383337
vt 0.580294 0.419706
vt 0.616663 0.449553
vt 0.658156 0.471731
vt 0.703178 0.485389
vt 0.153963 0.300830
vn -0.9999 0.0128 0.0041
vn -0.9999 0.0133 0.0010
vn -0.9999 0.0145 -0.0026
vn -0.9998 0.0165 -0.0069
vn -0.9997 0.0201 -0.0130
vn -0.9994 0.0271 -0.0230
vn -0.9980 0.0439 -0.0447
vn -0.9809 0.1276 -0.1465
vn 0.9792 0.1276 -0.1574
vn 0.9975 0.0439 -0.0558
vn 0.9991 0.0271 -0.0341
vn 0.9995 0.0201 -0.0242
vn 0.9997 0.0165 -0.0181
vn 0.9998 0.0145 -0.0137
vn 0.9999 0.0133 -0.0102
vn 0.9999 0.0128 -0.0071
vn 0.9999 0.0128 -0.0041
vn 0.9999 0.0133 -0.0010
vn 0.9999 0.0145 0.0026
vn 0.9998 0.0165 0.0069
vn 0.9997 0.0201 0.0130
vn 0.9994 0.0271 0.0230
vn 0.9980 0.0439 0.0447
vn 0.9809 0.1276 0.1465
vn -0.9792 0.1276 0.1574
vn -0.9975 0.0439 0.0558
vn -0.9991 0.0271 0.0341
vn -0.9995 0.0201 0.0242
vn -0.9997 0.0165 0.0181
vn -0.9998 0.0145 0.0137
vn -0.0000 -1.0000 -0.0000
vn -0.9999 0.0133 0.0102
vn -0.9999 0.0128 0.0071
usemtl Material.011
s off
f 213/225/17 214/226/17 215/227/17
f 215/227/18 214/226/18 216/228/18
f 216/228/19 214/226/19 217/229/19
f 217/229/20 214/226/20 218/230/20
f 218/230/21 214/226/21 219/231/21
f 219/231/22 214/226/22 220/232/22
f 220/232/23 214/226/23 221/233/23
f 221/233/24 214/226/24 222/234/24
f 222/234/25 214/226/25 223/235/25
f 223/235/26 214/226/26 224/236/26
f 224/236/27 214/226/27 225/237/27
f 225/237/28 214/226/28 226/238/28
f 226/238/29 214/226/29 227/239/29
f 227/239/30 214/226/30 228/240/30
f 228/240/31 214/226/31 229/241/31
f 229/241/32 214/226/32 230/242/32
f 230/242/33 214/226/33 231/243/33
f 231/243/34 214/226/34 232/244/34
f 232/244/35 214/226/35 233/245/35
f 233/245/36 214/226/36 234/246/36
f 234/246/37 214/226/37 235/247/37
f 235/247/38 214/226/38 236/248/38
f 236/248/39 214/226/39 237/249/39
f 237/249/40 214/226/40 238/250/40
f 238/250/41 214/226/41 239/251/41
f 239/251/42 214/226/42 240/252/42
f 240/252/43 214/226/43 241/253/43
f 241/253/44 214/226/44 242/254/44
f 242/254/45 214/226/45 243/255/45
f 243/255/46 214/226/46 244/256/46
f 213/257/47 215/258/47 216/259/47 217/260/47 218/261/47 219/262/47 220/263/47 221/264/47 222/265/47 223/266/47 224/267/47 225/268/47 226/269/47 227/270/47 228/271/47 229/272/47 230/273/47 231/274/47 232/275/47 233/276/47 234/277/47 235/278/47 236/279/47 237/280/47 238/281/47 239/282/47 240/283/47 241/284/47 242/285/47 243/286/47 244/287/47 245/288/47
f 244/256/48 214/226/48 245/289/48
f 245/289/49 214/226/49 213/225/49
