# Blender v2.93.5 OBJ File: ''
# www.blender.org
mtllib CelesticTownHouse.mtl
o Cube
v -1.033623 1.000000 -1.247371
v -1.033623 -1.000000 -1.247371
v 0.966345 1.000000 -1.258539
v 0.966345 -1.000000 -1.258539
v -1.022456 1.000000 0.752597
v -1.022456 -1.000000 0.752597
v 0.977513 1.000000 0.741430
v 0.977513 -1.000000 0.741430
vt 0.625000 0.500000
vt 0.875000 0.500000
vt 0.875000 0.750000
vt 0.625000 0.750000
vt 0.375000 0.750000
vt 0.625000 1.000000
vt 0.375000 1.000000
vt 0.375000 0.000000
vt 0.625000 0.000000
vt 0.625000 0.250000
vt 0.375000 0.250000
vt 0.125000 0.500000
vt 0.375000 0.500000
vt 0.125000 0.750000
vn 0.0000 1.0000 0.0000
vn 1.0000 0.0000 -0.0056
vn 0.0056 0.0000 1.0000
vn 0.0000 -1.0000 0.0000
vn -0.0056 0.0000 -1.0000
vn -1.0000 0.0000 0.0056
usemtl Material
s off
f 1/1/1 5/2/1 7/3/1 3/4/1
f 4/5/2 3/4/2 7/6/2 8/7/2
f 8/8/3 7/9/3 5/10/3 6/11/3
f 6/12/4 2/13/4 4/5/4 8/14/4
f 2/13/5 1/1/5 3/4/5 4/5/5
f 6/11/6 5/10/6 1/1/6 2/13/6
o CelesticTownHouse
v 15.932610 6.999998 -7.342202
v 15.815351 6.999998 -28.341875
v 15.815355 38.999996 -28.341875
v 15.932615 38.999996 -7.342202
v 17.787399 0.999997 -33.352966
v -22.211977 1.000004 -33.129612
v 18.150345 0.999997 31.646021
v 17.787399 0.999997 -33.352966
v -22.211977 1.000004 -33.129612
v -21.849031 1.000004 31.869373
v 17.787399 0.999997 -33.352966
v 22.122364 0.999996 26.623764
v 18.150345 0.999997 31.646021
v 17.077772 1.999997 18.651806
v 17.077774 9.999997 18.651806
v 17.094522 1.999997 21.651760
v 17.094524 9.999997 21.651760
v 17.128025 1.999997 27.651667
v 17.128027 9.999997 27.651667
v 17.144777 1.999997 30.651619
v 17.144779 9.999997 30.651619
v 16.798582 1.999997 -31.347412
v 16.798584 9.999997 -31.347412
v 16.815334 1.999997 -28.347460
v 16.815336 9.999997 -28.347460
v 16.938177 1.999997 -6.347802
v 16.938179 9.999997 -6.347802
v 16.954929 1.999997 -3.347848
v 16.954929 9.999997 -3.347848
v 22.949265 80.000000 -4.381335
v 22.993935 80.000000 3.618540
v 22.932512 73.000000 -7.381289
v 23.010685 73.000000 6.618493
v 22.960430 67.000000 -2.381367
v 22.982765 67.000000 1.618571
v -24.005333 80.000008 3.880978
v -23.988583 73.000008 6.880931
v -0.993973 80.000000 3.752485
v -0.988941 73.000000 6.752504
v 22.993935 80.000000 3.618540
v 23.010685 73.000000 6.618493
v -24.050003 80.000008 -4.118897
v -24.005333 80.000008 3.880978
v -1.062080 80.000000 -4.247259
v -0.993973 80.000000 3.752485
v 22.949265 80.000000 -4.381335
v 22.993935 80.000000 3.618540
v -24.066755 73.000008 -7.118851
v -24.050003 80.000008 -4.118897
v -1.067114 73.000000 -7.247278
v -1.062080 80.000000 -4.247259
v 22.932512 73.000000 -7.381289
v 22.949265 80.000000 -4.381335
v 19.809710 37.999996 -29.364195
v 16.809757 44.999996 -29.347445
v 19.971638 37.999996 -0.364646
v 16.971687 44.999996 -0.347895
v 20.133568 37.999996 28.634901
v 17.133617 44.999996 28.651651
v 16.809757 44.999996 -29.347445
v 16.971691 66.000000 -0.347895
v 16.971687 44.999996 -0.347895
v 17.133617 44.999996 28.651651
v 3.077990 2.000000 18.729979
v 3.077995 34.000000 18.729979
v 14.077824 33.999996 18.668558
v 14.077820 9.999998 18.668558
v 16.798590 37.999996 -31.347412
v 16.815340 37.999996 -28.347460
v 16.815336 9.999997 -28.347460
v 16.798584 9.999997 -31.347412
v 13.954977 9.999998 -3.331097
v 16.954929 9.999997 -3.347848
v 16.954933 33.999996 -3.347848
v 13.954981 33.999996 -3.331097
v 14.077820 9.999998 18.668558
v 17.077774 9.999997 18.651806
v 17.077772 1.999997 18.651806
v 14.077819 1.999998 18.668558
v -15.854708 2.000003 30.835884
v 13.144839 1.999998 30.673954
v 13.144840 9.999998 30.673954
v -15.854707 10.000003 30.835884
v -16.200895 38.000004 -31.163147
v 12.798651 37.999996 -31.325077
v 12.798646 9.999998 -31.325077
v -16.200901 10.000003 -31.163147
v 17.144779 9.999997 30.651619
v 13.144840 9.999998 30.673954
v 13.144839 1.999998 30.673954
v 17.144777 1.999997 30.651619
v 16.798584 9.999997 -31.347412
v 12.798646 9.999998 -31.325077
v 12.798651 37.999996 -31.325077
v 16.798590 37.999996 -31.347412
v 16.954929 9.999997 -3.347848
v 16.938179 9.999997 -6.347802
v 16.938183 37.999996 -6.347802
v 16.954933 33.999996 -3.347848
v -15.854707 10.000003 30.835884
v -19.854643 10.000003 30.858219
v -19.854645 2.000003 30.858219
v -15.854708 2.000003 30.835884
v -20.200838 10.000003 -31.140812
v -16.200901 10.000003 -31.163147
v -16.200903 2.000003 -31.163147
v -20.200840 2.000003 -31.140812
v 2.955147 2.000000 -3.269675
v 13.954977 9.999998 -3.331097
v 13.954981 33.999996 -3.331097
v 2.955152 34.000000 -3.269675
v 14.077819 1.999998 18.668558
v 13.954975 1.999998 -3.331097
v 2.955147 2.000000 -3.269675
v 3.077990 2.000000 18.729979
v 23.183775 37.499996 37.618008
v 23.150272 32.499996 31.618101
v 22.982765 67.000000 1.618571
v 23.010685 73.000000 6.618493
v 22.759409 37.499996 -38.380802
v 22.932512 73.000000 -7.381289
v 22.960430 67.000000 -2.381367
v 22.792912 32.499996 -32.380898
v 23.183775 37.499996 37.618008
v 23.010685 73.000000 6.618493
v -0.988941 73.000000 6.752504
v -0.815850 37.500000 37.752018
v -0.815850 37.500000 37.752018
v -0.988941 73.000000 6.752504
v -23.988583 73.000008 6.880931
v -23.815493 37.500004 37.880444
v -24.239859 37.500004 -38.118366
v -24.066755 73.000008 -7.118851
v -1.067114 73.000000 -7.247278
v -1.240217 37.500000 -38.246792
v -1.240217 37.500000 -38.246792
v -1.067114 73.000000 -7.247278
v 22.932512 73.000000 -7.381289
v 22.759409 37.499996 -38.380802
v 16.954929 1.999997 -3.347848
v 16.954929 9.999997 -3.347848
v 13.954977 9.999998 -3.331097
v 13.954975 1.999998 -3.331097
v 17.077778 33.999996 18.651806
v 17.077774 9.999997 18.651806
v 14.077820 9.999998 18.668558
v 14.077824 33.999996 18.668558
v 13.144845 37.999996 30.673954
v -15.854702 38.000004 30.835884
v -15.854707 10.000003 30.835884
v 13.144840 9.999998 30.673954
v 12.798645 1.999998 -31.325077
v -16.200903 2.000003 -31.163147
v -16.200901 10.000003 -31.163147
v 12.798646 9.999998 -31.325077
v 13.144845 37.999996 30.673954
v 13.144840 9.999998 30.673954
v 17.144779 9.999997 30.651619
v 17.144783 37.999996 30.651619
v 12.798645 1.999998 -31.325077
v 12.798646 9.999998 -31.325077
v 16.798584 9.999997 -31.347412
v 16.798582 1.999997 -31.347412
v 17.094528 37.999996 21.651760
v 17.094524 9.999997 21.651760
v 17.077774 9.999997 18.651806
v 17.077778 33.999996 18.651806
v 16.938183 37.999996 -6.347802
v 17.094528 37.999996 21.651760
v 17.077778 33.999996 18.651806
v 16.954933 33.999996 -3.347848
v 17.144783 37.999996 30.651619
v 17.144779 9.999997 30.651619
v 17.128027 9.999997 27.651667
v 17.128031 37.999996 27.651667
v -19.854639 38.000004 30.858219
v -19.854643 10.000003 30.858219
v -15.854707 10.000003 30.835884
v -15.854702 38.000004 30.835884
v -20.200834 38.000004 -31.140812
v -16.200895 38.000004 -31.163147
v -16.200901 10.000003 -31.163147
v -20.200838 10.000003 -31.140812
v 17.128031 37.999996 27.651667
v 17.128027 9.999997 27.651667
v 17.094524 9.999997 21.651760
v 17.094528 37.999996 21.651760
v 16.938183 37.999996 -6.347802
v 16.938179 9.999997 -6.347802
v 16.815336 9.999997 -28.347460
v 16.815340 37.999996 -28.347460
v 2.955147 2.000000 -3.269675
v 2.955152 34.000000 -3.269675
v 3.077995 34.000000 18.729979
v 3.077990 2.000000 18.729979
v -24.066755 73.000008 -7.118851
v -23.988583 73.000008 6.880931
v -24.005333 80.000008 3.880978
v -24.050003 80.000008 -4.118897
v 3.077990 2.000000 18.729979
v 14.077820 9.999998 18.668558
v 14.077819 1.999998 18.668558
v 2.955147 2.000000 -3.269675
v 13.954975 1.999998 -3.331097
v 13.954977 9.999998 -3.331097
vt -0.937500 -1.937500
vt -0.062500 -1.937500
vt -0.062500 -1.062500
vt -0.937500 -1.062500
vt 0.890625 -0.734375
vt 0.984375 -0.734375
vt 0.984375 -0.640625
vt 0.890625 -0.640625
vt 0.984375 -0.984375
vt 0.984375 -0.890625
vt 0.952148 -0.984375
vt 0.952148 -0.890625
vt 0.915039 -0.984375
vt 0.915039 -0.890625
vt 0.890625 -0.984375
vt 0.890625 -0.890625
vt 0.984375 -0.984375
vt 0.984375 -0.890625
vt 0.962891 -0.984375
vt 0.963867 -0.890625
vt 0.890625 -0.984375
vt 0.890625 -0.890625
vt 0.890625 -0.984375
vt 0.890625 -0.890625
vt 0.468750 -0.031250
vt 0.406250 -0.031250
vt 0.484375 -0.078125
vt 0.390625 -0.078125
vt 0.453125 -0.109375
vt 0.421875 -0.109375
vt 0.875000 -0.234375
vt 0.765625 -0.234375
vt 0.875000 -0.015625
vt 0.765625 -0.015625
vt 0.875000 -0.234375
vt 0.765625 -0.234375
vt 0.984375 -0.234375
vt 0.906250 -0.234375
vt 0.984375 -0.015625
vt 0.906250 -0.015625
vt 0.984375 -0.234375
vt 0.906250 -0.234375
vt 0.765625 -0.234375
vt 0.875000 -0.234375
vt 0.765625 -0.015625
vt 0.875000 -0.015625
vt 0.765625 -0.234375
vt 0.875000 -0.234375
vt 0.406250 -0.984375
vt 0.406250 -0.890625
vt 0.843750 -0.984375
vt 0.843750 -0.890625
vt 0.406250 -0.984375
vt 0.406250 -0.890625
vt 0.015625 -0.859375
vt 0.359375 -0.515625
vt 0.359375 -0.859375
vt 0.015625 -0.859375
vt -0.140625 -0.859375
vt -0.140625 -0.765625
vt -0.218750 -0.765625
vt -0.218750 -0.828125
vt 0.515625 -0.015625
vt 0.609375 -0.015625
vt 0.609375 -0.234375
vt 0.515625 -0.234375
vt 0.734375 -0.234375
vt 0.640625 -0.234375
vt 0.640625 -0.140625
vt 0.734375 -0.140625
vt 0.734375 -0.015625
vt 0.640625 -0.015625
vt 0.640625 -0.109375
vt 0.734375 -0.109375
vt 0.890625 -0.984375
vt 0.984375 -0.984375
vt 0.984375 -0.890625
vt 0.890625 -0.890625
vt 0.453125 -0.140625
vt 0.406250 -0.140625
vt 0.406250 -0.484375
vt 0.453125 -0.484375
vt 0.984375 -0.890625
vt 0.890625 -0.890625
vt 0.890625 -0.984375
vt 0.984375 -0.984375
vt 0.515625 -0.234375
vt 0.609375 -0.234375
vt 0.609375 -0.015625
vt 0.515625 -0.015625
vt 0.609375 -0.234375
vt 0.515625 -0.234375
vt 0.515625 -0.015625
vt 0.609375 -0.015625
vt 0.984375 -0.890625
vt 0.890625 -0.890625
vt 0.890625 -0.984375
vt 0.984375 -0.984375
vt 0.984375 -0.890625
vt 0.890625 -0.890625
vt 0.890625 -0.984375
vt 0.984375 -0.984375
vt -0.140625 -0.859375
vt -0.218750 -0.828125
vt -0.218750 -0.765625
vt -0.140625 -0.765625
vt 0.984375 -0.859375
vt 0.984375 -0.515625
vt 0.765625 -0.515625
vt 0.765625 -0.859375
vt 0.390625 -0.015625
vt 0.390625 -0.109375
vt 0.484375 -0.109375
vt 0.484375 -0.015625
vt 0.484375 -0.015625
vt 0.390625 -0.015625
vt 0.390625 -0.109375
vt 0.484375 -0.109375
vt 0.359375 -0.484375
vt 0.359375 -0.015625
vt 0.015625 -0.015625
vt 0.015625 -0.484375
vt 0.359375 -0.484375
vt 0.359375 -0.015625
vt 0.015625 -0.015625
vt 0.015625 -0.484375
vt 0.359375 -0.484375
vt 0.359375 -0.015625
vt 0.015625 -0.015625
vt 0.015625 -0.484375
vt 0.359375 -0.484375
vt 0.359375 -0.015625
vt 0.015625 -0.015625
vt 0.015625 -0.484375
vt 0.640625 -0.109375
vt 0.640625 -0.015625
vt 0.734375 -0.015625
vt 0.734375 -0.109375
vt 0.640625 -0.140625
vt 0.640625 -0.234375
vt 0.734375 -0.234375
vt 0.734375 -0.140625
vt 0.453125 -0.140625
vt 0.406250 -0.140625
vt 0.406250 -0.484375
vt 0.453125 -0.484375
vt 0.890625 -0.984375
vt 0.984375 -0.984375
vt 0.984375 -0.890625
vt 0.890625 -0.890625
vt 0.515625 -0.015625
vt 0.515625 -0.234375
vt 0.609375 -0.234375
vt 0.609375 -0.015625
vt 0.984375 -0.984375
vt 0.984375 -0.890625
vt 0.890625 -0.890625
vt 0.890625 -0.984375
vt 0.515625 -0.015625
vt 0.515625 -0.234375
vt 0.609375 -0.234375
vt 0.609375 -0.015625
vt 0.609375 -0.046875
vt 0.609375 -0.031250
vt 0.515625 -0.031250
vt 0.515625 -0.046875
vt 0.515625 -0.015625
vt 0.515625 -0.234375
vt 0.609375 -0.234375
vt 0.609375 -0.015625
vt 0.515625 -0.015625
vt 0.515625 -0.234375
vt 0.609375 -0.234375
vt 0.609375 -0.015625
vt 0.609375 -0.015625
vt 0.515625 -0.015625
vt 0.515625 -0.234375
vt 0.609375 -0.234375
vt 0.390625 -0.140625
vt 0.390625 -0.484375
vt 0.484375 -0.484375
vt 0.484375 -0.140625
vt 0.390625 -0.515625
vt 0.390625 -0.859375
vt 0.734375 -0.859375
vt 0.734375 -0.515625
vt -0.140625 -0.859375
vt -0.140625 -0.765625
vt -0.234375 -0.765625
vt -0.234375 -0.859375
vt 0.474609 -0.342773
vt 0.474609 -0.282227
vt 0.474609 -0.282227
vt 0.474609 -0.342773
vt -0.140625 -0.859375
vt -0.218750 -0.828125
vt -0.218750 -0.859375
vt -0.140625 -0.859375
vt -0.218750 -0.859375
vt -0.218750 -0.828125
vn 1.0000 -0.0000 -0.0056
vn 0.0000 1.0000 -0.0000
vn 0.0051 0.3939 0.9191
vn -0.0051 0.3939 -0.9191
vn 0.9191 0.3939 -0.0051
vn -0.0056 0.0000 -1.0000
vn 0.0056 -0.0000 1.0000
vn 0.0042 0.6578 0.7532
vn -0.0042 0.6578 -0.7532
vn -1.0000 0.0000 0.0056
usemtl h_mado
s 1
f 9/15/7 10/16/7 11/17/7 12/18/7
usemtl h_kage
f 15/19/8 16/20/8 17/21/8 18/22/8
usemtl c4_h01
f 22/23/7 23/24/7 24/25/7
f 23/24/7 25/26/7 24/25/7
f 24/25/7 25/26/7 26/27/7
f 25/26/7 27/28/7 26/27/7
f 26/27/7 27/28/7 28/29/7
f 27/28/7 29/30/7 28/29/7
f 30/31/7 31/32/7 32/33/7
f 31/32/7 33/34/7 32/33/7
f 32/33/7 33/34/7 34/35/7
f 33/34/7 35/36/7 34/35/7
f 34/35/7 35/36/7 36/37/7
f 35/36/7 37/38/7 36/37/7
f 38/39/7 39/40/7 40/41/7
f 39/40/7 41/42/7 40/41/7
f 40/41/7 41/42/7 42/43/7
f 41/42/7 43/44/7 42/43/7
f 44/45/9 45/46/9 46/47/9
f 45/46/9 47/48/9 46/47/9
f 46/47/9 47/48/9 48/49/9
f 47/48/9 49/50/9 48/49/9
f 50/51/8 51/52/8 52/53/8
f 51/52/8 53/54/8 52/53/8
f 52/53/8 53/54/8 54/55/8
f 53/54/8 55/56/8 54/55/8
f 56/57/10 57/58/10 58/59/10
f 57/58/10 59/60/10 58/59/10
f 58/59/10 59/60/10 60/61/10
f 59/60/10 61/62/10 60/61/10
f 62/63/11 63/64/11 64/65/11
f 63/64/11 65/66/11 64/65/11
f 64/65/11 65/66/11 66/67/11
f 65/66/11 67/68/11 66/67/11
f 68/69/7 69/70/7 70/71/7
f 69/70/7 71/72/7 70/71/7
f 72/73/12 73/74/12 74/75/12 75/76/12
f 76/77/7 77/78/7 78/79/7 79/80/7
f 80/81/13 81/82/13 82/83/13 83/84/13
f 84/85/12 85/86/12 86/87/12 87/88/12
f 88/89/13 89/90/13 90/91/13 91/92/13
f 92/93/12 93/94/12 94/95/12 95/96/12
f 96/97/13 97/98/13 98/99/13 99/100/13
f 100/101/12 101/102/12 102/103/12 103/104/12
f 104/105/7 105/106/7 106/107/7 107/108/7
f 108/109/13 109/110/13 110/111/13 111/112/13
f 112/113/12 113/114/12 114/115/12 115/116/12
f 116/117/13 117/118/13 118/119/13 119/120/13
f 120/121/8 121/122/8 122/123/8 123/124/8
f 124/125/7 125/126/7 126/127/7 127/128/7
f 128/129/7 129/130/7 130/131/7 131/132/7
f 132/133/14 133/134/14 134/135/14 135/136/14
f 136/137/14 137/138/14 138/139/14 139/140/14
f 140/141/15 141/142/15 142/143/15 143/144/15
f 144/145/15 145/146/15 146/147/15 147/148/15
f 148/149/13 149/150/13 150/151/13 151/152/13
f 152/153/12 153/154/12 154/155/12 155/156/12
f 156/157/13 157/158/13 158/159/13 159/160/13
f 160/161/12 161/162/12 162/163/12 163/164/12
f 164/165/13 165/166/13 166/167/13 167/168/13
f 168/169/12 169/170/12 170/171/12 171/172/12
f 172/173/7 173/174/7 174/175/7 175/176/7
f 176/177/7 177/178/7 178/179/7 179/180/7
f 180/181/7 181/182/7 182/183/7 183/184/7
f 184/185/13 185/186/13 186/187/13 187/188/13
f 188/189/12 189/190/12 190/191/12 191/192/12
f 192/193/7 193/194/7 194/195/7 195/196/7
f 196/197/7 197/198/7 198/199/7 199/200/7
f 200/201/7 201/202/7 202/203/7 203/204/7
f 204/205/16 205/206/16 206/207/16 207/208/16
f 208/209/12 209/210/12 210/211/12
f 211/212/13 212/213/13 213/214/13
l 13 14
l 20 21
o Cube.001
v -19.588785 1.935284 30.236668
v -19.588785 44.128880 30.236668
v -19.732338 1.935284 30.237469
v -19.732338 44.128880 30.237469
v -19.929482 1.935284 -30.777752
v -19.929482 44.128880 -30.777752
v -20.073034 1.935284 -30.776951
v -20.073034 44.128880 -30.776951
vt 0.503941 0.545953
vt 0.506992 0.850036
vt 0.509345 0.850036
vt 0.506293 0.545953
vt 0.364469 0.548365
vt 0.363830 0.850036
vt 0.509005 0.850036
vt 0.505954 0.552153
vt 0.506293 0.545953
vt 0.509345 0.850036
vt 0.506992 0.850036
vt 0.503941 0.545953
vt 0.505954 0.552153
vt 0.509005 0.850036
vt 0.363830 0.850036
vt 0.364469 0.548365
vt 0.364469 0.553883
vt 0.509054 0.551471
vt 0.509054 0.549118
vt 0.364469 0.551530
vt 0.509054 0.551471
vt 0.364469 0.553883
vt 0.364469 0.551530
vt 0.509054 0.549118
vn 0.0056 0.0000 1.0000
vn -1.0000 0.0000 0.0056
vn -0.0056 0.0000 -1.0000
vn 1.0000 0.0000 -0.0056
vn 0.0000 -1.0000 0.0000
vn 0.0000 1.0000 0.0000
usemtl Material.001
s off
f 214/215/17 215/216/17 217/217/17 216/218/17
f 216/219/18 217/220/18 221/221/18 220/222/18
f 220/223/19 221/224/19 219/225/19 218/226/19
f 218/227/20 219/228/20 215/229/20 214/230/20
f 216/231/21 220/232/21 218/233/21 214/234/21
f 221/235/22 217/236/22 215/237/22 219/238/22
o Cone
v -19.544872 43.919079 -0.195626
v -19.569510 43.919079 -6.234361
v -19.575033 43.919079 -12.041132
v -19.561234 43.919079 -17.392784
v -19.528637 43.919079 -22.083664
v -19.478502 43.919079 -25.933502
v -19.412750 43.919079 -28.794346
v -19.333910 43.919079 -30.556261
v -19.245012 43.919079 -31.151535
v -19.149473 43.919079 -30.557291
v -19.050962 43.919079 -28.796370
v -18.953268 43.919079 -25.936438
v -18.860142 43.919079 -22.087399
v -18.775164 43.919079 -17.397175
v -18.701601 43.919079 -12.046010
v -18.642277 43.919079 -6.239538
v -18.599476 43.919079 -0.200902
v -18.574839 43.919079 5.837827
v -18.569315 43.919079 11.644599
v -18.583115 43.919079 16.996256
v -18.615709 43.919079 21.687132
v -18.665846 43.919079 25.536968
v -18.731598 43.919079 28.397816
v -18.810438 43.919079 30.159731
v -18.899336 43.919079 30.755005
v -18.994875 43.919079 30.160761
v -19.093386 43.919079 28.399836
v -19.191080 43.919079 25.539907
v -19.284206 43.919079 21.690872
v -19.369184 43.919079 17.000647
v -19.442747 43.919079 11.649476
v -19.502071 43.919079 5.843004
v -19.072174 80.780991 -0.198266
vt 0.200784 0.305441
vt 0.200784 0.065441
vt 0.247606 0.300830
vt 0.292628 0.287172
vt 0.334121 0.264994
vt 0.370490 0.235147
vt 0.400337 0.198778
vt 0.422515 0.157285
vt 0.436173 0.112263
vt 0.440784 0.065441
vt 0.436173 0.018620
vt 0.422515 -0.026403
vt 0.400337 -0.067896
vt 0.370490 -0.104264
vt 0.334121 -0.134111
vt 0.292628 -0.156290
vt 0.247606 -0.169947
vt 0.200784 -0.174559
vt 0.153963 -0.169947
vt 0.108940 -0.156290
vt 0.067447 -0.134111
vt 0.031079 -0.104264
vt 0.001232 -0.067896
vt -0.020947 -0.026403
vt -0.034604 0.018620
vt -0.039216 0.065441
vt -0.034604 0.112263
vt -0.020947 0.157285
vt 0.001232 0.198778
vt 0.031079 0.235147
vt 0.067447 0.264994
vt 0.108940 0.287172
vt 0.750000 0.490000
vt 0.796822 0.485388
vt 0.841844 0.471731
vt 0.883337 0.449553
vt 0.919706 0.419706
vt 0.949553 0.383337
vt 0.971731 0.341844
vt 0.985388 0.296822
vt 0.990000 0.250000
vt 0.985388 0.203178
vt 0.971731 0.158156
vt 0.949553 0.116663
vt 0.919706 0.080294
vt 0.883337 0.050447
vt 0.841844 0.028269
vt 0.796822 0.014611
vt 0.750000 0.010000
vt 0.703178 0.014611
vt 0.658156 0.028269
vt 0.616663 0.050447
vt 0.580294 0.080294
vt 0.550447 0.116663
vt 0.528269 0.158156
vt 0.514612 0.203178
vt 0.510000 0.250000
vt 0.514612 0.296822
vt 0.528269 0.341844
vt 0.550447 0.383337
vt 0.580294 0.419706
vt 0.616663 0.449553
vt 0.658156 0.471731
vt 0.703178 0.485389
vt 0.153963 0.300830
vn -0.9999 0.0128 0.0041
vn -0.9999 0.0133 0.0010
vn -0.9999 0.0145 -0.0026
vn -0.9998 0.0165 -0.0069
vn -0.9997 0.0201 -0.0130
vn -0.9994 0.0271 -0.0230
vn -0.9980 0.0439 -0.0447
vn -0.9809 0.1276 -0.1465
vn 0.9792 0.1276 -0.1574
vn 0.9975 0.0439 -0.0558
vn 0.9991 0.0271 -0.0341
vn 0.9995 0.0201 -0.0242
vn 0.9997 0.0165 -0.0181
vn 0.9998 0.0145 -0.0137
vn 0.9999 0.0133 -0.0102
vn 0.9999 0.0128 -0.0071
vn 0.9999 0.0128 -0.0041
vn 0.9999 0.0133 -0.0010
vn 0.9999 0.0145 0.0026
vn 0.9998 0.0165 0.0069
vn 0.9997 0.0201 0.0130
vn 0.9994 0.0271 0.0230
vn 0.9980 0.0439 0.0447
vn 0.9809 0.1276 0.1465
vn -0.9792 0.1276 0.1574
vn -0.9975 0.0439 0.0558
vn -0.9991 0.0271 0.0341
vn -0.9995 0.0201 0.0242
vn -0.9997 0.0165 0.0181
vn -0.9998 0.0145 0.0137
vn 0.0000 -1.0000 -0.0000
vn -0.9999 0.0133 0.0102
vn -0.9999 0.0128 0.0071
usemtl Material.002
s off
f 222/239/23 254/240/23 223/241/23
f 223/241/24 254/240/24 224/242/24
f 224/242/25 254/240/25 225/243/25
f 225/243/26 254/240/26 226/244/26
f 226/244/27 254/240/27 227/245/27
f 227/245/28 254/240/28 228/246/28
f 228/246/29 254/240/29 229/247/29
f 229/247/30 254/240/30 230/248/30
f 230/248/31 254/240/31 231/249/31
f 231/249/32 254/240/32 232/250/32
f 232/250/33 254/240/33 233/251/33
f 233/251/34 254/240/34 234/252/34
f 234/252/35 254/240/35 235/253/35
f 235/253/36 254/240/36 236/254/36
f 236/254/37 254/240/37 237/255/37
f 237/255/38 254/240/38 238/256/38
f 238/256/39 254/240/39 239/257/39
f 239/257/40 254/240/40 240/258/40
f 240/258/41 254/240/41 241/259/41
f 241/259/42 254/240/42 242/260/42
f 242/260/43 254/240/43 243/261/43
f 243/261/44 254/240/44 244/262/44
f 244/262/45 254/240/45 245/263/45
f 245/263/46 254/240/46 246/264/46
f 246/264/47 254/240/47 247/265/47
f 247/265/48 254/240/48 248/266/48
f 248/266/49 254/240/49 249/267/49
f 249/267/50 254/240/50 250/268/50
f 250/268/51 254/240/51 251/269/51
f 251/269/52 254/240/52 252/270/52
f 222/271/53 223/272/53 224/273/53 225/274/53 226/275/53 227/276/53 228/277/53 229/278/53 230/279/53 231/280/53 232/281/53 233/282/53 234/283/53 235/284/53 236/285/53 237/286/53 238/287/53 239/288/53 240/289/53 241/290/53 242/291/53 243/292/53 244/293/53 245/294/53 246/295/53 247/296/53 248/297/53 249/298/53 250/299/53 251/300/53 252/301/53 253/302/53
f 252/270/54 254/240/54 253/303/54
f 253/303/55 254/240/55 222/239/55
